AnekTamil-SemiCondensedBold.ufo
<glyph name="exclam" format="2">
  <advance width="468.5866666666667"/>
  <unicode hex="0021"/>
  <outline>
    <contour>
      <point x="351.94166666666666" y="418.9733333333333" type="line"/>
      <point x="387.4816666666667" y="1278.0" type="line"/>
      <point x="81.10499999999999" y="1278.0" type="line"/>
      <point x="116.99333333333334" y="418.9733333333333" type="line"/>
    </contour>
    <contour>
      <point x="236.68666666666667" y="-26.118333333333332" type="curve" smooth="yes"/>
      <point x="338.68833333333333" y="-26.118333333333332"/>
      <point x="389.36333333333334" y="34.25333333333334"/>
      <point x="389.36333333333334" y="138.37833333333333" type="curve" smooth="yes"/>
      <point x="389.36333333333334" y="152.2266666666667" type="line" smooth="yes"/>
      <point x="389.36333333333334" y="255.00333333333333"/>
      <point x="338.68833333333333" y="316.42"/>
      <point x="236.68666666666667" y="316.42" type="curve" smooth="yes"/>
      <point x="132.33666666666667" y="316.42"/>
      <point x="84.35833333333333" y="255.00333333333333"/>
      <point x="84.35833333333333" y="152.2266666666667" type="curve" smooth="yes"/>
      <point x="84.35833333333333" y="138.37833333333333" type="line" smooth="yes"/>
      <point x="84.35833333333333" y="34.25333333333334"/>
      <point x="132.33666666666667" y="-26.118333333333332"/>
    </contour>
  </outline>
</glyph>
<glyph name="numbersign" format="2">
  <advance width="1041.715"/>
  <unicode hex="0023"/>
  <outline>
    <contour>
      <point x="133.81833333333333" y="0.0" type="line"/>
      <point x="356.71000000000004" y="0.0" type="line"/>
      <point x="506.20500000000004" y="1278.0" type="line"/>
      <point x="283.31333333333333" y="1278.0" type="line"/>
    </contour>
    <contour>
      <point x="41.39833333333333" y="285.50333333333333" type="line"/>
      <point x="949.7266666666667" y="285.50333333333333" type="line"/>
      <point x="949.7266666666667" y="492.715" type="line"/>
      <point x="41.39833333333333" y="492.715" type="line"/>
    </contour>
    <contour>
      <point x="539.5550000000001" y="0.0" type="line"/>
      <point x="763.6433333333333" y="0.0" type="line"/>
      <point x="909.5933333333334" y="1278.0" type="line"/>
      <point x="686.2016666666666" y="1278.0" type="line"/>
    </contour>
    <contour>
      <point x="94.14000000000001" y="785.605" type="line"/>
      <point x="1000.4683333333332" y="785.605" type="line"/>
      <point x="1000.4683333333332" y="992.4683333333334" type="line"/>
      <point x="94.14000000000001" y="992.4683333333334" type="line"/>
    </contour>
  </outline>
</glyph>
<glyph name="dollar" format="2">
  <advance width="884.6150000000001"/>
  <unicode hex="0024"/>
  <anchor x="431.7316666666667" y="0.0" name="bottom"/>
  <anchor x="431.7316666666667" y="1278.0" name="top"/>
  <outline>
    <contour>
      <point x="556.8966666666666" y="1149.4299999999998" type="line"/>
      <point x="556.8966666666666" y="1457.4883333333335" type="line"/>
      <point x="311.3416666666667" y="1457.4883333333335" type="line"/>
      <point x="311.3416666666667" y="1149.4299999999998" type="line"/>
    </contour>
    <contour>
      <point x="556.8966666666666" y="-186.14000000000001" type="line"/>
      <point x="556.8966666666666" y="141.105" type="line"/>
      <point x="311.3416666666667" y="141.105" type="line"/>
      <point x="311.3416666666667" y="-186.14000000000001" type="line"/>
    </contour>
    <component base="S"/>
  </outline>
</glyph>
<glyph name="percent" format="2">
  <advance width="1375.8566666666666"/>
  <unicode hex="0025"/>
  <outline>
    <contour>
      <point x="247.57833333333332" y="0.0" type="line"/>
      <point x="464.845" y="0.0" type="line"/>
      <point x="1128.1883333333335" y="1278.0" type="line"/>
      <point x="914.0116666666667" y="1278.0" type="line"/>
    </contour>
    <contour>
      <point x="1052.1316666666667" y="-27.831666666666663" type="curve" smooth="yes"/>
      <point x="1228.975" y="-27.831666666666663"/>
      <point x="1321.7450000000001" y="71.84833333333333"/>
      <point x="1321.7450000000001" y="251.49500000000003" type="curve" smooth="yes"/>
      <point x="1321.7450000000001" y="367.27500000000003" type="line" smooth="yes"/>
      <point x="1321.7450000000001" y="547.27"/>
      <point x="1228.975" y="645.95"/>
      <point x="1052.1316666666667" y="645.95" type="curve" smooth="yes"/>
      <point x="875.0916666666666" y="645.95"/>
      <point x="782.9733333333334" y="546.9666666666667"/>
      <point x="782.9733333333334" y="367.27500000000003" type="curve" smooth="yes"/>
      <point x="782.9733333333334" y="251.49500000000003" type="line" smooth="yes"/>
      <point x="782.9733333333334" y="71.15166666666667"/>
      <point x="874.9399999999999" y="-27.831666666666663"/>
    </contour>
    <contour>
      <point x="1052.1316666666667" y="133.01833333333335" type="curve" smooth="yes"/>
      <point x="1000.1716666666667" y="133.01833333333335"/>
      <point x="976.5316666666666" y="168.355"/>
      <point x="976.5316666666666" y="240.96666666666667" type="curve" smooth="yes"/>
      <point x="976.5316666666666" y="376.80333333333334" type="line" smooth="yes"/>
      <point x="976.5316666666666" y="449.915"/>
      <point x="1000.0200000000001" y="485.25166666666667"/>
      <point x="1052.1316666666667" y="485.25166666666667" type="curve" smooth="yes"/>
      <point x="1104.2433333333333" y="485.25166666666667"/>
      <point x="1127.7316666666668" y="449.915"/>
      <point x="1127.7316666666668" y="376.80333333333334" type="curve" smooth="yes"/>
      <point x="1127.7316666666668" y="240.96666666666667" type="line" smooth="yes"/>
      <point x="1127.7316666666668" y="168.355"/>
      <point x="1104.3950000000002" y="133.01833333333335"/>
    </contour>
    <contour>
      <point x="323.27" y="630.1566666666666" type="curve" smooth="yes"/>
      <point x="500.1133333333333" y="630.1566666666666"/>
      <point x="592.7316666666667" y="729.8366666666667"/>
      <point x="592.7316666666667" y="908.68" type="curve" smooth="yes"/>
      <point x="592.7316666666667" y="1025.1116666666667" type="line" smooth="yes"/>
      <point x="592.7316666666667" y="1204.1516666666666"/>
      <point x="500.1133333333333" y="1302.9833333333333"/>
      <point x="323.27" y="1302.9833333333333" type="curve" smooth="yes"/>
      <point x="145.92666666666665" y="1302.9833333333333"/>
      <point x="53.80833333333333" y="1204.1516666666666"/>
      <point x="53.80833333333333" y="1025.1116666666667" type="curve" smooth="yes"/>
      <point x="53.80833333333333" y="908.68" type="line" smooth="yes"/>
      <point x="53.80833333333333" y="728.9883333333333"/>
      <point x="145.92666666666665" y="630.1566666666666"/>
    </contour>
    <contour>
      <point x="323.27" y="790.855" type="curve" smooth="yes"/>
      <point x="271.31" y="790.855"/>
      <point x="248.01833333333332" y="825.54"/>
      <point x="248.01833333333332" y="898.6516666666668" type="curve" smooth="yes"/>
      <point x="248.01833333333332" y="1034.6399999999999" type="line" smooth="yes"/>
      <point x="248.01833333333332" y="1107.4483333333333"/>
      <point x="271.15833333333336" y="1142.5883333333334"/>
      <point x="323.27" y="1142.5883333333334" type="curve" smooth="yes"/>
      <point x="375.22999999999996" y="1142.5883333333334"/>
      <point x="398.7183333333333" y="1107.4483333333333"/>
      <point x="398.7183333333333" y="1034.6399999999999" type="curve" smooth="yes"/>
      <point x="398.7183333333333" y="898.6516666666668" type="line" smooth="yes"/>
      <point x="398.7183333333333" y="825.54"/>
      <point x="375.22999999999996" y="790.855"/>
    </contour>
  </outline>
</glyph>
<glyph name="ampersand" format="2">
  <advance width="1170.0"/>
  <unicode hex="0026"/>
  <outline>
    <contour>
      <point x="892.6299999999999" y="0.6966666666666667" type="curve"/>
      <point x="1193.5733333333333" y="0.6966666666666667" type="line"/>
      <point x="1193.5733333333333" y="21.16333333333333" type="line"/>
      <point x="1086.235" y="160.55833333333334"/>
      <point x="995.7466666666668" y="272.17"/>
      <point x="892.4533333333334" y="392.8566666666667" type="curve"/>
      <point x="831.8566666666667" y="464.10499999999996" type="line"/>
      <point x="531.5216666666666" y="806.355" type="line" smooth="yes"/>
      <point x="476.5166666666667" y="870.5283333333333"/>
      <point x="451.30333333333334" y="911.0500000000001"/>
      <point x="451.30333333333334" y="958.4983333333333" type="curve" smooth="yes"/>
      <point x="451.30333333333334" y="962.2566666666667" type="line" smooth="yes"/>
      <point x="451.30333333333334" y="1021.4633333333334"/>
      <point x="490.20166666666665" y="1056.3500000000001"/>
      <point x="581.0766666666666" y="1056.3500000000001" type="curve" smooth="yes"/>
      <point x="673.5033333333333" y="1056.3500000000001"/>
      <point x="761.7733333333333" y="1032.2716666666665"/>
      <point x="829.3633333333333" y="1003.7833333333333" type="curve"/>
      <point x="809.29" y="1242.8149999999998" type="line"/>
      <point x="738.9466666666667" y="1275.5733333333333"/>
      <point x="639.4516666666667" y="1302.2866666666666"/>
      <point x="504.76" y="1302.2866666666666" type="curve" smooth="yes"/>
      <point x="276.03999999999996" y="1302.2866666666666"/>
      <point x="149.82" y="1184.4099999999999"/>
      <point x="149.82" y="999.2583333333333" type="curve" smooth="yes"/>
      <point x="149.82" y="990.8649999999999" type="line" smooth="yes"/>
      <point x="149.82" y="878.9266666666667"/>
      <point x="190.60666666666668" y="803.9883333333333"/>
      <point x="275.61833333333334" y="705.46" type="curve"/>
      <point x="322.68666666666667" y="649.4816666666667" type="line"/>
      <point x="678.1966666666667" y="255.34333333333333" type="line"/>
      <point x="715.6133333333333" y="214.1233333333333" type="line"/>
      <point x="759.0633333333333" y="161.38666666666666"/>
      <point x="845.8316666666666" y="58.585"/>
    </contour>
    <contour>
      <point x="459.4283333333334" y="-24.98333333333333" type="curve" smooth="yes"/>
      <point x="650.0966666666667" y="-24.98333333333333"/>
      <point x="753.2766666666666" y="45.004999999999995"/>
      <point x="839.8666666666667" y="165.015" type="curve"/>
      <point x="940.8416666666666" y="266.04" type="line"/>
      <point x="1051.7533333333333" y="416.1583333333333"/>
      <point x="1100.72" y="606.0683333333333"/>
      <point x="1117.0683333333334" y="818.725" type="curve"/>
      <point x="844.2433333333333" y="818.725" type="line"/>
      <point x="837.03" y="676.4233333333334"/>
      <point x="815.03" y="543.8733333333333"/>
      <point x="763.0466666666666" y="435.36833333333334" type="curve"/>
      <point x="681.73" y="323.1583333333333" type="line"/>
      <point x="641.77" y="257.52"/>
      <point x="586.0966666666666" y="216.67833333333334"/>
      <point x="492.9516666666666" y="216.67833333333334" type="curve" smooth="yes"/>
      <point x="387.11" y="216.67833333333334"/>
      <point x="334.90833333333336" y="275.03166666666664"/>
      <point x="334.90833333333336" y="381.83333333333337" type="curve" smooth="yes"/>
      <point x="334.90833333333336" y="423.1066666666667" type="line" smooth="yes"/>
      <point x="334.90833333333336" y="506.9033333333333"/>
      <point x="354.44166666666666" y="553.515"/>
      <point x="414.72166666666664" y="587.0816666666667" type="curve"/>
      <point x="265.01666666666665" y="773.6800000000001" type="line"/>
      <point x="114.55000000000001" y="686.5733333333334"/>
      <point x="54.58333333333334" y="576.2583333333333"/>
      <point x="54.58333333333334" y="406.7583333333333" type="curve" smooth="yes"/>
      <point x="54.58333333333334" y="360.8216666666667" type="line" smooth="yes"/>
      <point x="54.58333333333334" y="114.10166666666667"/>
      <point x="186.2133333333333" y="-24.98333333333333"/>
    </contour>
  </outline>
</glyph>
<glyph name="quotesingle" format="2">
  <advance width="379.025"/>
  <unicode hex="0027"/>
  <outline>
    <contour>
      <point x="296.8233333333333" y="820.8466666666667" type="line"/>
      <point x="324.57666666666665" y="1323.0166666666667" type="line"/>
      <point x="54.44833333333333" y="1323.0166666666667" type="line"/>
      <point x="81.505" y="820.8466666666667" type="line"/>
    </contour>
  </outline>
</glyph>
<glyph name="parenleft" format="2">
  <advance width="571.1716666666667"/>
  <unicode hex="0028"/>
  <outline>
    <contour>
      <point x="360.9533333333333" y="598.3633333333333" type="line" smooth="yes"/>
      <point x="360.9533333333333" y="906.8583333333333"/>
      <point x="427.555" y="1130.6116666666665"/>
      <point x="562.0266666666666" y="1351.5" type="curve"/>
      <point x="278.23499999999996" y="1351.5" type="line"/>
      <point x="156.20166666666668" y="1159.1516666666666"/>
      <point x="86.965" y="931.6283333333333"/>
      <point x="86.965" y="608.195" type="curve" smooth="yes"/>
      <point x="86.965" y="498.17" type="line" smooth="yes"/>
      <point x="86.965" y="174.085"/>
      <point x="155.3983333333333" y="-52.24166666666667"/>
      <point x="276.88666666666666" y="-244.43833333333333" type="curve"/>
      <point x="562.0266666666666" y="-244.43833333333333" type="line"/>
      <point x="427.555" y="-25.291666666666664"/>
      <point x="360.9533333333333" y="198.31"/>
      <point x="360.9533333333333" y="508.30500000000006" type="curve" smooth="yes"/>
    </contour>
  </outline>
</glyph>
<glyph name="parenright" format="2">
  <advance width="571.475"/>
  <unicode hex="0029"/>
  <outline>
    <contour>
      <point x="210.52166666666665" y="598.3633333333333" type="curve" smooth="yes"/>
      <point x="210.52166666666665" y="508.30500000000006" type="line" smooth="yes"/>
      <point x="210.52166666666665" y="198.31"/>
      <point x="143.92" y="-25.291666666666664"/>
      <point x="9.448333333333334" y="-244.43833333333333" type="curve"/>
      <point x="294.5883333333333" y="-244.43833333333333" type="line"/>
      <point x="416.07666666666665" y="-52.24166666666667"/>
      <point x="484.51" y="174.085"/>
      <point x="484.51" y="498.17" type="curve" smooth="yes"/>
      <point x="484.51" y="608.195" type="line" smooth="yes"/>
      <point x="484.51" y="931.6283333333333"/>
      <point x="415.2733333333333" y="1159.1516666666666"/>
      <point x="293.24" y="1351.5" type="curve"/>
      <point x="9.448333333333334" y="1351.5" type="line"/>
      <point x="143.92" y="1130.6116666666665"/>
      <point x="210.52166666666665" y="906.8583333333333"/>
    </contour>
  </outline>
</glyph>
<glyph name="asterisk" format="2">
  <advance width="719.4000000000001"/>
  <unicode hex="002A"/>
  <outline>
    <contour>
      <point x="254.6533333333333" y="630.8233333333334" type="line"/>
      <point x="356.60166666666663" y="806.7833333333333" type="line"/>
      <point x="362.34333333333336" y="806.7833333333333" type="line"/>
      <point x="464.7916666666667" y="630.8233333333334" type="line"/>
      <point x="645.3283333333334" y="752.8366666666667" type="line"/>
      <point x="507.62666666666667" y="900.8183333333333" type="line"/>
      <point x="508.62666666666667" y="906.9083333333333" type="line"/>
      <point x="688.5916666666667" y="935.0816666666667" type="line"/>
      <point x="637.9166666666666" y="1152.1416666666667" type="line"/>
      <point x="454.40666666666664" y="1078.9283333333335" type="line"/>
      <point x="450.8616666666667" y="1082.3216666666667" type="line"/>
      <point x="479.46333333333337" y="1278.0" type="line"/>
      <point x="239.93666666666664" y="1278.0" type="line"/>
      <point x="268.03833333333336" y="1082.3216666666667" type="line"/>
      <point x="264.14500000000004" y="1078.9283333333335" type="line"/>
      <point x="81.33166666666666" y="1152.1416666666667" type="line"/>
      <point x="30.80833333333333" y="935.0816666666667" type="line"/>
      <point x="210.47" y="906.9083333333333" type="line"/>
      <point x="212.16666666666666" y="900.8183333333333" type="line"/>
      <point x="73.76833333333333" y="752.8366666666667" type="line"/>
    </contour>
  </outline>
</glyph>
<glyph name="plus" format="2">
  <advance width="867.3050000000001"/>
  <unicode hex="002B"/>
  <outline>
    <contour>
      <point x="556.1716666666666" y="245.14000000000001" type="line"/>
      <point x="556.1716666666666" y="1010.27" type="line"/>
      <point x="311.83" y="1010.27" type="line"/>
      <point x="311.83" y="245.14000000000001" type="line"/>
    </contour>
    <contour>
      <point x="71.38166666666666" y="511.20000000000005" type="line"/>
      <point x="795.9233333333333" y="511.20000000000005" type="line"/>
      <point x="795.9233333333333" y="744.2099999999999" type="line"/>
      <point x="71.38166666666666" y="744.2099999999999" type="line"/>
    </contour>
  </outline>
</glyph>
<glyph name="comma" format="2">
  <advance width="417.0033333333333"/>
  <unicode hex="002C"/>
  <outline>
    <contour>
      <point x="341.49833333333333" y="326.48" type="curve"/>
      <point x="77.06666666666666" y="326.48" type="line"/>
      <point x="81.21833333333333" y="277.21000000000004"/>
      <point x="83.21833333333333" y="239.75500000000002"/>
      <point x="83.21833333333333" y="192.96833333333333" type="curve" smooth="yes"/>
      <point x="83.21833333333333" y="41.001666666666665"/>
      <point x="50.87" y="-76.43666666666667"/>
      <point x="-4.1016666666666675" y="-181.67833333333334" type="curve"/>
      <point x="189.885" y="-229.84166666666667" type="line"/>
      <point x="304.07666666666665" y="-100.96499999999999"/>
      <point x="350.99833333333333" y="38.04666666666667"/>
      <point x="350.99833333333333" y="204.3" type="curve" smooth="yes"/>
      <point x="350.99833333333333" y="251.64833333333334"/>
      <point x="346.195" y="292.0133333333334"/>
    </contour>
  </outline>
</glyph>
<glyph name="hyphen" format="2">
  <advance width="661.465"/>
  <unicode hex="002D"/>
  <outline>
    <contour>
      <point x="79.94833333333334" y="390.75" type="line"/>
      <point x="581.5166666666667" y="390.75" type="line"/>
      <point x="581.5166666666667" y="624.7149999999999" type="line"/>
      <point x="79.94833333333334" y="624.7149999999999" type="line"/>
    </contour>
  </outline>
</glyph>
<glyph name="period" format="2">
  <advance width="422.10499999999996"/>
  <unicode hex="002E"/>
  <outline>
    <contour>
      <point x="211.2266666666667" y="-25.421666666666667" type="curve" smooth="yes"/>
      <point x="313.57666666666665" y="-25.421666666666667"/>
      <point x="364.59999999999997" y="35.29833333333333"/>
      <point x="364.59999999999997" y="140.12" type="curve" smooth="yes"/>
      <point x="364.59999999999997" y="153.96833333333333" type="line" smooth="yes"/>
      <point x="364.59999999999997" y="257.44166666666666"/>
      <point x="313.57666666666665" y="319.555"/>
      <point x="211.2266666666667" y="319.555" type="curve" smooth="yes"/>
      <point x="105.83166666666666" y="319.555"/>
      <point x="57.505" y="257.44166666666666"/>
      <point x="57.505" y="153.96833333333333" type="curve" smooth="yes"/>
      <point x="57.505" y="140.12" type="line" smooth="yes"/>
      <point x="57.505" y="35.29833333333333"/>
      <point x="105.83166666666666" y="-25.421666666666667"/>
    </contour>
  </outline>
</glyph>
<glyph name="slash" format="2">
  <advance width="753.0200000000001"/>
  <unicode hex="002F"/>
  <outline>
    <contour>
      <point x="-1.383333333333331" y="-244.135" type="line"/>
      <point x="252.17166666666668" y="-244.135" type="line"/>
      <point x="754.4033333333333" y="1350.2866666666666" type="line"/>
      <point x="501.15166666666664" y="1350.2866666666666" type="line"/>
    </contour>
  </outline>
</glyph>
<glyph name="zero" format="2">
  <advance width="1040.4483333333333"/>
  <unicode hex="0030"/>
  <outline>
    <contour>
      <point x="519.8" y="-24.59" type="curve" smooth="yes"/>
      <point x="816.965" y="-24.59"/>
      <point x="968.3650000000001" y="137.84333333333333"/>
      <point x="968.3650000000001" y="452.5866666666667" type="curve"/>
      <point x="968.3650000000001" y="825.7616666666667" type="line"/>
      <point x="968.3650000000001" y="1138.6116666666667"/>
      <point x="816.965" y="1302.2416666666668"/>
      <point x="519.8" y="1302.2416666666668" type="curve" smooth="yes"/>
      <point x="222.48333333333332" y="1302.2416666666668"/>
      <point x="72.08333333333334" y="1138.6116666666667"/>
      <point x="72.08333333333334" y="825.7616666666667" type="curve"/>
      <point x="72.08333333333334" y="452.5866666666667" type="line"/>
      <point x="72.08333333333334" y="137.84333333333333"/>
      <point x="222.98333333333332" y="-24.59"/>
    </contour>
    <contour>
      <point x="519.8" y="220.60000000000002" type="curve" smooth="yes"/>
      <point x="415.105" y="220.60000000000002"/>
      <point x="371.02166666666665" y="290.9866666666667"/>
      <point x="371.02166666666665" y="434.12" type="curve" smooth="yes"/>
      <point x="371.02166666666665" y="843.5316666666666" type="line" smooth="yes"/>
      <point x="371.02166666666665" y="986.665"/>
      <point x="414.2566666666667" y="1057.2033333333334"/>
      <point x="519.8" y="1057.2033333333334" type="curve" smooth="yes"/>
      <point x="625.3433333333332" y="1057.2033333333334"/>
      <point x="669.4266666666667" y="987.0133333333333"/>
      <point x="669.4266666666667" y="843.5316666666666" type="curve" smooth="yes"/>
      <point x="669.4266666666667" y="434.12" type="line" smooth="yes"/>
      <point x="669.4266666666667" y="290.9866666666667"/>
      <point x="625.3433333333332" y="220.60000000000002"/>
    </contour>
  </outline>
</glyph>
<glyph name="one" format="2">
  <advance width="651.1716666666666"/>
  <unicode hex="0031"/>
  <outline>
    <contour>
      <point x="262.42" y="0.0" type="line"/>
      <point x="554.7233333333334" y="0.0" type="line"/>
      <point x="554.7233333333334" y="1278.0" type="line"/>
      <point x="303.11833333333334" y="1278.0" type="line"/>
      <point x="34.06166666666667" y="1137.6366666666668" type="line"/>
      <point x="27.03333333333333" y="846.9516666666667" type="line"/>
      <point x="248.72333333333336" y="963.1066666666667" type="line"/>
      <point x="262.42" y="963.1066666666667" type="line"/>
    </contour>
  </outline>
</glyph>
<glyph name="two" format="2">
  <advance width="833.4133333333334"/>
  <unicode hex="0032"/>
  <outline>
    <contour>
      <point x="45.48833333333333" y="0.0" type="line"/>
      <point x="784.7566666666667" y="0.0" type="line"/>
      <point x="784.7566666666667" y="254.52166666666668" type="line"/>
      <point x="257.8183333333333" y="254.52166666666668" type="line"/>
      <point x="386.43333333333334" y="213.81333333333333" type="line"/>
      <point x="386.43333333333334" y="265.1116666666667" type="line"/>
      <point x="549.6899999999999" y="457.97333333333336" type="line" smooth="yes"/>
      <point x="699.7966666666666" y="628.8033333333334"/>
      <point x="776.0883333333333" y="745.8366666666666"/>
      <point x="776.0883333333333" y="918.6733333333334" type="curve" smooth="yes"/>
      <point x="776.0883333333333" y="939.735" type="line" smooth="yes"/>
      <point x="776.0883333333333" y="1164.14"/>
      <point x="646.3683333333333" y="1300.9383333333333"/>
      <point x="387.89500000000004" y="1300.9383333333333" type="curve" smooth="yes"/>
      <point x="248.96166666666664" y="1300.9383333333333"/>
      <point x="144.905" y="1263.3766666666668"/>
      <point x="76.89333333333333" y="1222.9833333333333" type="curve"/>
      <point x="55.275000000000006" y="968.4733333333334" type="line"/>
      <point x="121.88166666666667" y="1005.855"/>
      <point x="208.42666666666668" y="1043.2649999999999"/>
      <point x="308.03333333333336" y="1043.2649999999999" type="curve" smooth="yes"/>
      <point x="428.94833333333327" y="1043.2649999999999"/>
      <point x="478.695" y="989.6366666666667"/>
      <point x="478.695" y="897.7283333333334" type="curve" smooth="yes"/>
      <point x="478.695" y="881.8466666666667" type="line" smooth="yes"/>
      <point x="478.695" y="790.135"/>
      <point x="424.88666666666666" y="719.0016666666667"/>
      <point x="306.80333333333334" y="583.5150000000001" type="curve" smooth="yes"/>
      <point x="45.48833333333333" y="273.80833333333334" type="line"/>
    </contour>
  </outline>
</glyph>
<glyph name="three" format="2">
  <advance width="852.9466666666667"/>
  <unicode hex="0033"/>
  <outline>
    <contour>
      <point x="370.855" y="-23.286666666666665" type="curve" smooth="yes"/>
      <point x="665.5983333333334" y="-23.286666666666665"/>
      <point x="800.7116666666667" y="116.61833333333334"/>
      <point x="800.7116666666667" y="337.28166666666664" type="curve" smooth="yes"/>
      <point x="800.7116666666667" y="376.7183333333333" type="line" smooth="yes"/>
      <point x="800.7116666666667" y="543.0616666666667"/>
      <point x="732.3966666666666" y="634.8483333333334"/>
      <point x="551.5583333333334" y="660.865" type="curve"/>
      <point x="566.07" y="627.4316666666667" type="line"/>
      <point x="566.07" y="669.365" type="line"/>
      <point x="720.7616666666667" y="694.6233333333333"/>
      <point x="793.4083333333333" y="782.7016666666666"/>
      <point x="793.4083333333333" y="942.77" type="curve" smooth="yes"/>
      <point x="793.4083333333333" y="974.3533333333334" type="line" smooth="yes"/>
      <point x="793.4083333333333" y="1180.7133333333334"/>
      <point x="667.0983333333334" y="1301.09"/>
      <point x="397.3833333333333" y="1301.09" type="curve" smooth="yes"/>
      <point x="253.2816666666667" y="1301.09"/>
      <point x="147.815" y="1267.68"/>
      <point x="73.955" y="1230.27" type="curve"/>
      <point x="52.836666666666666" y="985.2883333333333" type="line"/>
      <point x="124.48833333333334" y="1016.7766666666668"/>
      <point x="220.185" y="1048.8999999999999"/>
      <point x="328.77500000000003" y="1048.8999999999999" type="curve" smooth="yes"/>
      <point x="454.81333333333333" y="1048.8999999999999"/>
      <point x="498.05999999999995" y="1003.8616666666667"/>
      <point x="498.05999999999995" y="917.7566666666667" type="curve" smooth="yes"/>
      <point x="498.05999999999995" y="902.87" type="line" smooth="yes"/>
      <point x="498.05999999999995" y="816.7366666666667"/>
      <point x="450.76833333333326" y="775.485"/>
      <point x="325.87666666666667" y="770.985" type="curve" smooth="yes"/>
      <point x="171.8816666666667" y="765.94" type="line"/>
      <point x="171.8816666666667" y="527.0366666666666" type="line"/>
      <point x="325.9216666666666" y="522.84" type="line" smooth="yes"/>
      <point x="454.50999999999993" y="519.0366666666667"/>
      <point x="500.42500000000007" y="479.86333333333334"/>
      <point x="500.42500000000007" y="389.09000000000003" type="curve" smooth="yes"/>
      <point x="500.42500000000007" y="368.41166666666663" type="line" smooth="yes"/>
      <point x="500.42500000000007" y="279.5033333333334"/>
      <point x="458.01" y="232.555"/>
      <point x="317.29166666666663" y="232.555" type="curve" smooth="yes"/>
      <point x="212.12333333333333" y="232.555"/>
      <point x="119.62333333333332" y="263.17833333333334"/>
      <point x="42.943333333333335" y="300.06" type="curve"/>
      <point x="64.365" y="40.42666666666667" type="line"/>
      <point x="129.02833333333334" y="8.578333333333333"/>
      <point x="241.5233333333333" y="-23.286666666666665"/>
    </contour>
  </outline>
</glyph>
<glyph name="four" format="2">
  <advance width="974.7183333333332"/>
  <unicode hex="0034"/>
  <outline>
    <contour>
      <point x="552.1633333333333" y="0.0" type="line"/>
      <point x="825.5616666666667" y="0.0" type="line"/>
      <point x="825.5616666666667" y="1278.0" type="line"/>
      <point x="361.0366666666667" y="1278.0" type="line"/>
      <point x="43.25833333333333" y="475.54833333333335" type="line"/>
      <point x="43.25833333333333" y="209.88666666666668" type="line"/>
      <point x="944.3249999999999" y="209.88666666666668" type="line"/>
      <point x="944.3249999999999" y="448.7166666666667" type="line"/>
      <point x="199.85666666666665" y="448.7166666666667" type="line"/>
      <point x="314.4766666666667" y="356.805" type="line"/>
      <point x="314.4766666666667" y="461.9133333333333" type="line"/>
      <point x="542.8883333333334" y="1077.62" type="line"/>
      <point x="563.995" y="1077.62" type="line"/>
      <point x="552.1633333333333" y="722.05" type="line"/>
    </contour>
  </outline>
</glyph>
<glyph name="five" format="2">
  <advance width="920.11"/>
  <unicode hex="0035"/>
  <outline>
    <contour>
      <point x="416.765" y="-22.741666666666667" type="curve" smooth="yes"/>
      <point x="741.7566666666668" y="-22.741666666666667"/>
      <point x="862.375" y="132.38833333333332"/>
      <point x="862.375" y="399.255" type="curve" smooth="yes"/>
      <point x="862.375" y="478.955" type="line" smooth="yes"/>
      <point x="862.375" y="706.085"/>
      <point x="784.4033333333333" y="837.265"/>
      <point x="600.6166666666667" y="837.265" type="curve" smooth="yes"/>
      <point x="461.37999999999994" y="837.265"/>
      <point x="392.7733333333333" y="772.495"/>
      <point x="361.49833333333333" y="666.64" type="curve"/>
      <point x="350.9083333333333" y="666.64" type="line"/>
      <point x="354.4083333333333" y="833.4599999999999" type="line"/>
      <point x="354.4083333333333" y="1028.0066666666667" type="line"/>
      <point x="819.6216666666667" y="1028.0066666666667" type="line"/>
      <point x="819.6216666666667" y="1278.0" type="line"/>
      <point x="83.62833333333334" y="1278.0" type="line"/>
      <point x="83.62833333333334" y="523.0433333333333" type="line"/>
      <point x="339.62166666666667" y="490.29" type="line"/>
      <point x="362.2783333333333" y="558.9016666666666"/>
      <point x="400.49666666666667" y="604.0250000000001"/>
      <point x="471.7316666666667" y="604.0250000000001" type="curve" smooth="yes"/>
      <point x="549.0166666666667" y="604.0250000000001"/>
      <point x="579.325" y="558.515"/>
      <point x="579.325" y="468.5783333333333" type="curve" smooth="yes"/>
      <point x="579.325" y="401.45166666666665" type="line" smooth="yes"/>
      <point x="579.325" y="291.12166666666667"/>
      <point x="530.0166666666667" y="233.99333333333334"/>
      <point x="378.78666666666663" y="233.99333333333334" type="curve" smooth="yes"/>
      <point x="261.1066666666667" y="233.99333333333334"/>
      <point x="153.46" y="270.4483333333333"/>
      <point x="77.78" y="308.57166666666666" type="curve"/>
      <point x="99.70166666666665" y="44.516666666666666" type="line"/>
      <point x="163.66833333333335" y="12.516666666666667"/>
      <point x="274.86" y="-22.741666666666667"/>
    </contour>
  </outline>
</glyph>
<glyph name="six" format="2">
  <advance width="983.9816666666668"/>
  <unicode hex="0036"/>
  <outline>
    <contour>
      <point x="503.2716666666667" y="-23.348333333333333" type="curve" smooth="yes"/>
      <point x="784.195" y="-23.348333333333333"/>
      <point x="925.6566666666665" y="120.01166666666667"/>
      <point x="925.6566666666665" y="386.1933333333333" type="curve" smooth="yes"/>
      <point x="925.6566666666665" y="454.35333333333335" type="line" smooth="yes"/>
      <point x="925.6566666666665" y="698.8149999999999"/>
      <point x="836.2916666666666" y="836.3266666666667"/>
      <point x="633.9766666666666" y="836.3266666666667" type="curve" smooth="yes"/>
      <point x="466.3916666666667" y="836.3266666666667"/>
      <point x="392.2683333333333" y="745.0450000000001"/>
      <point x="367.34166666666664" y="635.6683333333334" type="curve"/>
      <point x="317.90833333333336" y="635.6683333333334" type="line"/>
      <point x="352.3416666666667" y="487.09000000000003" type="line"/>
      <point x="375.1166666666667" y="559.9083333333333"/>
      <point x="432.8066666666667" y="607.48"/>
      <point x="513.6366666666667" y="607.48" type="curve" smooth="yes"/>
      <point x="610.36" y="607.48"/>
      <point x="642.4716666666667" y="551.3349999999999"/>
      <point x="642.4716666666667" y="448.005" type="curve" smooth="yes"/>
      <point x="642.4716666666667" y="384.6483333333333" type="line" smooth="yes"/>
      <point x="642.4716666666667" y="276.89666666666665"/>
      <point x="604.1916666666666" y="221.49333333333334"/>
      <point x="508.90666666666664" y="221.49333333333334" type="curve" smooth="yes"/>
      <point x="403.79" y="221.49333333333334"/>
      <point x="357.145" y="286.88000000000005"/>
      <point x="357.145" y="428.66499999999996" type="curve"/>
      <point x="357.145" y="771.935" type="line" smooth="yes"/>
      <point x="357.145" y="963.575"/>
      <point x="434.81333333333333" y="1047.7933333333333"/>
      <point x="607.83" y="1047.7933333333333" type="curve" smooth="yes"/>
      <point x="719.24" y="1047.7933333333333"/>
      <point x="801.7066666666667" y="1019.9283333333334"/>
      <point x="870.5999999999999" y="987.2433333333333" type="curve"/>
      <point x="845.9366666666666" y="1238.1633333333334" type="line"/>
      <point x="779.8183333333334" y="1269.5733333333333"/>
      <point x="676.975" y="1300.4383333333333"/>
      <point x="542.115" y="1300.4383333333333" type="curve" smooth="yes"/>
      <point x="227.18" y="1300.4383333333333"/>
      <point x="67.88666666666667" y="1116.9766666666667"/>
      <point x="67.88666666666667" y="786.5083333333333" type="curve" smooth="yes"/>
      <point x="67.88666666666667" y="441.1816666666667" type="line" smooth="yes"/>
      <point x="67.88666666666667" y="135.43333333333334"/>
      <point x="218.455" y="-23.348333333333333"/>
    </contour>
  </outline>
</glyph>
<glyph name="seven" format="2">
  <advance width="826.88"/>
  <unicode hex="0037"/>
  <outline>
    <contour>
      <point x="128.16166666666666" y="0.0" type="line"/>
      <point x="438.19" y="0.0" type="line"/>
      <point x="780.925" y="1014.995" type="line"/>
      <point x="780.925" y="1278.0" type="line"/>
      <point x="38.42666666666666" y="1278.0" type="line"/>
      <point x="38.42666666666666" y="1023.675" type="line"/>
      <point x="480.72833333333335" y="1023.675" type="line"/>
    </contour>
  </outline>
</glyph>
<glyph name="eight" format="2">
  <advance width="983.0033333333332"/>
  <unicode hex="0038"/>
  <outline>
    <contour>
      <point x="490.65333333333336" y="-28.331666666666663" type="curve" smooth="yes"/>
      <point x="815.1333333333333" y="-28.331666666666663"/>
      <point x="928.6166666666667" y="114.11833333333333"/>
      <point x="928.6166666666667" y="327.82666666666665" type="curve" smooth="yes"/>
      <point x="928.6166666666667" y="365.77500000000003" type="line" smooth="yes"/>
      <point x="928.6166666666667" y="534.4833333333332"/>
      <point x="859.3133333333333" y="626.7133333333333"/>
      <point x="714.8916666666667" y="665.1516666666666" type="curve"/>
      <point x="714.8916666666667" y="674.8933333333333" type="line"/>
      <point x="849.285" y="707.8766666666667"/>
      <point x="917.1166666666667" y="790.23"/>
      <point x="917.1166666666667" y="938.4383333333334" type="curve" smooth="yes"/>
      <point x="917.1166666666667" y="972.3083333333334" type="line" smooth="yes"/>
      <point x="917.1166666666667" y="1178.82"/>
      <point x="790.9699999999999" y="1304.135"/>
      <point x="490.65333333333336" y="1304.135" type="curve" smooth="yes"/>
      <point x="194.07833333333332" y="1304.135"/>
      <point x="66.03833333333333" y="1178.82"/>
      <point x="66.03833333333333" y="972.3083333333334" type="curve" smooth="yes"/>
      <point x="66.03833333333333" y="934.955" type="line" smooth="yes"/>
      <point x="66.03833333333333" y="790.2750000000001"/>
      <point x="133.52166666666668" y="706.68"/>
      <point x="266.87" y="674.8933333333333" type="curve"/>
      <point x="266.87" y="665.1516666666666" type="line"/>
      <point x="124.34166666666667" y="628.2583333333333"/>
      <point x="54.538333333333334" y="533.2416666666667"/>
      <point x="54.538333333333334" y="365.77500000000003" type="curve" smooth="yes"/>
      <point x="54.538333333333334" y="327.82666666666665" type="line" smooth="yes"/>
      <point x="54.538333333333334" y="109.52833333333334"/>
      <point x="175.15666666666667" y="-28.331666666666663"/>
    </contour>
    <contour>
      <point x="492.85" y="205.01500000000001" type="curve" smooth="yes"/>
      <point x="380.86833333333334" y="205.01500000000001"/>
      <point x="341.22333333333336" y="257.31166666666667"/>
      <point x="341.22333333333336" y="347.3383333333333" type="curve" smooth="yes"/>
      <point x="341.22333333333336" y="391.315" type="line" smooth="yes"/>
      <point x="341.22333333333336" y="476.2966666666667"/>
      <point x="382.885" y="524.2733333333333"/>
      <point x="487.25999999999993" y="544.79" type="curve"/>
      <point x="596.5733333333334" y="525.9699999999999"/>
      <point x="641.9316666666666" y="479.88666666666666"/>
      <point x="641.9316666666666" y="391.315" type="curve" smooth="yes"/>
      <point x="641.9316666666666" y="347.3383333333333" type="line" smooth="yes"/>
      <point x="641.9316666666666" y="258.16"/>
      <point x="603.635" y="205.01500000000001"/>
    </contour>
    <contour>
      <point x="495.39500000000004" y="755.9283333333333" type="curve"/>
      <point x="391.3283333333333" y="773.035"/>
      <point x="346.195" y="820.2816666666666"/>
      <point x="346.195" y="907.6283333333333" type="curve" smooth="yes"/>
      <point x="346.195" y="943.42" type="line" smooth="yes"/>
      <point x="346.195" y="1029.0366666666664"/>
      <point x="387.02000000000004" y="1079.21"/>
      <point x="490.65333333333336" y="1079.21" type="curve" smooth="yes"/>
      <point x="596.635" y="1079.21"/>
      <point x="636.6116666666667" y="1029.0366666666664"/>
      <point x="636.6116666666667" y="942.7233333333334" type="curve" smooth="yes"/>
      <point x="636.6116666666667" y="906.9316666666666" type="line" smooth="yes"/>
      <point x="636.6116666666667" y="820.4333333333333"/>
      <point x="587.1916666666666" y="770.8383333333334"/>
    </contour>
  </outline>
</glyph>
<glyph name="nine" format="2">
  <advance width="983.6333333333334"/>
  <unicode hex="0039"/>
  <outline>
    <contour>
      <point x="481.21" y="1300.1966666666667" type="curve" smooth="yes"/>
      <point x="201.33166666666668" y="1300.1966666666667"/>
      <point x="58.325" y="1155.4433333333334"/>
      <point x="58.325" y="890.655" type="curve" smooth="yes"/>
      <point x="58.325" y="809.3766666666667" type="line" smooth="yes"/>
      <point x="58.325" y="575.185"/>
      <point x="150.9766666666667" y="439.915"/>
      <point x="356.3983333333333" y="439.915" type="curve" smooth="yes"/>
      <point x="514.365" y="439.915"/>
      <point x="590.4716666666666" y="519.7016666666666"/>
      <point x="616.2916666666667" y="640.225" type="curve"/>
      <point x="698.4683333333334" y="640.225" type="line"/>
      <point x="630.2466666666667" y="783.6233333333332" type="line"/>
      <point x="606.3816666666667" y="713.7433333333333"/>
      <point x="551.9333333333334" y="668.7616666666667"/>
      <point x="475.29999999999995" y="668.7616666666667" type="curve" smooth="yes"/>
      <point x="379.06" y="668.7616666666667"/>
      <point x="341.1616666666667" y="722.4683333333334"/>
      <point x="341.1616666666667" y="826.9333333333333" type="curve" smooth="yes"/>
      <point x="341.1616666666667" y="890.4583333333333" type="line" smooth="yes"/>
      <point x="341.1616666666667" y="997.5133333333333"/>
      <point x="380.9866666666667" y="1055.355"/>
      <point x="477.3166666666667" y="1055.355" type="curve" smooth="yes"/>
      <point x="582.6633333333334" y="1055.355"/>
      <point x="626.4883333333333" y="990.9683333333334"/>
      <point x="626.4883333333333" y="851.0933333333332" type="curve"/>
      <point x="626.4883333333333" y="490.09833333333336" type="line" smooth="yes"/>
      <point x="626.4883333333333" y="309.03166666666664"/>
      <point x="545.64" y="228.70666666666665"/>
      <point x="362.8083333333333" y="228.70666666666665" type="curve" smooth="yes"/>
      <point x="256.4266666666666" y="228.70666666666665"/>
      <point x="178.14000000000001" y="257.2683333333333"/>
      <point x="114.275" y="289.105" type="curve"/>
      <point x="139.43833333333333" y="31.926666666666666" type="line"/>
      <point x="197.98333333333332" y="3.5166666666666675"/>
      <point x="292.7983333333333" y="-23.89333333333333"/>
      <point x="421.765" y="-23.89333333333333" type="curve" smooth="yes"/>
      <point x="750.7733333333333" y="-23.89333333333333"/>
      <point x="915.7466666666667" y="153.82666666666668"/>
      <point x="915.7466666666667" y="476.22166666666664" type="curve" smooth="yes"/>
      <point x="915.7466666666667" y="829.2783333333333" type="line" smooth="yes"/>
      <point x="915.7466666666667" y="1141.0216666666665"/>
      <point x="770.9816666666667" y="1300.1966666666667"/>
    </contour>
  </outline>
</glyph>
<glyph name="less" format="2">
  <advance width="874.7366666666666"/>
  <unicode hex="003C"/>
  <outline>
    <contour>
      <point x="260.8566666666666" y="635.455" type="line"/>
      <point x="794.8783333333333" y="733.5483333333333" type="line"/>
      <point x="794.8783333333333" y="973.165" type="line"/>
      <point x="71.38166666666666" y="811.6550000000001" type="line"/>
      <point x="71.38166666666666" y="441.8616666666667" type="line"/>
      <point x="794.8783333333333" y="280.35166666666663" type="line"/>
      <point x="794.8783333333333" y="519.9683333333332" type="line"/>
      <point x="260.8566666666666" y="618.0616666666667" type="line"/>
    </contour>
  </outline>
</glyph>
<glyph name="equal" format="2">
  <advance width="879.7199999999999"/>
  <unicode hex="003D"/>
  <outline>
    <contour>
      <point x="77.76333333333332" y="322.385" type="line"/>
      <point x="801.9566666666667" y="322.385" type="line"/>
      <point x="801.9566666666667" y="549.8216666666666" type="line"/>
      <point x="77.76333333333332" y="549.8216666666666" type="line"/>
    </contour>
    <contour>
      <point x="77.76333333333332" y="705.9366666666667" type="line"/>
      <point x="801.9566666666667" y="705.9366666666667" type="line"/>
      <point x="801.9566666666667" y="933.3733333333333" type="line"/>
      <point x="77.76333333333332" y="933.3733333333333" type="line"/>
    </contour>
  </outline>
</glyph>
<glyph name="greater" format="2">
  <advance width="874.7366666666666"/>
  <unicode hex="003E"/>
  <outline>
    <contour>
      <point x="613.88" y="635.455" type="line"/>
      <point x="613.88" y="618.0616666666667" type="line"/>
      <point x="79.85833333333333" y="519.9683333333332" type="line"/>
      <point x="79.85833333333333" y="280.35166666666663" type="line"/>
      <point x="803.355" y="441.8616666666667" type="line"/>
      <point x="803.355" y="811.6550000000001" type="line"/>
      <point x="79.85833333333333" y="973.165" type="line"/>
      <point x="79.85833333333333" y="733.5483333333333" type="line"/>
    </contour>
  </outline>
</glyph>
<glyph name="question" format="2">
  <advance width="749.62"/>
  <unicode hex="003F"/>
  <outline>
    <contour>
      <point x="182.4766666666667" y="395.68666666666667" type="line"/>
      <point x="306.4216666666667" y="429.68666666666667" type="line" smooth="yes"/>
      <point x="572.6033333333334" y="500.5966666666667"/>
      <point x="699.6716666666666" y="615.9116666666666"/>
      <point x="699.6716666666666" y="870.2383333333333" type="curve" smooth="yes"/>
      <point x="699.6716666666666" y="947.9033333333334" type="line" smooth="yes"/>
      <point x="699.6716666666666" y="1172.4883333333332"/>
      <point x="583.6033333333334" y="1301.7866666666666"/>
      <point x="338.13" y="1301.7866666666666" type="curve" smooth="yes"/>
      <point x="219.69166666666663" y="1301.7866666666666"/>
      <point x="118.37666666666668" y="1271.8149999999998"/>
      <point x="55.60666666666667" y="1241.2533333333333" type="curve"/>
      <point x="26.201666666666668" y="996.9399999999999" type="line"/>
      <point x="99.03333333333332" y="1029.0183333333334"/>
      <point x="175.65666666666667" y="1051.855"/>
      <point x="256.75166666666667" y="1051.855" type="curve" smooth="yes"/>
      <point x="367.78999999999996" y="1051.855"/>
      <point x="409.1716666666667" y="1003.4233333333333"/>
      <point x="409.1716666666667" y="912.1666666666666" type="curve" smooth="yes"/>
      <point x="409.1716666666667" y="863.4066666666666" type="line" smooth="yes"/>
      <point x="409.1716666666667" y="766.555"/>
      <point x="375.3016666666666" y="716.8199999999999"/>
      <point x="249.85333333333332" y="680.0116666666667" type="curve" smooth="yes"/>
      <point x="182.4766666666667" y="661.6016666666667" type="line"/>
    </contour>
    <contour>
      <point x="284.7366666666667" y="-26.118333333333332" type="curve" smooth="yes"/>
      <point x="386.73833333333334" y="-26.118333333333332"/>
      <point x="437.41333333333336" y="34.25333333333334"/>
      <point x="437.41333333333336" y="138.37833333333333" type="curve" smooth="yes"/>
      <point x="437.41333333333336" y="152.2266666666667" type="line" smooth="yes"/>
      <point x="437.41333333333336" y="255.00333333333333"/>
      <point x="386.73833333333334" y="316.42"/>
      <point x="284.7366666666667" y="316.42" type="curve" smooth="yes"/>
      <point x="180.38666666666666" y="316.42"/>
      <point x="132.40833333333333" y="255.00333333333333"/>
      <point x="132.40833333333333" y="152.2266666666667" type="curve" smooth="yes"/>
      <point x="132.40833333333333" y="138.37833333333333" type="line" smooth="yes"/>
      <point x="132.40833333333333" y="34.25333333333334"/>
      <point x="180.38666666666666" y="-26.118333333333332"/>
    </contour>
  </outline>
</glyph>
<glyph name="at" format="2">
  <advance width="1524.62"/>
  <unicode hex="0040"/>
  <outline>
    <contour>
      <point x="619.9150000000001" y="63.623333333333335" type="curve" smooth="yes"/>
      <point x="747.23" y="63.623333333333335"/>
      <point x="798.3083333333333" y="140.10166666666666"/>
      <point x="826.0833333333334" y="239.87166666666667" type="curve"/>
      <point x="876.91" y="239.87166666666667" type="line"/>
      <point x="843.735" y="355.95000000000005" type="line"/>
      <point x="826.6566666666666" y="304.46833333333336"/>
      <point x="792.6800000000001" y="273.62666666666667"/>
      <point x="748.26" y="273.62666666666667" type="curve" smooth="yes"/>
      <point x="701.0983333333334" y="273.62666666666667"/>
      <point x="679.6383333333333" y="304.13166666666666"/>
      <point x="679.6383333333333" y="362.5966666666667" type="curve" smooth="yes"/>
      <point x="679.6383333333333" y="388.5966666666667"/>
      <point x="682.1833333333333" y="419.92833333333334"/>
      <point x="700.2" y="584.1283333333333" type="curve" smooth="yes"/>
      <point x="709.9133333333334" y="672.9583333333334"/>
      <point x="734.6933333333333" y="722.3733333333333"/>
      <point x="795.4166666666667" y="722.3733333333333" type="curve" smooth="yes"/>
      <point x="847.41" y="722.3733333333333"/>
      <point x="871.0999999999999" y="687.0033333333333"/>
      <point x="871.0999999999999" y="625.37" type="curve" smooth="yes"/>
      <point x="871.0999999999999" y="616.7183333333332"/>
      <point x="870.7516666666667" y="606.6733333333333"/>
      <point x="869.7516666666667" y="596.4766666666667" type="curve"/>
      <point x="935.5166666666667" y="751.78" type="line"/>
      <point x="875.9033333333333" y="751.78" type="line"/>
      <point x="865.0383333333333" y="855.1850000000001"/>
      <point x="824.4433333333333" y="925.59"/>
      <point x="708.2633333333334" y="925.59" type="curve" smooth="yes"/>
      <point x="539.235" y="925.59"/>
      <point x="468.80833333333334" y="789.1116666666667"/>
      <point x="443.915" y="557.0550000000001" type="curve" smooth="yes"/>
      <point x="426.24666666666667" y="389.65833333333336"/>
      <point x="423.005" y="353.405"/>
      <point x="423.005" y="315.77" type="curve" smooth="yes"/>
      <point x="423.005" y="150.75833333333333"/>
      <point x="488.0666666666667" y="63.623333333333335"/>
    </contour>
    <contour>
      <point x="816.28" y="74.42666666666666" type="line"/>
      <point x="1051.34" y="93.43833333333333" type="line"/>
      <point x="1139.0983333333334" y="909.3483333333334" type="line"/>
      <point x="899.5383333333333" y="909.3483333333334" type="line"/>
      <point x="898.8866666666668" y="903.18" type="line"/>
      <point x="882.8416666666667" y="725.1966666666667" type="line"/>
      <point x="879.1899999999999" y="690.7299999999999" type="line"/>
      <point x="836.8866666666667" y="311.905" type="line"/>
      <point x="840.5383333333334" y="278.63500000000005" type="line"/>
    </contour>
    <contour>
      <point x="1000.0583333333334" y="268.7166666666667" type="curve"/>
      <point x="816.28" y="74.42666666666666" type="line"/>
      <point x="870.4433333333334" y="65.57833333333333"/>
      <point x="943.2533333333333" y="61.730000000000004"/>
      <point x="1001.4333333333334" y="63.92666666666668" type="curve" smooth="yes"/>
      <point x="1294.6883333333333" y="70.86500000000001"/>
      <point x="1421.3633333333332" y="174.62333333333333"/>
      <point x="1452.5600000000002" y="445.0683333333333" type="curve" smooth="yes"/>
      <point x="1466.3183333333334" y="566.2083333333334"/>
      <point x="1475.7733333333333" y="670.8033333333333"/>
      <point x="1479.2283333333332" y="733.4883333333333" type="curve" smooth="yes"/>
      <point x="1498.245" y="1125.3816666666667"/>
      <point x="1250.4016666666666" y="1336.2866666666666"/>
      <point x="828.125" y="1336.2866666666666" type="curve" smooth="yes"/>
      <point x="372.56166666666667" y="1336.2866666666666"/>
      <point x="139.79666666666668" y="1107.0116666666665"/>
      <point x="89.66166666666666" y="681.6416666666667" type="curve" smooth="yes"/>
      <point x="76.16166666666668" y="567.0466666666666"/>
      <point x="59.31333333333333" y="394.6766666666667"/>
      <point x="53.72333333333334" y="290.06333333333333" type="curve" smooth="yes"/>
      <point x="33.650000000000006" y="-121.29166666666667"/>
      <point x="281.7633333333333" y="-327.66833333333335"/>
      <point x="741.4449999999999" y="-327.66833333333335" type="curve" smooth="yes"/>
      <point x="968.26" y="-327.66833333333335"/>
      <point x="1126.1533333333332" y="-281.80333333333334"/>
      <point x="1236.8049999999998" y="-233.19166666666666" type="curve"/>
      <point x="1268.8616666666667" y="-33.18333333333334" type="line"/>
      <point x="1161.4233333333334" y="-83.94666666666667"/>
      <point x="981.6816666666667" y="-139.41833333333335"/>
      <point x="759.6700000000001" y="-139.41833333333335" type="curve" smooth="yes"/>
      <point x="410.53499999999997" y="-139.41833333333335"/>
      <point x="257.13666666666666" y="18.221666666666664"/>
      <point x="272.4683333333333" y="302.78833333333336" type="curve" smooth="yes"/>
      <point x="278.0583333333333" y="397.115"/>
      <point x="291.77166666666665" y="546.3216666666666"/>
      <point x="311.45166666666665" y="685.265" type="curve" smooth="yes"/>
      <point x="347.89000000000004" y="946.0933333333332"/>
      <point x="474.98999999999995" y="1148.9916666666666"/>
      <point x="816.7933333333333" y="1148.9916666666666" type="curve" smooth="yes"/>
      <point x="1137.4783333333332" y="1148.9916666666666"/>
      <point x="1275.6066666666666" y="982.0933333333332"/>
      <point x="1262.18" y="738.7133333333334" type="curve" smooth="yes"/>
      <point x="1258.2250000000001" y="677.9549999999999"/>
      <point x="1246.27" y="559.9166666666667"/>
      <point x="1233.1183333333333" y="455.37166666666667" type="curve" smooth="yes"/>
      <point x="1215.95" y="316.6933333333333"/>
      <point x="1166.265" y="261.9916666666667"/>
      <point x="1071.4066666666668" y="261.9916666666667" type="curve" smooth="yes"/>
      <point x="1040.7549999999999" y="261.9916666666667"/>
      <point x="1028.6483333333333" y="263.18833333333333"/>
    </contour>
  </outline>
</glyph>
<glyph name="A" format="2">
  <advance width="1037.4533333333334"/>
  <unicode hex="0041"/>
  <anchor x="519.2266666666667" y="0.0" name="bottom"/>
  <anchor x="1046.3133333333333" y="0.0" name="ogonek"/>
  <anchor x="519.2266666666667" y="1278.0" name="top"/>
  <outline>
    <contour>
      <point x="23.628333333333334" y="0.0" type="line"/>
      <point x="316.08333333333337" y="0.0" type="line"/>
      <point x="507.9683333333333" y="1076.8333333333333" type="line"/>
      <point x="530.4233333333333" y="1076.8333333333333" type="line"/>
      <point x="721.37" y="0.0" type="line"/>
      <point x="1013.825" y="0.0" type="line"/>
      <point x="743.86" y="1278.0" type="line"/>
      <point x="294.5316666666667" y="1278.0" type="line"/>
    </contour>
    <contour>
      <point x="284.5916666666667" y="301.2333333333333" type="line"/>
      <point x="750.165" y="301.2333333333333" type="line"/>
      <point x="750.165" y="528.7033333333333" type="line"/>
      <point x="284.5916666666667" y="528.7033333333333" type="line"/>
    </contour>
  </outline>
</glyph>
<glyph name="B" format="2">
  <advance width="1027.0033333333333"/>
  <unicode hex="0042"/>
  <anchor x="514.5633333333333" y="0.0" name="bottom"/>
  <anchor x="514.5633333333333" y="1278.0" name="top"/>
  <outline>
    <contour>
      <point x="308.4916666666667" y="0.0" type="line"/>
      <point x="577.5916666666667" y="0.0" type="line" smooth="yes"/>
      <point x="856.5483333333333" y="0.0"/>
      <point x="975.5716666666667" y="117.75833333333333"/>
      <point x="975.5716666666667" y="356.355" type="curve" smooth="yes"/>
      <point x="975.5716666666667" y="395.18" type="line" smooth="yes"/>
      <point x="975.5716666666667" y="568.3433333333334"/>
      <point x="909.06" y="667.265"/>
      <point x="728.48" y="692.7816666666666" type="curve"/>
      <point x="728.48" y="702.63" type="line"/>
      <point x="889.9699999999999" y="716.0116666666667"/>
      <point x="957.375" y="800.0116666666667"/>
      <point x="957.375" y="947.9499999999999" type="curve" smooth="yes"/>
      <point x="957.375" y="972.59" type="line" smooth="yes"/>
      <point x="957.375" y="1171.4833333333333"/>
      <point x="839.5033333333333" y="1278.0"/>
      <point x="558.76" y="1278.0" type="curve" smooth="yes"/>
      <point x="299.5083333333333" y="1278.0" type="line"/>
      <point x="299.5083333333333" y="1044.2600000000002" type="line"/>
      <point x="537.1416666666667" y="1044.2600000000002" type="line" smooth="yes"/>
      <point x="634.8983333333333" y="1044.2600000000002"/>
      <point x="670.4933333333333" y="1000.4633333333334"/>
      <point x="670.4933333333333" y="912.3916666666667" type="curve" smooth="yes"/>
      <point x="670.4933333333333" y="891.825" type="line" smooth="yes"/>
      <point x="670.4933333333333" y="804.5116666666667"/>
      <point x="634.4433333333333" y="759.215"/>
      <point x="536.2316666666667" y="759.215" type="curve" smooth="yes"/>
      <point x="300.87333333333333" y="759.215" type="line"/>
      <point x="300.87333333333333" y="540.6833333333334" type="line"/>
      <point x="541.26" y="540.6833333333334" type="line" smooth="yes"/>
      <point x="647.2016666666666" y="540.6833333333334"/>
      <point x="684.4033333333334" y="495.9316666666667"/>
      <point x="684.4033333333334" y="405.95" type="curve" smooth="yes"/>
      <point x="684.4033333333334" y="372.10833333333335" type="line" smooth="yes"/>
      <point x="684.4033333333334" y="282.43"/>
      <point x="647.2016666666666" y="237.52666666666667"/>
      <point x="544.9" y="237.52666666666667" type="curve" smooth="yes"/>
      <point x="308.4916666666667" y="237.52666666666667" type="line"/>
    </contour>
    <contour>
      <point x="98.40333333333334" y="0.0" type="line"/>
      <point x="379.9533333333333" y="0.0" type="line"/>
      <point x="379.9533333333333" y="1278.0" type="line"/>
      <point x="98.40333333333334" y="1278.0" type="line"/>
    </contour>
  </outline>
</glyph>
<glyph name="C" format="2">
  <advance width="847.0749999999999"/>
  <unicode hex="0043"/>
  <anchor x="466.87166666666667" y="0.0" name="bottom"/>
  <anchor x="466.87166666666667" y="1278.0" name="top"/>
  <outline>
    <contour>
      <point x="508.24333333333334" y="-24.438333333333333" type="curve" smooth="yes"/>
      <point x="626.985" y="-24.438333333333333"/>
      <point x="721.12" y="8.971666666666668"/>
      <point x="778.255" y="45.16833333333334" type="curve"/>
      <point x="798.1766666666666" y="307.285" type="line"/>
      <point x="742.5083333333333" y="272.34166666666664"/>
      <point x="675.7166666666666" y="244.26333333333332"/>
      <point x="586.515" y="244.26333333333332" type="curve" smooth="yes"/>
      <point x="431.33" y="244.26333333333332"/>
      <point x="368.825" y="331.83"/>
      <point x="368.825" y="481.31166666666667" type="curve" smooth="yes"/>
      <point x="368.825" y="800.1883333333334" type="line" smooth="yes"/>
      <point x="368.825" y="950.6700000000001"/>
      <point x="429.83" y="1039.085"/>
      <point x="576.38" y="1039.085" type="curve" smooth="yes"/>
      <point x="666.5816666666666" y="1039.085"/>
      <point x="732.9633333333333" y="1010.5516666666666"/>
      <point x="789.3283333333333" y="977.26" type="curve"/>
      <point x="769.755" y="1234.27" type="line"/>
      <point x="712.12" y="1270.9216666666669"/>
      <point x="623.53" y="1302.4383333333333"/>
      <point x="505.5466666666666" y="1302.4383333333333" type="curve" smooth="yes"/>
      <point x="213.34833333333333" y="1302.4383333333333"/>
      <point x="69.53833333333333" y="1132.2016666666666"/>
      <point x="69.53833333333333" y="817.245" type="curve" smooth="yes"/>
      <point x="69.53833333333333" y="466.54166666666663" type="line" smooth="yes"/>
      <point x="69.53833333333333" y="147.14666666666668"/>
      <point x="208.41" y="-24.438333333333333"/>
    </contour>
  </outline>
</glyph>
<glyph name="D" format="2">
  <advance width="1056.4416666666666"/>
  <unicode hex="0044"/>
  <anchor x="512.4733333333334" y="0.0" name="bottom"/>
  <anchor x="530.0633333333333" y="639.0" name="center"/>
  <anchor x="512.4733333333334" y="1278.0" name="top"/>
  <outline>
    <contour>
      <point x="298.09833333333336" y="0.0" type="line"/>
      <point x="526.9516666666667" y="0.0" type="line" smooth="yes"/>
      <point x="841.8466666666667" y="0.0"/>
      <point x="988.2066666666666" y="158.16333333333333"/>
      <point x="988.2066666666666" y="448.535" type="curve" smooth="yes"/>
      <point x="988.2066666666666" y="830.8133333333334" type="line" smooth="yes"/>
      <point x="988.2066666666666" y="1119.9883333333332"/>
      <point x="839.3016666666666" y="1278.0"/>
      <point x="526.9516666666667" y="1278.0" type="curve" smooth="yes"/>
      <point x="298.4016666666667" y="1278.0" type="line"/>
      <point x="298.4016666666667" y="1030.9166666666667" type="line"/>
      <point x="514.0749999999999" y="1030.9166666666667" type="line" smooth="yes"/>
      <point x="636.8483333333334" y="1030.9166666666667"/>
      <point x="694.4483333333334" y="964.1033333333334"/>
      <point x="694.4483333333334" y="830.8583333333332" type="curve" smooth="yes"/>
      <point x="694.4483333333334" y="449.535" type="line" smooth="yes"/>
      <point x="694.4483333333334" y="316.59333333333336"/>
      <point x="636.8483333333334" y="249.27999999999997"/>
      <point x="514.0749999999999" y="249.27999999999997" type="curve" smooth="yes"/>
      <point x="298.09833333333336" y="249.27999999999997" type="line"/>
    </contour>
    <contour>
      <point x="98.40333333333334" y="0.0" type="line"/>
      <point x="387.7683333333334" y="0.0" type="line"/>
      <point x="387.7683333333334" y="1278.0" type="line"/>
      <point x="98.40333333333334" y="1278.0" type="line"/>
    </contour>
  </outline>
</glyph>
<glyph name="E" format="2">
  <advance width="897.205"/>
  <unicode hex="0045"/>
  <anchor x="464.5683333333333" y="0.0" name="bottom"/>
  <anchor x="840.3" y="0.0" name="ogonek"/>
  <anchor x="464.5683333333333" y="1278.0" name="top"/>
  <anchor x="20.0" y="1278.0" name="topleft"/>
  <outline>
    <contour>
      <point x="98.40333333333334" y="0.0" type="line"/>
      <point x="385.42" y="0.0" type="line"/>
      <point x="385.42" y="1278.0" type="line"/>
      <point x="98.40333333333334" y="1278.0" type="line"/>
    </contour>
    <contour>
      <point x="233.30499999999998" y="0.0" type="line"/>
      <point x="829.5649999999999" y="0.0" type="line"/>
      <point x="829.5649999999999" y="251.82499999999996" type="line"/>
      <point x="233.30499999999998" y="251.82499999999996" type="line"/>
    </contour>
    <contour>
      <point x="278.58666666666664" y="527.8066666666666" type="line"/>
      <point x="812.4749999999999" y="527.8066666666666" type="line"/>
      <point x="812.4749999999999" y="770.4683333333334" type="line"/>
      <point x="278.58666666666664" y="770.4683333333334" type="line"/>
    </contour>
    <contour>
      <point x="232.85000000000002" y="1028.765" type="line"/>
      <point x="825.3683333333333" y="1028.765" type="line"/>
      <point x="825.3683333333333" y="1278.0" type="line"/>
      <point x="232.85000000000002" y="1278.0" type="line"/>
    </contour>
  </outline>
</glyph>
<glyph name="F" format="2">
  <advance width="853.48"/>
  <unicode hex="0046"/>
  <anchor x="427.33833333333337" y="0.0" name="bottom"/>
  <anchor x="427.33833333333337" y="1278.0" name="top"/>
  <outline>
    <contour>
      <point x="98.40333333333334" y="0.0" type="line"/>
      <point x="391.35833333333335" y="0.0" type="line"/>
      <point x="391.35833333333335" y="1278.0" type="line"/>
      <point x="98.40333333333334" y="1278.0" type="line"/>
    </contour>
    <contour>
      <point x="278.58666666666664" y="456.66499999999996" type="line"/>
      <point x="784.5533333333333" y="456.66499999999996" type="line"/>
      <point x="784.5533333333333" y="712.2766666666666" type="line"/>
      <point x="278.58666666666664" y="712.2766666666666" type="line"/>
    </contour>
    <contour>
      <point x="232.85000000000002" y="1022.04" type="line"/>
      <point x="797.75" y="1022.04" type="line"/>
      <point x="797.75" y="1278.0" type="line"/>
      <point x="232.85000000000002" y="1278.0" type="line"/>
    </contour>
  </outline>
</glyph>
<glyph name="G" format="2">
  <advance width="1040.7116666666668"/>
  <unicode hex="0047"/>
  <anchor x="521.2266666666667" y="0.0" name="bottom"/>
  <anchor x="521.2266666666667" y="1278.0" name="top"/>
  <outline>
    <contour>
      <point x="417.55000000000007" y="-24.59" type="curve" smooth="yes"/>
      <point x="598.0899999999999" y="-24.59"/>
      <point x="657.32" y="71.27000000000001"/>
      <point x="683.1683333333334" y="193.83833333333334" type="curve"/>
      <point x="955.3583333333332" y="193.68666666666667" type="line"/>
      <point x="955.3583333333332" y="752.1866666666667" type="line"/>
      <point x="541.305" y="752.1866666666667" type="line"/>
      <point x="541.305" y="524.0033333333333" type="line"/>
      <point x="729.3149999999999" y="524.7" type="line"/>
      <point x="687.0166666666667" y="623.1" type="line"/>
      <point x="687.0166666666667" y="333.7266666666667" type="line"/>
      <point x="664.91" y="276.54833333333335"/>
      <point x="618.7366666666667" y="231.27999999999997"/>
      <point x="534.8000000000001" y="231.27999999999997" type="curve" smooth="yes"/>
      <point x="417.86333333333334" y="231.27999999999997"/>
      <point x="365.3416666666667" y="302.22833333333335"/>
      <point x="365.3416666666667" y="433.895" type="curve" smooth="yes"/>
      <point x="365.3416666666667" y="774.7216666666667" type="line" smooth="yes"/>
      <point x="365.3416666666667" y="958.8783333333333"/>
      <point x="445.57166666666666" y="1045.1133333333335"/>
      <point x="635.4816666666667" y="1045.1133333333335" type="curve" smooth="yes"/>
      <point x="758.9816666666667" y="1045.1133333333335"/>
      <point x="854.8299999999999" y="1008.0966666666667"/>
      <point x="929.2233333333332" y="968.9116666666666" type="curve"/>
      <point x="906.2566666666667" y="1224.0283333333334" type="line"/>
      <point x="833.29" y="1265.3766666666668"/>
      <point x="714.5983333333334" y="1302.4383333333333"/>
      <point x="569.3733333333333" y="1302.4383333333333" type="curve" smooth="yes"/>
      <point x="242.31500000000003" y="1302.4383333333333"/>
      <point x="69.53833333333333" y="1129.4433333333334"/>
      <point x="69.53833333333333" y="791.2616666666667" type="curve" smooth="yes"/>
      <point x="69.53833333333333" y="440.92333333333335" type="line" smooth="yes"/>
      <point x="69.53833333333333" y="147.78166666666667"/>
      <point x="176.69" y="-24.59"/>
    </contour>
    <contour>
      <point x="695.5166666666667" y="237.24166666666667" type="line"/>
      <point x="686.4716666666667" y="0.0" type="line"/>
      <point x="955.3583333333332" y="0.0" type="line"/>
      <point x="955.3583333333332" y="237.24166666666667" type="line"/>
    </contour>
  </outline>
</glyph>
<glyph name="H" format="2">
  <advance width="1104.2733333333333"/>
  <unicode hex="0048"/>
  <anchor x="552.485" y="0.0" name="bottom"/>
  <anchor x="552.485" y="639.0" name="center"/>
  <anchor x="552.485" y="1278.0" name="top"/>
  <anchor x="20.0" y="1278.0" name="topleft"/>
  <outline>
    <contour>
      <point x="394.09999999999997" y="0.0" type="line"/>
      <point x="394.09999999999997" y="1278.0" type="line"/>
      <point x="98.40333333333334" y="1278.0" type="line"/>
      <point x="98.40333333333334" y="0.0" type="line"/>
    </contour>
    <contour>
      <point x="1005.87" y="0.0" type="line"/>
      <point x="1005.87" y="1278.0" type="line"/>
      <point x="710.1733333333333" y="1278.0" type="line"/>
      <point x="710.1733333333333" y="0.0" type="line"/>
    </contour>
    <contour>
      <point x="279.39" y="777.71" type="line"/>
      <point x="279.39" y="527.385" type="line"/>
      <point x="812.0683333333334" y="527.385" type="line"/>
      <point x="812.0683333333334" y="777.71" type="line"/>
    </contour>
  </outline>
</glyph>
<glyph name="I" format="2">
  <advance width="493.10999999999996"/>
  <unicode hex="0049"/>
  <anchor x="246.6533333333333" y="0.0" name="bottom"/>
  <anchor x="420.6666666666667" y="0.0" name="ogonek"/>
  <anchor x="247.00166666666664" y="1278.0" name="top"/>
  <anchor x="20.0" y="1278.0" name="topleft"/>
  <outline>
    <contour>
      <point x="394.4033333333333" y="0.0" type="line"/>
      <point x="394.4033333333333" y="1278.0" type="line"/>
      <point x="98.70666666666666" y="1278.0" type="line"/>
      <point x="98.70666666666666" y="0.0" type="line"/>
    </contour>
  </outline>
</glyph>
<glyph name="J" format="2">
  <advance width="691.8666666666667"/>
  <unicode hex="004A"/>
  <anchor x="348.32666666666665" y="0.0" name="bottom"/>
  <anchor x="451.31999999999994" y="1278.0" name="top"/>
  <outline>
    <contour>
      <point x="240.19666666666666" y="-18.39333333333333" type="curve" smooth="yes"/>
      <point x="502.7266666666667" y="-18.39333333333333"/>
      <point x="600.615" y="119.87166666666666"/>
      <point x="600.615" y="379.4916666666667" type="curve" smooth="yes"/>
      <point x="600.615" y="1278.0" type="line"/>
      <point x="305.07" y="1278.0" type="line"/>
      <point x="305.07" y="390.36833333333334" type="line" smooth="yes"/>
      <point x="305.07" y="289.9816666666666"/>
      <point x="275.12666666666667" y="237.08333333333331"/>
      <point x="166.99833333333333" y="237.08333333333331" type="curve" smooth="yes"/>
      <point x="120.50999999999999" y="237.08333333333331"/>
      <point x="77.62833333333333" y="246.84166666666667"/>
      <point x="32.85333333333334" y="263.465" type="curve"/>
      <point x="52.275" y="14.303333333333335" type="line"/>
      <point x="104.51666666666667" y="-6.696666666666667"/>
      <point x="172.45499999999998" y="-18.39333333333333"/>
    </contour>
  </outline>
</glyph>
<glyph name="K" format="2">
  <advance width="1031.33"/>
  <unicode hex="004B"/>
  <anchor x="533.21" y="0.0" name="bottom"/>
  <anchor x="533.21" y="1278.0" name="top"/>
  <outline>
    <contour>
      <point x="703.8249999999999" y="0.0" type="line"/>
      <point x="1027.3816666666667" y="0.0" type="line"/>
      <point x="674.7766666666666" y="708.6133333333332" type="line"/>
      <point x="675.2316666666667" y="642.0" type="line"/>
      <point x="1014.4883333333333" y="1278.0" type="line"/>
      <point x="696.825" y="1278.0" type="line"/>
      <point x="428.26" y="743.8433333333334" type="line"/>
      <point x="366.1333333333333" y="743.8433333333334" type="line"/>
      <point x="366.1333333333333" y="563.6566666666668" type="line"/>
      <point x="428.26" y="563.6566666666668" type="line"/>
    </contour>
    <contour>
      <point x="98.40333333333334" y="0.0" type="line"/>
      <point x="388.85833333333335" y="0.0" type="line"/>
      <point x="388.85833333333335" y="1278.0" type="line"/>
      <point x="98.40333333333334" y="1278.0" type="line"/>
    </contour>
  </outline>
</glyph>
<glyph name="L" format="2">
  <advance width="832.7383333333333"/>
  <unicode hex="004C"/>
  <anchor x="432.5116666666667" y="0.0" name="bottom"/>
  <anchor x="348.5783333333333" y="642.185" name="center"/>
  <anchor x="246.50166666666664" y="1278.0" name="top"/>
  <anchor x="552.45" y="1278.0" name="topright"/>
  <outline>
    <contour>
      <point x="393.9483333333333" y="0.0" type="line"/>
      <point x="393.9483333333333" y="1278.0" type="line"/>
      <point x="98.40333333333334" y="1278.0" type="line"/>
      <point x="98.40333333333334" y="0.0" type="line"/>
    </contour>
    <contour>
      <point x="276.91833333333335" y="255.21833333333336" type="line"/>
      <point x="276.91833333333335" y="0.0" type="line"/>
      <point x="789.1316666666667" y="0.0" type="line"/>
      <point x="789.1316666666667" y="255.21833333333336" type="line"/>
    </contour>
  </outline>
</glyph>
<glyph name="M" format="2">
  <advance width="1382.18"/>
  <unicode hex="004D"/>
  <anchor x="691.4916666666667" y="0.0" name="bottom"/>
  <anchor x="691.4916666666667" y="1278.0" name="top"/>
  <outline>
    <contour>
      <point x="90.235" y="0.0" type="line"/>
      <point x="368.57166666666666" y="0.0" type="line"/>
      <point x="372.74" y="372.7816666666667" type="line"/>
      <point x="373.25666666666666" y="929.785" type="line"/>
      <point x="386.3016666666667" y="929.785" type="line"/>
      <point x="564.5350000000001" y="147.635" type="line"/>
      <point x="817.645" y="147.635" type="line"/>
      <point x="995.53" y="929.785" type="line"/>
      <point x="1008.2266666666668" y="929.785" type="line"/>
      <point x="1009.0916666666667" y="373.2816666666667" type="line"/>
      <point x="1013.6083333333333" y="0.0" type="line"/>
      <point x="1291.945" y="0.0" type="line"/>
      <point x="1267.58" y="1278.0" type="line"/>
      <point x="864.495" y="1278.0" type="line"/>
      <point x="697.5366666666666" y="518.585" type="line"/>
      <point x="686.6883333333334" y="518.585" type="line"/>
      <point x="518.0333333333334" y="1278.0" type="line"/>
      <point x="114.60000000000001" y="1278.0" type="line"/>
    </contour>
  </outline>
</glyph>
<glyph name="N" format="2">
  <advance width="1126.33"/>
  <unicode hex="004E"/>
  <anchor x="569.9516666666667" y="0.0" name="bottom"/>
  <anchor x="569.9516666666667" y="1278.0" name="top"/>
  <outline>
    <contour>
      <point x="499.5783333333334" y="1279.1966666666667" type="line"/>
      <point x="98.40333333333334" y="1279.1966666666667" type="line"/>
      <point x="98.40333333333334" y="0.0" type="line"/>
      <point x="372.71166666666664" y="0.0" type="line"/>
      <point x="372.71166666666664" y="373.2133333333333" type="line"/>
      <point x="356.335" y="967.14" type="line"/>
      <point x="368.03166666666664" y="967.14" type="line"/>
      <point x="634.4316666666666" y="0.0" type="line"/>
      <point x="1027.9266666666667" y="0.0" type="line"/>
      <point x="1027.9266666666667" y="1279.1966666666667" type="line"/>
      <point x="754.8149999999999" y="1279.1966666666667" type="line"/>
      <point x="754.8149999999999" y="910.585" type="line"/>
      <point x="771.04" y="329.37166666666667" type="line"/>
      <point x="759.3433333333334" y="329.37166666666667" type="line"/>
    </contour>
  </outline>
</glyph>
<glyph name="O" format="2">
  <advance width="1072.2116666666666"/>
  <unicode hex="004F"/>
  <anchor x="536.03" y="0.0" name="bottom"/>
  <anchor x="536.03" y="639.0" name="center"/>
  <anchor x="799.9983333333332" y="3.2583333333333333" name="ogonek"/>
  <anchor x="536.03" y="1278.0" name="top"/>
  <anchor x="12.651666666666667" y="1278.0" name="topleft"/>
  <anchor x="1019.8716666666666" y="1278.0" name="topright"/>
  <outline>
    <contour>
      <point x="536.03" y="-25.98333333333333" type="curve" smooth="yes"/>
      <point x="847.695" y="-25.98333333333333"/>
      <point x="1002.6733333333332" y="141.11833333333334"/>
      <point x="1002.6733333333332" y="457.78833333333336" type="curve" smooth="yes"/>
      <point x="1002.6733333333332" y="814.6383333333333" type="line" smooth="yes"/>
      <point x="1002.6733333333332" y="1131.005"/>
      <point x="846.65" y="1302.59"/>
      <point x="536.03" y="1302.59" type="curve" smooth="yes"/>
      <point x="225.25833333333333" y="1302.59"/>
      <point x="69.53833333333333" y="1131.005"/>
      <point x="69.53833333333333" y="814.6383333333333" type="curve" smooth="yes"/>
      <point x="69.53833333333333" y="457.78833333333336" type="line" smooth="yes"/>
      <point x="69.53833333333333" y="141.11833333333334"/>
      <point x="224.21333333333334" y="-25.98333333333333"/>
    </contour>
    <contour>
      <point x="536.03" y="219.35833333333332" type="curve" smooth="yes"/>
      <point x="419.3183333333333" y="219.35833333333332"/>
      <point x="368.4766666666667" y="294.1716666666667"/>
      <point x="368.4766666666667" y="436.77666666666664" type="curve" smooth="yes"/>
      <point x="368.4766666666667" y="836.4983333333333" type="line" smooth="yes"/>
      <point x="368.4766666666667" y="982.5416666666666"/>
      <point x="419.3183333333333" y="1057.945"/>
      <point x="536.03" y="1057.945" type="curve" smooth="yes"/>
      <point x="652.2416666666667" y="1057.945"/>
      <point x="703.5833333333334" y="982.5416666666666"/>
      <point x="703.5833333333334" y="836.4983333333333" type="curve" smooth="yes"/>
      <point x="703.5833333333334" y="436.77666666666664" type="line" smooth="yes"/>
      <point x="703.5833333333334" y="294.1716666666667"/>
      <point x="652.2416666666667" y="219.35833333333332"/>
    </contour>
  </outline>
</glyph>
<glyph name="P" format="2">
  <advance width="1003.8633333333332"/>
  <unicode hex="0050"/>
  <anchor x="501.87833333333333" y="0.0" name="bottom"/>
  <anchor x="501.87833333333333" y="1278.0" name="top"/>
  <outline>
    <contour>
      <point x="286.96333333333337" y="362.3233333333333" type="line"/>
      <point x="536.6816666666666" y="362.3233333333333" type="line" smooth="yes"/>
      <point x="825.2566666666667" y="362.3233333333333"/>
      <point x="953.235" y="496.2"/>
      <point x="953.235" y="759.3983333333333" type="curve" smooth="yes"/>
      <point x="953.235" y="880.6833333333334" type="line" smooth="yes"/>
      <point x="953.235" y="1138.14"/>
      <point x="825.4083333333333" y="1278.0"/>
      <point x="534.5916666666667" y="1278.0" type="curve" smooth="yes"/>
      <point x="287.26666666666665" y="1278.0" type="line"/>
      <point x="287.26666666666665" y="1035.7483333333334" type="line"/>
      <point x="517.945" y="1035.7483333333334" type="line" smooth="yes"/>
      <point x="622.955" y="1035.7483333333334"/>
      <point x="663.0216666666668" y="985.1483333333333"/>
      <point x="663.0216666666668" y="874.0933333333334" type="curve" smooth="yes"/>
      <point x="663.0216666666668" y="766.1850000000001" type="line" smooth="yes"/>
      <point x="663.0216666666668" y="655.4333333333333"/>
      <point x="622.955" y="605.0749999999999"/>
      <point x="517.49" y="605.0749999999999" type="curve" smooth="yes"/>
      <point x="286.96333333333337" y="605.0749999999999" type="line"/>
    </contour>
    <contour>
      <point x="98.40333333333334" y="0.0" type="line"/>
      <point x="387.0716666666667" y="0.0" type="line"/>
      <point x="387.0716666666667" y="398.47" type="line"/>
      <point x="385.2233333333333" y="536.7816666666666" type="line"/>
      <point x="385.2233333333333" y="1278.0" type="line"/>
      <point x="98.40333333333334" y="1278.0" type="line"/>
    </contour>
  </outline>
</glyph>
<glyph name="Q" format="2">
  <advance width="1074.7116666666666"/>
  <unicode hex="0051"/>
  <anchor x="538.03" y="0.0" name="bottom"/>
  <anchor x="538.03" y="1278.0" name="top"/>
  <outline>
    <contour>
      <point x="1066.38" y="-46.79833333333333" type="line"/>
      <point x="1066.38" y="203.43666666666667" type="line"/>
      <point x="766.8299999999999" y="193.195" type="line"/>
      <point x="766.8299999999999" y="204.58833333333334" type="line"/>
      <point x="922.505" y="228.77333333333334"/>
      <point x="1002.325" y="333.33"/>
      <point x="1002.325" y="531.88" type="curve" smooth="yes"/>
      <point x="1002.325" y="814.1666666666666" type="line" smooth="yes"/>
      <point x="1002.325" y="1131.2016666666668"/>
      <point x="845.9983333333333" y="1302.59"/>
      <point x="536.03" y="1302.59" type="curve" smooth="yes"/>
      <point x="225.56166666666664" y="1302.59"/>
      <point x="69.53833333333333" y="1131.2016666666668"/>
      <point x="69.53833333333333" y="813.47" type="curve" smooth="yes"/>
      <point x="69.53833333333333" y="465.83333333333337" type="line" smooth="yes"/>
      <point x="69.53833333333333" y="144.92166666666668"/>
      <point x="218.6233333333333" y="-10.758333333333333"/>
      <point x="599.0416666666666" y="-27.028333333333336" type="curve" smooth="yes"/>
    </contour>
    <contour>
      <point x="558.0016666666667" y="220.25166666666667" type="line" smooth="yes"/>
      <point x="435.06" y="223.01000000000002"/>
      <point x="368.4766666666667" y="300.2"/>
      <point x="368.4766666666667" y="441.42833333333334" type="curve" smooth="yes"/>
      <point x="368.4766666666667" y="833.9816666666667" type="line" smooth="yes"/>
      <point x="368.4766666666667" y="981.9966666666667"/>
      <point x="419.62166666666667" y="1057.3999999999999"/>
      <point x="536.03" y="1057.3999999999999" type="curve" smooth="yes"/>
      <point x="651.9383333333334" y="1057.3999999999999"/>
      <point x="703.5833333333334" y="981.9966666666667"/>
      <point x="703.5833333333334" y="833.9816666666667" type="curve" smooth="yes"/>
      <point x="703.5833333333334" y="454.50166666666667" type="line" smooth="yes"/>
      <point x="703.5833333333334" y="314.62166666666667"/>
      <point x="655.905" y="245.85833333333335"/>
      <point x="579.6366666666667" y="219.75166666666667" type="curve"/>
    </contour>
  </outline>
</glyph>
<glyph name="R" format="2">
  <advance width="1024.6833333333334"/>
  <unicode hex="0052"/>
  <anchor x="522.6983333333334" y="0.0" name="bottom"/>
  <anchor x="513.3950000000001" y="1278.0" name="top"/>
  <outline>
    <contour>
      <point x="679.4483333333334" y="0.0" type="line"/>
      <point x="975.7066666666666" y="0.0" type="line"/>
      <point x="944.2799999999999" y="295.2133333333333" type="line" smooth="yes"/>
      <point x="922.37" y="494.815"/>
      <point x="875.645" y="601.6916666666667"/>
      <point x="652.4466666666667" y="618.0566666666667" type="curve"/>
      <point x="714.8733333333332" y="579.4716666666667" type="line"/>
      <point x="714.8733333333332" y="620.2816666666668" type="line"/>
      <point x="879.4583333333333" y="631.5450000000001"/>
      <point x="958.2066666666666" y="724.1683333333333"/>
      <point x="958.2066666666666" y="890.2366666666667" type="curve" smooth="yes"/>
      <point x="958.2066666666666" y="934.3416666666667" type="line" smooth="yes"/>
      <point x="958.2066666666666" y="1156.0166666666667"/>
      <point x="834.6383333333333" y="1278.0"/>
      <point x="552.6983333333334" y="1278.0" type="curve" smooth="yes"/>
      <point x="301.795" y="1278.0" type="line"/>
      <point x="301.795" y="1036.7933333333333" type="line"/>
      <point x="520.7033333333333" y="1036.7933333333333" type="line" smooth="yes"/>
      <point x="627.4433333333333" y="1036.7933333333333"/>
      <point x="666.4933333333333" y="986.6483333333333"/>
      <point x="666.4933333333333" y="877.5033333333333" type="curve" smooth="yes"/>
      <point x="666.4933333333333" y="825.5383333333334" type="line" smooth="yes"/>
      <point x="666.4933333333333" y="717.91"/>
      <point x="625.55" y="667.6583333333333"/>
      <point x="520.5516666666666" y="667.5066666666667" type="curve" smooth="yes"/>
      <point x="304.5083333333333" y="666.8549999999999" type="line"/>
      <point x="304.5083333333333" y="435.935" type="line"/>
      <point x="509.3666666666666" y="435.435" type="line" smooth="yes"/>
      <point x="614.23" y="435.2833333333333"/>
      <point x="650.5333333333333" y="380.89166666666665"/>
      <point x="659.1566666666668" y="273.8533333333333" type="curve" smooth="yes"/>
    </contour>
    <contour>
      <point x="98.40333333333334" y="0.0" type="line"/>
      <point x="386.02666666666664" y="0.0" type="line"/>
      <point x="386.02666666666664" y="475.93" type="line"/>
      <point x="384.33" y="590.8366666666666" type="line"/>
      <point x="384.33" y="1278.0" type="line"/>
      <point x="98.40333333333334" y="1278.0" type="line"/>
    </contour>
  </outline>
</glyph>
<glyph name="S" format="2">
  <advance width="884.6150000000001"/>
  <unicode hex="0053"/>
  <anchor x="431.7316666666667" y="0.0" name="bottom"/>
  <anchor x="431.7316666666667" y="1278.0" name="top"/>
  <outline>
    <contour>
      <point x="407.31" y="-24.28666666666667" type="curve" smooth="yes"/>
      <point x="694.705" y="-24.28666666666667"/>
      <point x="833.5316666666666" y="104.52833333333332"/>
      <point x="833.5316666666666" y="346.58" type="curve" smooth="yes"/>
      <point x="833.5316666666666" y="370.63" type="line" smooth="yes"/>
      <point x="833.5316666666666" y="574.5066666666667"/>
      <point x="739.5366666666666" y="650.8100000000001"/>
      <point x="542.7616666666667" y="744.3216666666666" type="curve" smooth="yes"/>
      <point x="392.20666666666665" y="816.9283333333334"/>
      <point x="345.37" y="856.9333333333334"/>
      <point x="345.37" y="932.7066666666667" type="curve" smooth="yes"/>
      <point x="345.37" y="939.4366666666666" type="line" smooth="yes"/>
      <point x="345.37" y="1009.255"/>
      <point x="386.9816666666667" y="1047.7033333333334"/>
      <point x="504.1433333333334" y="1047.7033333333334" type="curve" smooth="yes"/>
      <point x="617.0083333333333" y="1047.7033333333334"/>
      <point x="711.6433333333333" y="1013.7933333333334"/>
      <point x="786.7783333333333" y="972.67" type="curve"/>
      <point x="765.1600000000001" y="1227.1966666666665" type="line"/>
      <point x="691.8" y="1267.7866666666666"/>
      <point x="586.6816666666666" y="1302.2866666666666"/>
      <point x="442.01833333333326" y="1302.2866666666666" type="curve" smooth="yes"/>
      <point x="184.635" y="1302.2866666666666"/>
      <point x="47.431666666666665" y="1177.1233333333334"/>
      <point x="47.431666666666665" y="957.6" type="curve" smooth="yes"/>
      <point x="47.431666666666665" y="937.6899999999999" type="line" smooth="yes"/>
      <point x="47.431666666666665" y="739.2233333333334"/>
      <point x="152.7133333333333" y="645.2850000000001"/>
      <point x="351.7016666666667" y="550.2733333333333" type="curve" smooth="yes"/>
      <point x="482.8183333333333" y="488.06"/>
      <point x="534.8966666666666" y="454.4483333333333"/>
      <point x="534.8966666666666" y="371.585" type="curve" smooth="yes"/>
      <point x="534.8966666666666" y="355.17" type="line" smooth="yes"/>
      <point x="534.8966666666666" y="276.3966666666667"/>
      <point x="485.33" y="235.79666666666668"/>
      <point x="363.12333333333333" y="235.79666666666668" type="curve" smooth="yes"/>
      <point x="242.48833333333334" y="235.79666666666668"/>
      <point x="133.15666666666667" y="276.4483333333333"/>
      <point x="54.30833333333334" y="316.6333333333333" type="curve"/>
      <point x="76.42666666666666" y="46.92666666666666" type="line"/>
      <point x="150.37666666666667" y="10.775"/>
      <point x="265.3433333333333" y="-24.28666666666667"/>
    </contour>
  </outline>
</glyph>
<glyph name="T" format="2">
  <advance width="925.4866666666667"/>
  <unicode hex="0054"/>
  <anchor x="462.74333333333334" y="0.0" name="bottom"/>
  <anchor x="462.74333333333334" y="639.0" name="center"/>
  <anchor x="462.74333333333334" y="1278.0" name="top"/>
  <outline>
    <contour>
      <point x="315.145" y="0.0" type="line"/>
      <point x="610.8416666666666" y="0.0" type="line"/>
      <point x="610.8416666666666" y="1247.96" type="line"/>
      <point x="315.145" y="1247.96" type="line"/>
    </contour>
    <contour>
      <point x="40.775" y="1024.4333333333334" type="line"/>
      <point x="884.7116666666667" y="1024.4333333333334" type="line"/>
      <point x="884.7116666666667" y="1278.0" type="line"/>
      <point x="40.775" y="1278.0" type="line"/>
    </contour>
  </outline>
</glyph>
<glyph name="U" format="2">
  <advance width="1087.2733333333333"/>
  <unicode hex="0055"/>
  <anchor x="543.985" y="0.0" name="bottom"/>
  <anchor x="796.925" y="3.2583333333333333" name="ogonek"/>
  <anchor x="543.985" y="1278.0" name="top"/>
  <anchor x="1083.875" y="1278.0" name="topright"/>
  <outline>
    <contour>
      <point x="543.985" y="-25.98333333333333" type="curve" smooth="yes"/>
      <point x="852.06" y="-25.98333333333333"/>
      <point x="996.6733333333333" y="134.75333333333333"/>
      <point x="996.6733333333333" y="440.92333333333335" type="curve" smooth="yes"/>
      <point x="996.6733333333333" y="1278.0" type="line"/>
      <point x="700.9766666666666" y="1278.0" type="line"/>
      <point x="700.9766666666666" y="425.895" type="line" smooth="yes"/>
      <point x="700.9766666666666" y="290.04833333333335"/>
      <point x="655.6066666666666" y="223.25166666666667"/>
      <point x="543.985" y="223.25166666666667" type="curve" smooth="yes"/>
      <point x="431.66666666666663" y="223.25166666666667"/>
      <point x="386.2966666666666" y="290.04833333333335"/>
      <point x="386.2966666666666" y="425.895" type="curve" smooth="yes"/>
      <point x="386.2966666666666" y="1278.0" type="line"/>
      <point x="90.6" y="1278.0" type="line"/>
      <point x="90.6" y="440.92333333333335" type="line" smooth="yes"/>
      <point x="90.6" y="134.75333333333333"/>
      <point x="235.7133333333333" y="-25.98333333333333"/>
    </contour>
  </outline>
</glyph>
<glyph name="V" format="2">
  <advance width="1028.9366666666667"/>
  <unicode hex="0056"/>
  <anchor x="514.4683333333334" y="0.0" name="bottom"/>
  <anchor x="514.4683333333334" y="1278.0" name="top"/>
  <outline>
    <contour>
      <point x="286.83500000000004" y="0.0" type="line"/>
      <point x="742.6016666666667" y="0.0" type="line"/>
      <point x="1005.6116666666666" y="1278.0" type="line"/>
      <point x="706.6116666666667" y="1278.0" type="line"/>
      <point x="525.3166666666667" y="214.695" type="line"/>
      <point x="503.4683333333333" y="214.695" type="line"/>
      <point x="322.67333333333335" y="1278.0" type="line"/>
      <point x="23.325000000000003" y="1278.0" type="line"/>
    </contour>
  </outline>
</glyph>
<glyph name="W" format="2">
  <advance width="1480.1233333333334"/>
  <unicode hex="0057"/>
  <anchor x="740.3116666666667" y="0.0" name="bottom"/>
  <anchor x="740.3116666666667" y="1278.0" name="top"/>
  <outline>
    <contour>
      <point x="208.7566666666667" y="0.0" type="line"/>
      <point x="623.9933333333333" y="0.0" type="line"/>
      <point x="709.2233333333334" y="782.9449999999999" type="line"/>
      <point x="734.1600000000001" y="1009.6416666666667" type="line"/>
      <point x="747.5083333333334" y="1009.6416666666667" type="line"/>
      <point x="771.7483333333333" y="782.9449999999999" type="line"/>
      <point x="858.5233333333333" y="0.0" type="line"/>
      <point x="1273.6083333333333" y="0.0" type="line"/>
      <point x="1444.8433333333335" y="1278.0" type="line"/>
      <point x="1151.2816666666665" y="1278.0" type="line"/>
      <point x="1062.4683333333335" y="401.68833333333333" type="line"/>
      <point x="1046.2333333333333" y="245.58333333333334" type="line"/>
      <point x="1032.0366666666666" y="245.58333333333334" type="line"/>
      <point x="1013.8016666666666" y="402.03666666666663" type="line"/>
      <point x="912.0833333333334" y="1253.3766666666668" type="line"/>
      <point x="569.2366666666667" y="1253.3766666666668" type="line"/>
      <point x="466.32166666666666" y="402.03666666666663" type="line"/>
      <point x="448.0866666666667" y="245.58333333333334" type="line"/>
      <point x="434.0416666666667" y="245.58333333333334" type="line"/>
      <point x="418.50333333333333" y="402.03666666666663" type="line"/>
      <point x="331.4316666666666" y="1278.0" type="line"/>
      <point x="35.28" y="1278.0" type="line"/>
    </contour>
  </outline>
</glyph>
<glyph name="X" format="2">
  <advance width="1003.97"/>
  <unicode hex="0058"/>
  <anchor x="502.485" y="0.0" name="bottom"/>
  <anchor x="502.485" y="1278.0" name="top"/>
  <outline>
    <contour>
      <point x="22.735" y="0.0" type="line"/>
      <point x="323.9483333333333" y="0.0" type="line"/>
      <point x="494.2433333333333" y="499.72166666666664" type="line"/>
      <point x="509.5299999999999" y="499.72166666666664" type="line"/>
      <point x="680.0216666666666" y="0.0" type="line"/>
      <point x="981.2349999999999" y="0.0" type="line"/>
      <point x="713.4833333333333" y="700.54" type="line"/>
      <point x="713.4833333333333" y="631.595" type="line"/>
      <point x="971.6449999999999" y="1278.0" type="line"/>
      <point x="673.6283333333333" y="1278.0" type="line"/>
      <point x="509.5299999999999" y="814.6433333333333" type="line"/>
      <point x="494.39500000000004" y="814.6433333333333" type="line"/>
      <point x="330.49333333333334" y="1278.0" type="line"/>
      <point x="32.47666666666667" y="1278.0" type="line"/>
      <point x="289.5933333333333" y="631.595" type="line"/>
      <point x="289.5933333333333" y="700.54" type="line"/>
    </contour>
  </outline>
</glyph>
<glyph name="Y" format="2">
  <advance width="980.695"/>
  <unicode hex="0059"/>
  <anchor x="490.42333333333335" y="0.0" name="bottom"/>
  <anchor x="490.42333333333335" y="1278.0" name="top"/>
  <anchor x="20.0" y="1278.0" name="topleft"/>
  <outline>
    <contour>
      <point x="357.505" y="333.3516666666667" type="line"/>
      <point x="625.0383333333333" y="333.3516666666667" type="line"/>
      <point x="972.6116666666668" y="1278.0" type="line"/>
      <point x="671.7183333333334" y="1278.0" type="line"/>
      <point x="557.215" y="897.9083333333333" type="line"/>
      <point x="498.66499999999996" y="679.605" type="line"/>
      <point x="483.53000000000003" y="679.605" type="line"/>
      <point x="425.13166666666666" y="897.9083333333333" type="line"/>
      <point x="308.62833333333333" y="1278.0" type="line"/>
      <point x="7.735000000000001" y="1278.0" type="line"/>
    </contour>
    <contour>
      <point x="348.0666666666667" y="0.0" type="line"/>
      <point x="634.4766666666667" y="0.0" type="line"/>
      <point x="634.4766666666667" y="606.1316666666667" type="line"/>
      <point x="348.0666666666667" y="606.1316666666667" type="line"/>
    </contour>
  </outline>
</glyph>
<glyph name="Z" format="2">
  <advance width="896.4016666666668"/>
  <unicode hex="005A"/>
  <anchor x="448.7766666666667" y="0.0" name="bottom"/>
  <anchor x="448.7766666666667" y="639.0" name="center"/>
  <anchor x="448.7766666666667" y="1278.0" name="top"/>
  <outline>
    <contour>
      <point x="842.4416666666667" y="255.06666666666663" type="line"/>
      <point x="372.68499999999995" y="255.06666666666663" type="line"/>
      <point x="833.6999999999999" y="1044.7483333333334" type="line"/>
      <point x="833.6999999999999" y="1278.0" type="line"/>
      <point x="60.156666666666666" y="1278.0" type="line"/>
      <point x="60.156666666666666" y="1024.2816666666668" type="line"/>
      <point x="512.1883333333334" y="1024.2816666666668" type="line"/>
      <point x="52.915000000000006" y="235.1" type="line"/>
      <point x="52.915000000000006" y="0.0" type="line"/>
      <point x="842.4416666666667" y="0.0" type="line"/>
    </contour>
  </outline>
</glyph>
<glyph name="bracketleft" format="2">
  <advance width="573.2266666666666"/>
  <unicode hex="005B"/>
  <outline>
    <contour>
      <point x="101.1" y="-244.43833333333333" type="line"/>
      <point x="532.165" y="-244.43833333333333" type="line"/>
      <point x="532.165" y="-29.529999999999998" type="line"/>
      <point x="369.8916666666667" y="-29.529999999999998" type="line"/>
      <point x="369.8916666666667" y="1136.5916666666665" type="line"/>
      <point x="532.165" y="1136.5916666666665" type="line"/>
      <point x="532.165" y="1351.5" type="line"/>
      <point x="101.1" y="1351.5" type="line"/>
    </contour>
  </outline>
</glyph>
<glyph name="backslash" format="2">
  <advance width="753.0200000000001"/>
  <unicode hex="005C"/>
  <outline>
    <contour>
      <point x="754.4033333333333" y="-244.135" type="line"/>
      <point x="251.86833333333334" y="1350.2866666666666" type="line"/>
      <point x="-1.383333333333331" y="1350.2866666666666" type="line"/>
      <point x="500.84833333333336" y="-244.135" type="line"/>
    </contour>
  </outline>
</glyph>
<glyph name="bracketright" format="2">
  <advance width="573.2266666666666"/>
  <unicode hex="005D"/>
  <outline>
    <contour>
      <point x="472.1266666666667" y="-244.43833333333333" type="line"/>
      <point x="472.1266666666667" y="1351.5" type="line"/>
      <point x="41.06166666666667" y="1351.5" type="line"/>
      <point x="41.06166666666667" y="1136.5916666666665" type="line"/>
      <point x="203.335" y="1136.5916666666665" type="line"/>
      <point x="203.335" y="-29.529999999999998" type="line"/>
      <point x="41.06166666666667" y="-29.529999999999998" type="line"/>
      <point x="41.06166666666667" y="-244.43833333333333" type="line"/>
    </contour>
  </outline>
</glyph>
<glyph name="asciicircum" format="2">
  <advance width="780.4583333333334"/>
  <unicode hex="005E"/>
  <outline>
    <contour>
      <point x="204.05999999999997" y="1278.0" type="line"/>
      <point x="22.296666666666667" y="614.0166666666667" type="line"/>
      <point x="257.76166666666666" y="614.0166666666667" type="line"/>
      <point x="385.00166666666667" y="1125.8799999999999" type="line"/>
      <point x="396.00166666666667" y="1125.8799999999999" type="line"/>
      <point x="523.0450000000001" y="614.0166666666667" type="line"/>
      <point x="758.1616666666666" y="614.0166666666667" type="line"/>
      <point x="575.8983333333334" y="1278.0" type="line"/>
    </contour>
  </outline>
</glyph>
<glyph name="underscore" format="2">
  <advance width="745.8033333333334"/>
  <unicode hex="005F"/>
  <outline>
    <contour>
      <point x="28.415000000000006" y="-257.76666666666665" type="line"/>
      <point x="717.3883333333333" y="-257.76666666666665" type="line"/>
      <point x="717.3883333333333" y="-33.84666666666667" type="line"/>
      <point x="28.415000000000006" y="-33.84666666666667" type="line"/>
    </contour>
  </outline>
</glyph>
<glyph name="grave" format="2">
  <advance width="631.37"/>
  <unicode hex="0060"/>
  <anchor x="419.5083333333333" y="993.225" name="_top"/>
  <anchor x="418.295" y="1354.9566666666667" name="top"/>
  <outline>
    <contour>
      <point x="392.9716666666667" y="1367.2083333333333" type="line"/>
      <point x="103.315" y="1367.2083333333333" type="line"/>
      <point x="103.315" y="1365.3600000000001" type="line"/>
      <point x="310.7033333333333" y="1080.6566666666668" type="line"/>
      <point x="538.1116666666667" y="1080.6566666666668" type="line"/>
      <point x="538.1116666666667" y="1082.1566666666668" type="line"/>
    </contour>
  </outline>
</glyph>
<glyph name="a" format="2">
  <advance width="908.835"/>
  <unicode hex="0061"/>
  <anchor x="453.12000000000006" y="0.0" name="bottom"/>
  <anchor x="861.3299999999999" y="0.0" name="ogonek"/>
  <anchor x="453.12000000000006" y="993.225" name="top"/>
  <outline>
    <contour>
      <point x="552.2633333333333" y="0.0" type="line"/>
      <point x="831.9033333333333" y="0.0" type="line"/>
      <point x="831.9033333333333" y="622.9533333333334" type="line" smooth="yes"/>
      <point x="831.9033333333333" y="869.095"/>
      <point x="726.7116666666667" y="1014.4666666666667"/>
      <point x="437.91166666666663" y="1014.4666666666667" type="curve" smooth="yes"/>
      <point x="299.4" y="1014.4666666666667"/>
      <point x="186.45" y="976.95"/>
      <point x="108.34833333333333" y="936.1466666666666" type="curve"/>
      <point x="87.07833333333333" y="706.1316666666667" type="line"/>
      <point x="171.89333333333335" y="744.21"/>
      <point x="273.225" y="780.3333333333334"/>
      <point x="380.72499999999997" y="780.3333333333334" type="curve" smooth="yes"/>
      <point x="504.92666666666673" y="780.3333333333334"/>
      <point x="550.325" y="733.3566666666667"/>
      <point x="550.325" y="627.01" type="curve"/>
      <point x="553.3083333333333" y="586.545" type="line"/>
      <point x="553.3083333333333" y="231.63" type="line"/>
      <point x="561.8533333333334" y="223.945" type="line"/>
    </contour>
    <contour>
      <point x="299.2916666666667" y="-19.045" type="curve" smooth="yes"/>
      <point x="464.73" y="-19.045"/>
      <point x="524.8083333333334" y="70.43833333333333"/>
      <point x="549.9599999999999" y="188.13" type="curve"/>
      <point x="592.455" y="188.13" type="line"/>
      <point x="555.5666666666666" y="305.4216666666667" type="line"/>
      <point x="538.1566666666666" y="248.60333333333332"/>
      <point x="493.86" y="204.07666666666668"/>
      <point x="415.4066666666667" y="204.07666666666668" type="curve" smooth="yes"/>
      <point x="345.5483333333333" y="204.07666666666668"/>
      <point x="318.43666666666667" y="242.34"/>
      <point x="318.43666666666667" y="305.82166666666666" type="curve" smooth="yes"/>
      <point x="318.43666666666667" y="324.26500000000004" type="line" smooth="yes"/>
      <point x="318.43666666666667" y="384.88166666666666"/>
      <point x="347.94166666666666" y="414.145"/>
      <point x="424.53" y="428.52666666666664" type="curve" smooth="yes"/>
      <point x="600.8033333333333" y="461.12166666666667" type="line"/>
      <point x="577.2466666666667" y="643.9666666666667" type="line"/>
      <point x="366.45000000000005" y="607.0233333333333" type="line" smooth="yes"/>
      <point x="144.32" y="567.6583333333333"/>
      <point x="45.763333333333335" y="491.74833333333333"/>
      <point x="45.763333333333335" y="301.37666666666667" type="curve" smooth="yes"/>
      <point x="45.763333333333335" y="263.84333333333336" type="line" smooth="yes"/>
      <point x="45.763333333333335" y="81.83166666666666"/>
      <point x="131.46" y="-19.045"/>
    </contour>
  </outline>
</glyph>
<glyph name="b" format="2">
  <advance width="979.6833333333334"/>
  <unicode hex="0062"/>
  <anchor x="495.48499999999996" y="0.0" name="bottom"/>
  <anchor x="495.48499999999996" y="1323.0166666666667" name="top"/>
  <outline>
    <contour>
      <point x="623.3133333333334" y="-19.045" type="curve" smooth="yes"/>
      <point x="827.9316666666666" y="-19.045"/>
      <point x="916.5100000000001" y="124.16333333333333"/>
      <point x="916.5100000000001" y="400.305" type="curve" smooth="yes"/>
      <point x="916.5100000000001" y="591.74" type="line" smooth="yes"/>
      <point x="916.5100000000001" y="869.0166666666667"/>
      <point x="825.9933333333333" y="1012.27"/>
      <point x="629.4033333333334" y="1012.27" type="curve" smooth="yes"/>
      <point x="469.33000000000004" y="1012.27"/>
      <point x="403.31333333333333" y="920.9100000000001"/>
      <point x="379.59999999999997" y="800.37" type="curve"/>
      <point x="314.9866666666666" y="800.37" type="line"/>
      <point x="365.85833333333335" y="672.9316666666667" type="line"/>
      <point x="383.02666666666664" y="734.84"/>
      <point x="432.4583333333333" y="780.6083333333333"/>
      <point x="504.16999999999996" y="780.6083333333333" type="curve" smooth="yes"/>
      <point x="590.0166666666667" y="780.6083333333333"/>
      <point x="627.9033333333333" y="724.7666666666668"/>
      <point x="627.9033333333333" y="611.2233333333334" type="curve" smooth="yes"/>
      <point x="627.9033333333333" y="391.895" type="line" smooth="yes"/>
      <point x="627.9033333333333" y="277.4866666666667"/>
      <point x="588.6683333333333" y="220.1"/>
      <point x="503.625" y="220.1" type="curve" smooth="yes"/>
      <point x="417.53666666666663" y="220.1"/>
      <point x="371.31333333333333" y="277.5316666666667"/>
      <point x="369.4033333333333" y="380.6816666666667" type="curve"/>
      <point x="298.54833333333335" y="194.59666666666666" type="line"/>
      <point x="374.6616666666667" y="194.59666666666666" type="line"/>
      <point x="400.0266666666667" y="68.905"/>
      <point x="469.9083333333333" y="-19.045"/>
    </contour>
    <contour>
      <point x="87.19" y="0.0" type="line"/>
      <point x="372.70666666666665" y="0.0" type="line"/>
      <point x="363.1166666666667" y="227.32166666666666" type="line"/>
      <point x="369.4033333333333" y="260.31" type="line"/>
      <point x="369.4033333333333" y="732.3983333333333" type="line"/>
      <point x="368.75166666666667" y="759.0050000000001" type="line"/>
      <point x="373.25166666666667" y="1060.5966666666666" type="line"/>
      <point x="373.25166666666667" y="1323.0166666666667" type="line"/>
      <point x="87.19" y="1323.0166666666667" type="line"/>
    </contour>
  </outline>
</glyph>
<glyph name="c" format="2">
  <advance width="754.4066666666666"/>
  <unicode hex="0063"/>
  <anchor x="417.11333333333334" y="0.0" name="bottom"/>
  <anchor x="417.11333333333334" y="993.225" name="top"/>
  <outline>
    <contour>
      <point x="450.68666666666667" y="-20.241666666666667" type="curve" smooth="yes"/>
      <point x="550.2766666666666" y="-20.241666666666667"/>
      <point x="637.1366666666667" y="4.533333333333333"/>
      <point x="694.3" y="37.595" type="curve"/>
      <point x="714.7216666666667" y="278.36333333333334" type="line"/>
      <point x="662.7666666666667" y="248.6783333333333"/>
      <point x="604.6883333333334" y="227.145"/>
      <point x="530.4416666666666" y="227.145" type="curve" smooth="yes"/>
      <point x="404.72333333333336" y="227.145"/>
      <point x="348.34166666666664" y="296.1666666666667"/>
      <point x="348.34166666666664" y="419.8283333333333" type="curve" smooth="yes"/>
      <point x="348.34166666666664" y="581.515" type="line" smooth="yes"/>
      <point x="348.34166666666664" y="704.4966666666667"/>
      <point x="398.74" y="771.8216666666667"/>
      <point x="523.2616666666668" y="771.8216666666667" type="curve" smooth="yes"/>
      <point x="598.0083333333333" y="771.8216666666667"/>
      <point x="655.6766666666667" y="749.2433333333333"/>
      <point x="705.8283333333333" y="719.5583333333334" type="curve"/>
      <point x="685.0583333333334" y="957.13" type="line"/>
      <point x="629.5916666666667" y="989.0400000000001"/>
      <point x="548.17" y="1013.9666666666666"/>
      <point x="450.3833333333334" y="1013.9666666666666" type="curve" smooth="yes"/>
      <point x="185.01666666666668" y="1013.9666666666666"/>
      <point x="60.43166666666667" y="857.2916666666666"/>
      <point x="60.43166666666667" y="588.695" type="curve" smooth="yes"/>
      <point x="60.43166666666667" y="406.9683333333333" type="line" smooth="yes"/>
      <point x="60.43166666666667" y="135.73666666666665"/>
      <point x="183.82000000000002" y="-20.241666666666667"/>
    </contour>
  </outline>
</glyph>
<glyph name="d" format="2">
  <advance width="980.0316666666666"/>
  <unicode hex="0064"/>
  <anchor x="484.54666666666674" y="0.0" name="bottom"/>
  <anchor x="484.54666666666674" y="496.93833333333333" name="center"/>
  <anchor x="484.54666666666674" y="1323.0166666666667" name="top"/>
  <anchor x="985.25" y="1323.0166666666667" name="topright"/>
  <outline>
    <contour>
      <point x="350.4316666666666" y="-19.045" type="curve" smooth="yes"/>
      <point x="514.7916666666666" y="-19.045"/>
      <point x="580.96" y="75.79833333333333"/>
      <point x="605.37" y="194.59666666666666" type="curve"/>
      <point x="670.8316666666666" y="194.59666666666666" type="line"/>
      <point x="613.825" y="326.7316666666667" type="line"/>
      <point x="595.96" y="264.12666666666667"/>
      <point x="549.3149999999999" y="220.1"/>
      <point x="479.4966666666666" y="220.1" type="curve" smooth="yes"/>
      <point x="391.4083333333333" y="220.1"/>
      <point x="351.78000000000003" y="276.29"/>
      <point x="351.78000000000003" y="389.6816666666667" type="curve" smooth="yes"/>
      <point x="351.78000000000003" y="611.3583333333333" type="line" smooth="yes"/>
      <point x="351.78000000000003" y="724.2666666666667"/>
      <point x="391.86333333333334" y="780.6083333333333"/>
      <point x="477.21" y="780.6083333333333" type="curve" smooth="yes"/>
      <point x="562.905" y="780.6083333333333"/>
      <point x="608.5216666666668" y="722.2216666666667"/>
      <point x="610.28" y="620.0266666666666" type="curve"/>
      <point x="672.0166666666667" y="800.37" type="line"/>
      <point x="599.735" y="800.37" type="line"/>
      <point x="574.0216666666666" y="926.41"/>
      <point x="506.685" y="1012.27"/>
      <point x="356.37" y="1012.27" type="curve" smooth="yes"/>
      <point x="152.29666666666665" y="1012.27"/>
      <point x="63.17333333333333" y="867.3199999999999"/>
      <point x="63.17333333333333" y="586.6500000000001" type="curve" smooth="yes"/>
      <point x="63.17333333333333" y="394.9116666666667" type="line" smooth="yes"/>
      <point x="63.17333333333333" y="122.315"/>
      <point x="154.19" y="-19.045"/>
    </contour>
    <contour>
      <point x="606.9766666666667" y="0.0" type="line"/>
      <point x="892.8416666666667" y="0.0" type="line"/>
      <point x="892.8416666666667" y="1323.0166666666667" type="line"/>
      <point x="606.78" y="1323.0166666666667" type="line"/>
      <point x="606.78" y="1060.5966666666666" type="line"/>
      <point x="610.5833333333334" y="773.1966666666667" type="line"/>
      <point x="610.28" y="733.7916666666667" type="line"/>
      <point x="610.28" y="268.42333333333335" type="line"/>
      <point x="616.5666666666667" y="229.06333333333333" type="line"/>
    </contour>
  </outline>
</glyph>
<glyph name="e" format="2">
  <advance width="914.3799999999999"/>
  <unicode hex="0065"/>
  <anchor x="470.65333333333336" y="0.0" name="bottom"/>
  <anchor x="805.87" y="9.696666666666665" name="ogonek"/>
  <anchor x="468.985" y="993.225" name="top"/>
  <outline>
    <contour>
      <point x="516.9799999999999" y="-19.893333333333334" type="curve" smooth="yes"/>
      <point x="640.7333333333333" y="-19.893333333333334"/>
      <point x="748.0316666666666" y="5.275"/>
      <point x="824.3016666666666" y="45.03333333333333" type="curve"/>
      <point x="844.875" y="267.885" type="line"/>
      <point x="763.6500000000001" y="234.48666666666668"/>
      <point x="672.2733333333333" y="213.15"/>
      <point x="573.6216666666667" y="213.15" type="curve" smooth="yes"/>
      <point x="396.8516666666667" y="213.15"/>
      <point x="337.6333333333334" y="278.565"/>
      <point x="337.6333333333334" y="385.76" type="curve" smooth="yes"/>
      <point x="337.6333333333334" y="465.9266666666667" type="line"/>
      <point x="335.73999999999995" y="504.6183333333333" type="line"/>
      <point x="335.73999999999995" y="630.0383333333333" type="line" smooth="yes"/>
      <point x="335.73999999999995" y="739.3233333333334"/>
      <point x="372.36833333333334" y="795.6483333333334"/>
      <point x="464.2883333333333" y="795.6483333333334" type="curve" smooth="yes"/>
      <point x="555.7083333333334" y="795.6483333333334"/>
      <point x="593.095" y="740.6716666666666"/>
      <point x="593.095" y="630.9933333333333" type="curve" smooth="yes"/>
      <point x="593.095" y="570.46"/>
      <point x="592.2466666666667" y="491.825"/>
      <point x="590.2016666666666" y="393.4483333333333" type="curve"/>
      <point x="845.4366666666667" y="393.4483333333333" type="line"/>
      <point x="854.6783333333333" y="444.49333333333334"/>
      <point x="858.7233333333334" y="501.30833333333334"/>
      <point x="858.7233333333334" y="555.9883333333333" type="curve" smooth="yes"/>
      <point x="858.7233333333334" y="609.5266666666666" type="line" smooth="yes"/>
      <point x="858.7233333333334" y="869.5"/>
      <point x="728.79" y="1016.8149999999999"/>
      <point x="464.2883333333333" y="1016.8149999999999" type="curve" smooth="yes"/>
      <point x="195.955" y="1016.8149999999999"/>
      <point x="60.43166666666667" y="865.595"/>
      <point x="60.43166666666667" y="585.4133333333333" type="curve" smooth="yes"/>
      <point x="60.43166666666667" y="421.98" type="line" smooth="yes"/>
      <point x="60.43166666666667" y="131.43333333333334"/>
      <point x="207.25833333333333" y="-19.893333333333334"/>
    </contour>
    <contour>
      <point x="224.95166666666665" y="393.4483333333333" type="line"/>
      <point x="785.5816666666667" y="393.4483333333333" type="line"/>
      <point x="785.5816666666667" y="580.1866666666666" type="line"/>
      <point x="224.95166666666665" y="580.1866666666666" type="line"/>
    </contour>
  </outline>
</glyph>
<glyph name="f" format="2">
  <advance width="664.5016666666667"/>
  <unicode hex="0066"/>
  <anchor x="333.43333333333334" y="0.0" name="bottom"/>
  <anchor x="333.43333333333334" y="1323.5" name="top"/>
  <outline>
    <contour>
      <point x="395.4666666666667" y="1354.2416666666668" type="curve" smooth="yes"/>
      <point x="193.71833333333333" y="1354.2416666666668"/>
      <point x="95.44833333333334" y="1275.815"/>
      <point x="95.44833333333334" y="1141.77" type="curve" smooth="yes"/>
      <point x="95.44833333333334" y="1137.1183333333333" type="line" smooth="yes"/>
      <point x="95.44833333333334" y="1052.0616666666667"/>
      <point x="146.73" y="995.2583333333333"/>
      <point x="212.58499999999998" y="969.2866666666667" type="curve"/>
      <point x="212.58499999999998" y="939.9266666666666" type="line"/>
      <point x="397.93666666666667" y="942.865" type="line"/>
      <point x="384.33000000000004" y="966.96"/>
      <point x="374.465" y="990.4816666666667"/>
      <point x="374.465" y="1022.9866666666667" type="curve" smooth="yes"/>
      <point x="374.465" y="1025.5933333333332" type="line" smooth="yes"/>
      <point x="374.465" y="1087.345"/>
      <point x="408.27333333333337" y="1123.9116666666666"/>
      <point x="507.58166666666665" y="1123.9116666666666" type="curve" smooth="yes"/>
      <point x="562.525" y="1123.9116666666666"/>
      <point x="608.0866666666667" y="1114.2433333333333"/>
      <point x="648.62" y="1102.4683333333332" type="curve"/>
      <point x="626.0016666666667" y="1314.4833333333333" type="line"/>
      <point x="570.17" y="1335.7416666666668"/>
      <point x="490.02333333333337" y="1354.2416666666668"/>
    </contour>
    <contour>
      <point x="125.44833333333332" y="0.0" type="line"/>
      <point x="410.2683333333334" y="0.0" type="line"/>
      <point x="410.2683333333334" y="881.2066666666667" type="line"/>
      <point x="125.44833333333332" y="881.2066666666667" type="line"/>
    </contour>
    <contour>
      <point x="13.865" y="732.3666666666667" type="line"/>
      <point x="627.44" y="732.3666666666667" type="line"/>
      <point x="648.5583333333333" y="961.635" type="line"/>
      <point x="360.68333333333334" y="961.635" type="line"/>
      <point x="251.91166666666663" y="959.59" type="line"/>
      <point x="13.865" y="961.635" type="line"/>
    </contour>
  </outline>
</glyph>
<glyph name="g" format="2">
  <advance width="917.9916666666668"/>
  <unicode hex="0067"/>
  <anchor x="460.08000000000004" y="-347.7583333333333" name="bottom"/>
  <anchor x="459.62499999999994" y="993.8316666666667" name="top"/>
  <outline>
    <contour>
      <point x="463.24333333333334" y="288.9166666666667" type="curve"/>
      <point x="722.6833333333333" y="288.9166666666667"/>
      <point x="846.605" y="393.5683333333333"/>
      <point x="846.605" y="574.1516666666666" type="curve" smooth="yes"/>
      <point x="846.605" y="601.2" type="line" smooth="yes"/>
      <point x="846.605" y="728.4416666666666"/>
      <point x="786.0033333333333" y="795.2783333333333"/>
      <point x="657.3616666666667" y="815.9633333333333" type="curve"/>
      <point x="657.3616666666667" y="825.9633333333334" type="line"/>
      <point x="900.6316666666667" y="818.205" type="line"/>
      <point x="900.6316666666667" y="1028.2983333333334" type="line"/>
      <point x="461.29333333333335" y="1008.0733333333334" type="line" smooth="yes"/>
      <point x="173.80333333333334" y="994.7416666666667"/>
      <point x="54.81333333333333" y="871.0733333333334"/>
      <point x="54.81333333333333" y="662.37" type="curve" smooth="yes"/>
      <point x="54.81333333333333" y="615.4566666666667" type="line" smooth="yes"/>
      <point x="54.81333333333333" y="405.535"/>
      <point x="199.15666666666667" y="288.9166666666667"/>
    </contour>
    <contour>
      <point x="447.2933333333333" y="-160.255" type="line" smooth="yes"/>
      <point x="335.8" y="-160.255"/>
      <point x="287.2733333333333" y="-129.13166666666666"/>
      <point x="287.2733333333333" y="-74.06" type="curve" smooth="yes"/>
      <point x="287.2733333333333" y="-72.40833333333335" type="line" smooth="yes"/>
      <point x="287.2733333333333" y="-25.291666666666668"/>
      <point x="320.63166666666666" y="2.6066666666666674"/>
      <point x="375.54" y="14.83666666666667" type="curve"/>
      <point x="319.59000000000003" y="13.336666666666666" type="line"/>
      <point x="542.5966666666666" y="-15.601666666666667" type="line" smooth="yes"/>
      <point x="608.46" y="-24.724999999999998"/>
      <point x="644.325" y="-40.64"/>
      <point x="644.325" y="-84.67833333333334" type="curve" smooth="yes"/>
      <point x="644.325" y="-86.48166666666667" type="line" smooth="yes"/>
      <point x="644.325" y="-134.91833333333335"/>
      <point x="597.495" y="-160.255"/>
      <point x="485.00166666666667" y="-160.255" type="curve" smooth="yes"/>
    </contour>
    <contour>
      <point x="431.9166666666667" y="-376.18" type="curve" smooth="yes"/>
      <point x="476.5183333333334" y="-376.18" type="line" smooth="yes"/>
      <point x="744.6266666666667" y="-376.18"/>
      <point x="900.7116666666667" y="-282.48833333333334"/>
      <point x="900.7116666666667" y="-94.57166666666667" type="curve" smooth="yes"/>
      <point x="900.7116666666667" y="-86.33000000000001" type="line" smooth="yes"/>
      <point x="900.7116666666667" y="79.13166666666667"/>
      <point x="809.4300000000001" y="153.435"/>
      <point x="608.4966666666667" y="186.81166666666667" type="curve" smooth="yes"/>
      <point x="415.94000000000005" y="218.18833333333333" type="line" smooth="yes"/>
      <point x="359.4133333333333" y="227.05333333333334"/>
      <point x="335.3183333333334" y="236.08666666666667"/>
      <point x="335.3183333333334" y="262.485" type="curve" smooth="yes"/>
      <point x="335.3183333333334" y="263.13666666666666" type="line" smooth="yes"/>
      <point x="335.3183333333334" y="284.48999999999995"/>
      <point x="352.41333333333336" y="296.22"/>
      <point x="389.985" y="296.37166666666667" type="curve"/>
      <point x="434.66999999999996" y="295.91666666666663" type="line"/>
      <point x="245.95" y="349.625" type="line"/>
      <point x="245.95" y="315.63" type="line"/>
      <point x="136.98833333333332" y="310.50666666666666"/>
      <point x="75.69000000000001" y="266.52333333333337"/>
      <point x="75.69000000000001" y="180.93833333333333" type="curve" smooth="yes"/>
      <point x="75.69000000000001" y="179.08999999999997" type="line" smooth="yes"/>
      <point x="75.69000000000001" y="100.12333333333333"/>
      <point x="128.87" y="56.47166666666667"/>
      <point x="228.60666666666668" y="37.275" type="curve"/>
      <point x="228.60666666666668" y="27.775" type="line"/>
      <point x="112.47666666666667" y="16.438333333333333"/>
      <point x="33.931666666666665" y="-37.71333333333334"/>
      <point x="33.931666666666665" y="-152.43833333333333" type="curve" smooth="yes"/>
      <point x="33.931666666666665" y="-156.43833333333333" type="line" smooth="yes"/>
      <point x="33.931666666666665" y="-311.18"/>
      <point x="178.595" y="-376.18"/>
    </contour>
    <contour>
      <point x="455.8216666666666" y="486.83" type="curve" smooth="yes"/>
      <point x="366.43" y="486.83"/>
      <point x="327.4533333333333" y="532.9133333333333"/>
      <point x="327.4533333333333" y="620.6533333333334" type="curve" smooth="yes"/>
      <point x="327.4533333333333" y="668.1283333333333" type="line" smooth="yes"/>
      <point x="327.4533333333333" y="755.0483333333333"/>
      <point x="364.9133333333333" y="801.4966666666667"/>
      <point x="454.8216666666666" y="801.4966666666667" type="curve" smooth="yes"/>
      <point x="456.58000000000004" y="801.4966666666667" type="line" smooth="yes"/>
      <point x="543.5616666666667" y="801.4966666666667"/>
      <point x="581.8866666666667" y="754.61"/>
      <point x="581.8866666666667" y="668.5833333333334" type="curve" smooth="yes"/>
      <point x="581.8866666666667" y="620.6533333333334" type="line" smooth="yes"/>
      <point x="581.8866666666667" y="532.9133333333333"/>
      <point x="543.1066666666667" y="486.83"/>
    </contour>
  </outline>
</glyph>
<glyph name="h" format="2">
  <advance width="984.0150000000001"/>
  <unicode hex="0068"/>
  <anchor x="492.83333333333337" y="0.0" name="bottom"/>
  <anchor x="492.83333333333337" y="662.0" name="center"/>
  <anchor x="230.54666666666668" y="1323.0166666666667" name="top"/>
  <outline>
    <contour>
      <point x="615.6283333333334" y="0.0" type="line"/>
      <point x="903.3866666666667" y="0.0" type="line"/>
      <point x="903.3866666666667" y="675.3033333333334" type="line" smooth="yes"/>
      <point x="903.3866666666667" y="898.815"/>
      <point x="823.145" y="1012.27"/>
      <point x="637.7966666666667" y="1012.27" type="curve" smooth="yes"/>
      <point x="472.8466666666667" y="1012.27"/>
      <point x="404.51" y="919.1683333333333"/>
      <point x="379.9483333333333" y="800.37" type="curve"/>
      <point x="307.54833333333335" y="800.37" type="line"/>
      <point x="372.14500000000004" y="668.8866666666668" type="line"/>
      <point x="389.16166666666663" y="728.0533333333333"/>
      <point x="432.745" y="773.4733333333334"/>
      <point x="503.3666666666667" y="773.4733333333334" type="curve" smooth="yes"/>
      <point x="588.5166666666667" y="773.4733333333334"/>
      <point x="615.6283333333334" y="720.025"/>
      <point x="615.6283333333334" y="626.8299999999999" type="curve" smooth="yes"/>
    </contour>
    <contour>
      <point x="87.19" y="0.0" type="line"/>
      <point x="374.9483333333333" y="0.0" type="line"/>
      <point x="374.9483333333333" y="710.835" type="line"/>
      <point x="368.75166666666667" y="746.8133333333334" type="line"/>
      <point x="373.25166666666667" y="1060.2483333333334" type="line"/>
      <point x="373.25166666666667" y="1323.0166666666667" type="line"/>
      <point x="87.19" y="1323.0166666666667" type="line"/>
    </contour>
  </outline>
</glyph>
<glyph name="i" format="2">
  <advance width="463.26166666666666"/>
  <unicode hex="0069"/>
  <anchor x="231.805" y="0.0" name="bottom"/>
  <anchor x="407.02666666666664" y="0.0" name="ogonek"/>
  <outline>
    <contour>
      <point x="88.10000000000001" y="0.0" type="line"/>
      <point x="375.51" y="0.0" type="line"/>
      <point x="375.51" y="993.225" type="line"/>
      <point x="88.10000000000001" y="993.225" type="line"/>
    </contour>
    <contour>
      <point x="231.805" y="1077.7" type="curve" smooth="yes"/>
      <point x="335.89666666666665" y="1077.7"/>
      <point x="383.67833333333334" y="1131.4816666666668"/>
      <point x="383.67833333333334" y="1218.7916666666665" type="curve" smooth="yes"/>
      <point x="383.67833333333334" y="1227.8366666666668" type="line" smooth="yes"/>
      <point x="383.67833333333334" y="1314.1466666666665"/>
      <point x="335.89666666666665" y="1368.7766666666666"/>
      <point x="231.805" y="1368.7766666666666" type="curve" smooth="yes"/>
      <point x="126.86500000000001" y="1368.7766666666666"/>
      <point x="79.93166666666667" y="1314.1466666666665"/>
      <point x="79.93166666666667" y="1227.8366666666668" type="curve" smooth="yes"/>
      <point x="79.93166666666667" y="1218.7916666666665" type="line" smooth="yes"/>
      <point x="79.93166666666667" y="1131.9816666666668"/>
      <point x="126.86500000000001" y="1077.7"/>
    </contour>
  </outline>
</glyph>
<glyph name="j" format="2">
  <advance width="474.08166666666665"/>
  <unicode hex="006A"/>
  <outline>
    <contour>
      <point x="98.57166666666666" y="172.91500000000002" type="line"/>
      <point x="386.33" y="172.91500000000002" type="line"/>
      <point x="386.33" y="993.225" type="line"/>
      <point x="98.57166666666666" y="993.225" type="line"/>
    </contour>
    <contour>
      <point x="242.62500000000003" y="1076.79" type="curve" smooth="yes"/>
      <point x="346.71666666666664" y="1076.79"/>
      <point x="394.49833333333333" y="1130.5716666666667"/>
      <point x="394.49833333333333" y="1217.8816666666667" type="curve" smooth="yes"/>
      <point x="394.49833333333333" y="1226.9266666666667" type="line" smooth="yes"/>
      <point x="394.49833333333333" y="1313.2366666666667"/>
      <point x="346.71666666666664" y="1367.8666666666668"/>
      <point x="242.62500000000003" y="1367.8666666666668" type="curve" smooth="yes"/>
      <point x="137.685" y="1367.8666666666668"/>
      <point x="90.75166666666667" y="1313.2366666666667"/>
      <point x="90.75166666666667" y="1226.9266666666667" type="curve" smooth="yes"/>
      <point x="90.75166666666667" y="1217.8816666666667" type="line" smooth="yes"/>
      <point x="90.75166666666667" y="1131.0716666666667"/>
      <point x="137.685" y="1076.79"/>
    </contour>
    <component base="jbottom"/>
  </outline>
</glyph>
<glyph name="k" format="2">
  <advance width="943.3249999999999"/>
  <unicode hex="006B"/>
  <anchor x="475.46833333333336" y="0.0" name="bottom"/>
  <anchor x="473.1933333333334" y="1323.0166666666667" name="top"/>
  <outline>
    <contour>
      <point x="622.3816666666667" y="0.0" type="line"/>
      <point x="938.955" y="0.0" type="line"/>
      <point x="641.6933333333334" y="556.4216666666667" type="line"/>
      <point x="641.6933333333334" y="497.4433333333333" type="line"/>
      <point x="927.3933333333333" y="993.225" type="line"/>
      <point x="617.3033333333333" y="993.225" type="line"/>
      <point x="401.1766666666667" y="602.8316666666666" type="line"/>
      <point x="344.12166666666667" y="602.8316666666666" type="line"/>
      <point x="344.12166666666667" y="435.46" type="line"/>
      <point x="400.26666666666665" y="435.46" type="line"/>
    </contour>
    <contour>
      <point x="87.19" y="0.0" type="line"/>
      <point x="374.09999999999997" y="0.0" type="line"/>
      <point x="374.09999999999997" y="1323.0166666666667" type="line"/>
      <point x="87.19" y="1323.0166666666667" type="line"/>
    </contour>
  </outline>
</glyph>
<glyph name="l" format="2">
  <advance width="464.2616666666667"/>
  <unicode hex="006C"/>
  <anchor x="232.95666666666665" y="0.0" name="bottom"/>
  <anchor x="232.95666666666665" y="662.0" name="center"/>
  <anchor x="232.95666666666665" y="1323.0166666666667" name="top"/>
  <anchor x="468.72166666666664" y="1323.0166666666667" name="topright"/>
  <outline>
    <contour>
      <point x="88.25166666666667" y="0.0" type="line"/>
      <point x="376.01" y="0.0" type="line"/>
      <point x="376.01" y="1323.0166666666667" type="line"/>
      <point x="88.25166666666667" y="1323.0166666666667" type="line"/>
    </contour>
  </outline>
</glyph>
<glyph name="m" format="2">
  <advance width="1467.3866666666665"/>
  <unicode hex="006D"/>
  <anchor x="732.845" y="0.0" name="bottom"/>
  <anchor x="732.845" y="993.225" name="top"/>
  <outline>
    <contour>
      <point x="1101.09" y="0.0" type="line"/>
      <point x="1386.7583333333332" y="0.0" type="line"/>
      <point x="1386.7583333333332" y="680.3033333333333" type="line" smooth="yes"/>
      <point x="1386.7583333333332" y="900.4666666666666"/>
      <point x="1309.6233333333334" y="1012.27"/>
      <point x="1129.9883333333335" y="1012.27" type="curve" smooth="yes"/>
      <point x="963.915" y="1012.27"/>
      <point x="898.8533333333334" y="913.91"/>
      <point x="874.3366666666667" y="798.28" type="curve"/>
      <point x="849.3083333333333" y="798.28" type="line"/>
      <point x="875.7016666666667" y="668.0383333333334" type="line"/>
      <point x="890.1733333333333" y="728.75"/>
      <point x="931.65" y="773.4733333333334"/>
      <point x="997.71" y="773.4733333333334" type="curve" smooth="yes"/>
      <point x="1075.7366666666667" y="773.4733333333334"/>
      <point x="1101.09" y="722.025"/>
      <point x="1101.09" y="633.4366666666666" type="curve" smooth="yes"/>
    </contour>
    <contour>
      <point x="87.19" y="0.0" type="line"/>
      <point x="372.8583333333333" y="0.0" type="line"/>
      <point x="372.8583333333333" y="755.7233333333334" type="line"/>
      <point x="360.67833333333334" y="761.5883333333334" type="line"/>
      <point x="370.6166666666667" y="993.225" type="line"/>
      <point x="87.19" y="993.225" type="line"/>
    </contour>
    <contour>
      <point x="594.2916666666666" y="0.0" type="line"/>
      <point x="879.6566666666666" y="0.0" type="line"/>
      <point x="879.6566666666666" y="666.915" type="line" smooth="yes"/>
      <point x="879.6566666666666" y="698.3083333333333"/>
      <point x="874.2633333333333" y="737.6233333333333"/>
      <point x="870.3533333333334" y="763.5166666666667" type="curve"/>
      <point x="852.2916666666666" y="926.2866666666666"/>
      <point x="779.0500000000001" y="1012.27"/>
      <point x="623.1899999999999" y="1012.27" type="curve" smooth="yes"/>
      <point x="464.3916666666667" y="1012.27"/>
      <point x="398.375" y="919.865"/>
      <point x="372.57166666666666" y="800.37" type="curve"/>
      <point x="320.8183333333333" y="800.37" type="line"/>
      <point x="369.25166666666667" y="668.5833333333334" type="line"/>
      <point x="384.07166666666666" y="728.75"/>
      <point x="425.54833333333335" y="773.4733333333334"/>
      <point x="491.6083333333333" y="773.4733333333334" type="curve" smooth="yes"/>
      <point x="568.9383333333334" y="773.4733333333334"/>
      <point x="594.2916666666666" y="722.025"/>
      <point x="594.2916666666666" y="633.4366666666666" type="curve" smooth="yes"/>
    </contour>
  </outline>
</glyph>
<glyph name="n" format="2">
  <advance width="984.0150000000001"/>
  <unicode hex="006E"/>
  <anchor x="492.83333333333337" y="0.0" name="bottom"/>
  <anchor x="492.83333333333337" y="993.225" name="top"/>
  <outline>
    <contour>
      <point x="615.6283333333334" y="0.0" type="line"/>
      <point x="903.3866666666667" y="0.0" type="line"/>
      <point x="903.3866666666667" y="675.3033333333334" type="line" smooth="yes"/>
      <point x="903.3866666666667" y="898.815"/>
      <point x="823.145" y="1012.27"/>
      <point x="637.1" y="1012.27" type="curve" smooth="yes"/>
      <point x="469.19500000000005" y="1012.27"/>
      <point x="400.57166666666666" y="918.4716666666666"/>
      <point x="374.6616666666667" y="800.37" type="curve"/>
      <point x="320.12166666666667" y="800.37" type="line"/>
      <point x="371.3416666666667" y="668.735" type="line"/>
      <point x="388.3583333333333" y="728.0533333333333"/>
      <point x="432.5933333333333" y="773.4733333333334"/>
      <point x="503.5183333333333" y="773.4733333333334" type="curve" smooth="yes"/>
      <point x="588.1683333333333" y="773.4733333333334"/>
      <point x="615.6283333333334" y="720.025"/>
      <point x="615.6283333333334" y="626.8299999999999" type="curve" smooth="yes"/>
    </contour>
    <contour>
      <point x="87.19" y="0.0" type="line"/>
      <point x="374.9483333333333" y="0.0" type="line"/>
      <point x="374.9483333333333" y="751.8916666666668" type="line"/>
      <point x="362.7683333333334" y="767.3133333333333" type="line"/>
      <point x="372.70666666666665" y="993.225" type="line"/>
      <point x="87.19" y="993.225" type="line"/>
    </contour>
  </outline>
</glyph>
<glyph name="o" format="2">
  <advance width="950.3516666666667"/>
  <unicode hex="006F"/>
  <anchor x="475.85" y="0.0" name="bottom"/>
  <anchor x="476.60833333333335" y="483.2883333333333" name="center"/>
  <anchor x="726.1216666666667" y="8.483333333333334" name="ogonek"/>
  <anchor x="475.85" y="993.225" name="top"/>
  <anchor x="928.3766666666666" y="993.225" name="topright"/>
  <outline>
    <contour>
      <point x="475.50166666666667" y="-23.78666666666667" type="curve" smooth="yes"/>
      <point x="750.1383333333333" y="-23.78666666666667"/>
      <point x="889.92" y="126.79833333333335"/>
      <point x="889.92" y="399.5466666666667" type="curve"/>
      <point x="889.92" y="591.15" type="line"/>
      <point x="889.92" y="865.8366666666667"/>
      <point x="749.4416666666667" y="1017.1633333333333"/>
      <point x="475.50166666666667" y="1017.1633333333333" type="curve" smooth="yes"/>
      <point x="201.41" y="1017.1633333333333"/>
      <point x="60.43166666666667" y="865.8366666666667"/>
      <point x="60.43166666666667" y="591.15" type="curve"/>
      <point x="60.43166666666667" y="399.5466666666667" type="line"/>
      <point x="60.43166666666667" y="126.79833333333335"/>
      <point x="200.7133333333333" y="-23.78666666666667"/>
    </contour>
    <contour>
      <point x="475.50166666666667" y="206.78500000000003" type="curve" smooth="yes"/>
      <point x="387.6383333333333" y="206.78500000000003"/>
      <point x="346.9483333333333" y="265.12666666666667"/>
      <point x="346.9483333333333" y="378.3383333333333" type="curve" smooth="yes"/>
      <point x="346.9483333333333" y="612.7066666666666" type="line" smooth="yes"/>
      <point x="346.9483333333333" y="728.4016666666666"/>
      <point x="387.6383333333333" y="786.5916666666667"/>
      <point x="475.50166666666667" y="786.5916666666667" type="curve" smooth="yes"/>
      <point x="563.2133333333333" y="786.5916666666667"/>
      <point x="603.555" y="728.4016666666666"/>
      <point x="603.555" y="612.7066666666666" type="curve" smooth="yes"/>
      <point x="603.555" y="378.3383333333333" type="line" smooth="yes"/>
      <point x="603.555" y="265.12666666666667"/>
      <point x="563.2133333333333" y="206.78500000000003"/>
    </contour>
  </outline>
</glyph>
<glyph name="p" format="2">
  <advance width="979.6833333333334"/>
  <unicode hex="0070"/>
  <anchor x="495.6366666666667" y="0.0" name="bottom"/>
  <anchor x="495.6366666666667" y="993.225" name="top"/>
  <outline>
    <contour>
      <point x="623.6616666666666" y="-19.045" type="curve" smooth="yes"/>
      <point x="827.0383333333333" y="-19.045"/>
      <point x="916.5100000000001" y="124.16333333333333"/>
      <point x="916.5100000000001" y="402.0466666666667" type="curve" smooth="yes"/>
      <point x="916.5100000000001" y="594.83" type="line" smooth="yes"/>
      <point x="916.5100000000001" y="870.2133333333334"/>
      <point x="825.8416666666667" y="1012.27"/>
      <point x="629.2516666666667" y="1012.27" type="curve" smooth="yes"/>
      <point x="465.24000000000007" y="1012.27"/>
      <point x="398.7233333333333" y="919.5166666666667"/>
      <point x="374.6616666666667" y="800.37" type="curve"/>
      <point x="302.43" y="800.37" type="line"/>
      <point x="365.85833333333335" y="672.9316666666667" type="line"/>
      <point x="383.02666666666664" y="734.84"/>
      <point x="432.4583333333333" y="780.6083333333333"/>
      <point x="504.0183333333334" y="780.6083333333333" type="curve" smooth="yes"/>
      <point x="590.0166666666667" y="780.6083333333333"/>
      <point x="627.9033333333333" y="724.7666666666668"/>
      <point x="627.9033333333333" y="611.375" type="curve" smooth="yes"/>
      <point x="627.9033333333333" y="391.44" type="line" smooth="yes"/>
      <point x="627.9033333333333" y="277.4866666666667"/>
      <point x="588.5166666666667" y="220.1"/>
      <point x="503.1700000000001" y="220.1" type="curve" smooth="yes"/>
      <point x="416.77833333333336" y="220.1"/>
      <point x="371.1616666666667" y="277.5316666666667"/>
      <point x="369.4033333333333" y="380.6816666666667" type="curve"/>
      <point x="310.3466666666667" y="194.59666666666666" type="line"/>
      <point x="377.85833333333335" y="194.59666666666666" type="line"/>
      <point x="402.17833333333334" y="68.905"/>
      <point x="471.605" y="-19.045"/>
    </contour>
    <contour>
      <point x="87.19" y="-347.0" type="line"/>
      <point x="373.25166666666667" y="-347.0" type="line"/>
      <point x="373.25166666666667" y="-39.10666666666667" type="line"/>
      <point x="367.01000000000005" y="233.61333333333334" type="line"/>
      <point x="369.4033333333333" y="274.92833333333334" type="line"/>
      <point x="369.4033333333333" y="719.7183333333334" type="line"/>
      <point x="361.42" y="738.3299999999999" type="line"/>
      <point x="372.70666666666665" y="993.225" type="line"/>
      <point x="87.19" y="993.225" type="line"/>
    </contour>
  </outline>
</glyph>
<glyph name="q" format="2">
  <advance width="980.0316666666666"/>
  <unicode hex="0071"/>
  <anchor x="484.54666666666674" y="0.0" name="bottom"/>
  <anchor x="484.54666666666674" y="993.225" name="top"/>
  <outline>
    <contour>
      <point x="350.4316666666666" y="-19.045" type="curve" smooth="yes"/>
      <point x="512.2466666666667" y="-19.045"/>
      <point x="578.46" y="75.79833333333333"/>
      <point x="601.825" y="194.59666666666666" type="curve"/>
      <point x="681.4166666666666" y="194.59666666666666" type="line"/>
      <point x="613.825" y="326.7316666666667" type="line"/>
      <point x="595.96" y="264.12666666666667"/>
      <point x="549.3149999999999" y="220.1"/>
      <point x="479.49666666666667" y="220.1" type="curve" smooth="yes"/>
      <point x="391.4083333333333" y="220.1"/>
      <point x="351.78000000000003" y="276.29"/>
      <point x="351.78000000000003" y="389.8333333333333" type="curve" smooth="yes"/>
      <point x="351.78000000000003" y="610.9033333333333" type="line" smooth="yes"/>
      <point x="351.78000000000003" y="724.2666666666667"/>
      <point x="391.71166666666664" y="780.6083333333333"/>
      <point x="476.755" y="780.6083333333333" type="curve" smooth="yes"/>
      <point x="562.1466666666666" y="780.6083333333333"/>
      <point x="607.7633333333333" y="723.2833333333333"/>
      <point x="610.28" y="620.0266666666666" type="curve"/>
      <point x="681.1183333333333" y="800.37" type="line"/>
      <point x="605.37" y="800.37" type="line"/>
      <point x="580.3533333333334" y="925.0166666666667"/>
      <point x="510.92666666666673" y="1012.27"/>
      <point x="356.5216666666667" y="1012.27" type="curve" smooth="yes"/>
      <point x="152.60000000000002" y="1012.27"/>
      <point x="63.17333333333333" y="867.3199999999999"/>
      <point x="63.17333333333333" y="591.1783333333334" type="curve" smooth="yes"/>
      <point x="63.17333333333333" y="394.9116666666667" type="line" smooth="yes"/>
      <point x="63.17333333333333" y="122.315"/>
      <point x="154.19" y="-19.045"/>
    </contour>
    <contour>
      <point x="606.78" y="-347.0" type="line"/>
      <point x="892.8416666666667" y="-347.0" type="line"/>
      <point x="892.8416666666667" y="993.225" type="line"/>
      <point x="606.9766666666667" y="993.225" type="line"/>
      <point x="616.87" y="764.1066666666667" type="line"/>
      <point x="610.28" y="729.1233333333333" type="line"/>
      <point x="610.28" y="283.5466666666667" type="line"/>
      <point x="612.6733333333333" y="226.55666666666667" type="line"/>
      <point x="606.78" y="-39.10666666666667" type="line"/>
    </contour>
  </outline>
</glyph>
<glyph name="r" format="2">
  <advance width="677.5983333333334"/>
  <unicode hex="0072"/>
  <anchor x="231.04666666666668" y="0.0" name="bottom"/>
  <anchor x="360.61333333333334" y="993.225" name="top"/>
  <outline>
    <contour>
      <point x="370.99333333333334" y="570.2733333333333" type="line"/>
      <point x="404.12833333333333" y="651.9616666666667"/>
      <point x="479.65000000000003" y="697.73"/>
      <point x="587.8516666666667" y="697.73" type="curve" smooth="yes"/>
      <point x="615.1266666666667" y="697.73"/>
      <point x="643.3233333333334" y="694.9716666666666"/>
      <point x="662.0366666666666" y="691.0616666666666" type="curve"/>
      <point x="651.1433333333333" y="999.7083333333333" type="line"/>
      <point x="634.7333333333333" y="1002.4666666666667"/>
      <point x="620.61" y="1004.725"/>
      <point x="603.2733333333333" y="1004.725" type="curve" smooth="yes"/>
      <point x="452.76166666666666" y="1004.725"/>
      <point x="378.26166666666666" y="912.4100000000001"/>
      <point x="354.53166666666664" y="761.37" type="curve"/>
      <point x="282.165" y="761.37" type="line"/>
    </contour>
    <contour>
      <point x="87.19" y="0.0" type="line"/>
      <point x="374.9483333333333" y="0.0" type="line"/>
      <point x="374.9483333333333" y="685.37" type="line"/>
      <point x="340.29" y="692.4983333333332" type="line"/>
      <point x="352.5766666666667" y="993.225" type="line"/>
      <point x="87.19" y="993.225" type="line"/>
    </contour>
  </outline>
</glyph>
<glyph name="s" format="2">
  <advance width="782.1433333333333"/>
  <unicode hex="0073"/>
  <anchor x="386.77666666666664" y="0.0" name="bottom"/>
  <anchor x="384.2316666666667" y="993.225" name="top"/>
  <outline>
    <contour>
      <point x="371.24833333333333" y="-19.545" type="curve" smooth="yes"/>
      <point x="625.2783333333333" y="-19.545"/>
      <point x="745.425" y="85.27"/>
      <point x="745.425" y="285.4733333333333" type="curve" smooth="yes"/>
      <point x="745.425" y="298.71999999999997" type="line" smooth="yes"/>
      <point x="745.425" y="463.625"/>
      <point x="667.8066666666667" y="525.5350000000001"/>
      <point x="482.26166666666666" y="589.49" type="curve" smooth="yes"/>
      <point x="359.17833333333334" y="633.0233333333333"/>
      <point x="317.555" y="657.8766666666667"/>
      <point x="317.555" y="708.4483333333334" type="curve" smooth="yes"/>
      <point x="317.555" y="713.875" type="line" smooth="yes"/>
      <point x="317.555" y="757.4016666666666"/>
      <point x="347.3183333333333" y="781.985"/>
      <point x="440.3566666666667" y="781.985" type="curve" smooth="yes"/>
      <point x="543.07" y="781.985"/>
      <point x="634.7333333333333" y="751.7716666666666"/>
      <point x="708.52" y="716.0416666666666" type="curve"/>
      <point x="687.5983333333334" y="946.6016666666667" type="line"/>
      <point x="622.8733333333333" y="982.1633333333333"/>
      <point x="522.2266666666667" y="1013.27"/>
      <point x="398.44" y="1013.27" type="curve" smooth="yes"/>
      <point x="163.33166666666665" y="1013.27"/>
      <point x="39.02166666666666" y="916.0450000000001"/>
      <point x="39.02166666666666" y="728.8866666666667" type="curve" smooth="yes"/>
      <point x="39.02166666666666" y="717.5666666666667" type="line" smooth="yes"/>
      <point x="39.02166666666666" y="572.87"/>
      <point x="105.15666666666668" y="491.49333333333334"/>
      <point x="288.06666666666666" y="425.7966666666667" type="curve" smooth="yes"/>
      <point x="426.01500000000004" y="372.02166666666665"/>
      <point x="463.605" y="353.34833333333336"/>
      <point x="463.605" y="300.24833333333333" type="curve" smooth="yes"/>
      <point x="463.605" y="293.15333333333336" type="line" smooth="yes"/>
      <point x="463.605" y="244.10999999999999"/>
      <point x="430.2183333333333" y="217.98166666666665"/>
      <point x="337.87666666666667" y="217.98166666666665" type="curve" smooth="yes"/>
      <point x="223.39333333333332" y="217.98166666666665"/>
      <point x="127.775" y="253.13333333333335"/>
      <point x="44.74666666666667" y="291.71166666666664" type="curve"/>
      <point x="65.66833333333332" y="43.623333333333335" type="line"/>
      <point x="137.725" y="10.32"/>
      <point x="241.28166666666667" y="-19.545"/>
    </contour>
  </outline>
</glyph>
<glyph name="t" format="2">
  <advance width="686.3333333333334"/>
  <unicode hex="0074"/>
  <anchor x="379.725" y="0.0" name="bottom"/>
  <anchor x="344.0233333333333" y="496.93833333333333" name="center"/>
  <anchor x="272.63666666666666" y="1219.09" name="top"/>
  <anchor x="505.39500000000004" y="1429.2983333333334" name="topright"/>
  <outline>
    <contour>
      <point x="426.28166666666664" y="-18.241666666666667" type="curve" smooth="yes"/>
      <point x="514.5183333333334" y="-18.241666666666667"/>
      <point x="588.0466666666666" y="-1.1516666666666668"/>
      <point x="643.62" y="25.78666666666667" type="curve"/>
      <point x="665.0866666666667" y="264.1616666666667" type="line"/>
      <point x="624.9633333333334" y="247.88666666666666"/>
      <point x="577.6883333333334" y="235.78"/>
      <point x="527.8516666666667" y="235.78" type="curve" smooth="yes"/>
      <point x="436.65" y="235.78"/>
      <point x="406.20666666666665" y="270.1166666666667"/>
      <point x="406.20666666666665" y="350.36833333333334" type="curve" smooth="yes"/>
      <point x="406.20666666666665" y="922.8816666666668" type="line"/>
      <point x="122.34166666666667" y="922.8816666666668" type="line"/>
      <point x="122.34166666666667" y="294.13666666666666" type="line" smooth="yes"/>
      <point x="122.34166666666667" y="87.99499999999999"/>
      <point x="207.45999999999998" y="-18.241666666666667"/>
    </contour>
    <contour>
      <point x="11.213333333333333" y="761.4233333333334" type="line"/>
      <point x="634.6033333333334" y="761.4233333333334" type="line"/>
      <point x="656.0699999999999" y="990.04" type="line"/>
      <point x="11.213333333333333" y="990.04" type="line"/>
    </contour>
    <contour>
      <point x="126.78" y="970.5566666666667" type="line"/>
      <point x="398.41999999999996" y="970.5566666666667" type="line"/>
      <point x="408.35833333333335" y="1244.6066666666666" type="line"/>
      <point x="126.28" y="1213.8366666666666" type="line"/>
    </contour>
  </outline>
</glyph>
<glyph name="u" format="2">
  <advance width="984.0150000000001"/>
  <unicode hex="0075"/>
  <anchor x="492.83333333333337" y="0.0" name="bottom"/>
  <anchor x="928.3416666666667" y="0.0" name="ogonek"/>
  <anchor x="492.83333333333337" y="993.225" name="top"/>
  <anchor x="973.15" y="993.225" name="topright"/>
  <outline>
    <contour>
      <point x="368.38666666666666" y="993.225" type="line"/>
      <point x="80.62833333333333" y="993.225" type="line"/>
      <point x="80.62833333333333" y="317.9216666666667" type="line" smooth="yes"/>
      <point x="80.62833333333333" y="94.41"/>
      <point x="160.87" y="-19.045"/>
      <point x="346.915" y="-19.045" type="curve" smooth="yes"/>
      <point x="514.82" y="-19.045"/>
      <point x="583.4433333333334" y="74.75333333333333"/>
      <point x="609.3533333333334" y="192.855" type="curve"/>
      <point x="663.8933333333333" y="192.855" type="line"/>
      <point x="612.6733333333334" y="324.49" type="line"/>
      <point x="595.6566666666666" y="265.1716666666667"/>
      <point x="551.4216666666666" y="219.75166666666667"/>
      <point x="480.4966666666666" y="219.75166666666667" type="curve" smooth="yes"/>
      <point x="395.84666666666664" y="219.75166666666667"/>
      <point x="368.38666666666666" y="273.20000000000005"/>
      <point x="368.38666666666666" y="366.39500000000004" type="curve" smooth="yes"/>
    </contour>
    <contour>
      <point x="896.825" y="993.225" type="line"/>
      <point x="609.0666666666666" y="993.225" type="line"/>
      <point x="609.0666666666666" y="241.33333333333334" type="line"/>
      <point x="621.2466666666667" y="225.91166666666666" type="line"/>
      <point x="611.3083333333333" y="0.0" type="line"/>
      <point x="896.825" y="0.0" type="line"/>
    </contour>
  </outline>
</glyph>
<glyph name="v" format="2">
  <advance width="912.7283333333332"/>
  <unicode hex="0076"/>
  <anchor x="456.44000000000005" y="0.0" name="bottom"/>
  <anchor x="456.44000000000005" y="993.225" name="top"/>
  <outline>
    <contour>
      <point x="468.37833333333333" y="190.0933333333333" type="line"/>
      <point x="447.1366666666666" y="190.0933333333333" type="line"/>
      <point x="313.9766666666667" y="993.225" type="line"/>
      <point x="21.173333333333332" y="993.225" type="line"/>
      <point x="225.3233333333333" y="0.0" type="line"/>
      <point x="688.4499999999999" y="0.0" type="line"/>
      <point x="891.5550000000001" y="993.225" type="line"/>
      <point x="601.5383333333334" y="993.225" type="line"/>
    </contour>
  </outline>
</glyph>
<glyph name="w" format="2">
  <advance width="1369.7516666666666"/>
  <unicode hex="0077"/>
  <anchor x="685.3" y="0.0" name="bottom"/>
  <anchor x="685.3" y="993.225" name="top"/>
  <outline>
    <contour>
      <point x="182.54833333333335" y="0.0" type="line"/>
      <point x="589.9033333333334" y="0.0" type="line"/>
      <point x="665.93" y="627.085" type="line"/>
      <point x="680.1933333333333" y="756.5300000000001" type="line"/>
      <point x="692.9966666666667" y="756.5300000000001" type="line"/>
      <point x="706.715" y="627.085" type="line"/>
      <point x="781.0" y="0.0" type="line"/>
      <point x="1187.7033333333331" y="0.0" type="line"/>
      <point x="1342.6683333333333" y="993.225" type="line"/>
      <point x="1062.1799999999998" y="993.225" type="line"/>
      <point x="966.8450000000001" y="203.51500000000001" type="line"/>
      <point x="951.6483333333334" y="203.51500000000001" type="line"/>
      <point x="855.2966666666667" y="971.36" type="line"/>
      <point x="516.5" y="971.36" type="line"/>
      <point x="420.49666666666667" y="203.51500000000001" type="line"/>
      <point x="404.1033333333333" y="203.51500000000001" type="line"/>
      <point x="312.66166666666663" y="993.225" type="line"/>
      <point x="27.083333333333332" y="993.225" type="line"/>
    </contour>
  </outline>
</glyph>
<glyph name="x" format="2">
  <advance width="913.01"/>
  <unicode hex="0078"/>
  <anchor x="456.755" y="0.0" name="bottom"/>
  <anchor x="456.755" y="993.225" name="top"/>
  <outline>
    <contour>
      <point x="20.038333333333334" y="0.0" type="line"/>
      <point x="316.7966666666666" y="0.0" type="line"/>
      <point x="449.01333333333326" y="374.3233333333333" type="line"/>
      <point x="465.1483333333333" y="374.3233333333333" type="line"/>
      <point x="596.2133333333334" y="0.0" type="line"/>
      <point x="892.9716666666666" y="0.0" type="line"/>
      <point x="669.8883333333333" y="560.4783333333334" type="line"/>
      <point x="669.8883333333333" y="475.70166666666665" type="line"/>
      <point x="887.9716666666666" y="993.225" type="line"/>
      <point x="591.0166666666667" y="993.225" type="line"/>
      <point x="465.1483333333333" y="636.6033333333334" type="line"/>
      <point x="449.01333333333326" y="636.6033333333334" type="line"/>
      <point x="322.3416666666667" y="993.225" type="line"/>
      <point x="25.038333333333334" y="993.225" type="line"/>
      <point x="243.46999999999997" y="475.70166666666665" type="line"/>
      <point x="243.46999999999997" y="560.4783333333334" type="line"/>
    </contour>
  </outline>
</glyph>
<glyph name="y" format="2">
  <advance width="913.0766666666666"/>
  <unicode hex="0079"/>
  <anchor x="658.3383333333334" y="-148.11166666666668" name="bottom"/>
  <anchor x="456.94000000000005" y="993.225" name="top"/>
  <outline>
    <contour>
      <point x="587.375" y="230.89666666666665" type="line"/>
      <point x="436.06333333333333" y="230.89666666666665" type="line"/>
      <point x="312.9316666666667" y="993.225" type="line"/>
      <point x="21.173333333333332" y="993.225" type="line"/>
      <point x="227.86833333333334" y="39.151666666666664" type="line"/>
      <point x="556.2733333333333" y="39.151666666666664" type="line"/>
      <point x="416.3266666666667" y="135.45666666666665" type="line"/>
      <point x="299.5683333333333" y="-347.0" type="line"/>
      <point x="581.6916666666667" y="-347.0" type="line"/>
      <point x="891.9033333333333" y="993.225" type="line"/>
      <point x="601.145" y="993.225" type="line"/>
      <point x="441.4283333333333" y="188.4633333333333" type="line"/>
    </contour>
  </outline>
</glyph>
<glyph name="z" format="2">
  <advance width="802.9466666666667"/>
  <unicode hex="007A"/>
  <anchor x="401.32166666666666" y="0.0" name="bottom"/>
  <anchor x="401.625" y="496.93833333333333" name="center"/>
  <anchor x="401.32166666666666" y="993.225" name="top"/>
  <outline>
    <contour>
      <point x="749.745" y="242.69000000000003" type="line"/>
      <point x="374.1516666666667" y="242.69000000000003" type="line"/>
      <point x="745.2" y="772.3499999999999" type="line"/>
      <point x="745.2" y="993.225" type="line"/>
      <point x="56.24666666666667" y="993.225" type="line"/>
      <point x="56.24666666666667" y="752.3833333333333" type="line"/>
      <point x="422.20500000000004" y="752.3833333333333" type="line"/>
      <point x="53.05" y="222.72333333333333" type="line"/>
      <point x="53.05" y="0.0" type="line"/>
      <point x="749.745" y="0.0" type="line"/>
    </contour>
  </outline>
</glyph>
<glyph name="braceleft" format="2">
  <advance width="625.805"/>
  <unicode hex="007B"/>
  <outline>
    <contour>
      <point x="585.7433333333333" y="1336.4383333333333" type="line"/>
      <point x="537.3216666666667" y="1348.7416666666666"/>
      <point x="486.94499999999994" y="1357.59"/>
      <point x="437.90000000000003" y="1357.59" type="curve" smooth="yes"/>
      <point x="241.94333333333333" y="1357.59"/>
      <point x="146.0716666666667" y="1268.8816666666667"/>
      <point x="146.0716666666667" y="1052.1833333333334" type="curve" smooth="yes"/>
      <point x="146.0716666666667" y="988.0383333333334"/>
      <point x="160.07166666666666" y="847.2633333333333"/>
      <point x="160.07166666666666" y="794.5733333333333" type="curve" smooth="yes"/>
      <point x="160.07166666666666" y="717.535"/>
      <point x="128.5716666666667" y="680.985"/>
      <point x="44.64" y="674.7266666666667" type="curve"/>
      <point x="44.64" y="434.245" type="line"/>
      <point x="128.5716666666667" y="427.835"/>
      <point x="160.07166666666666" y="391.6333333333333"/>
      <point x="160.07166666666666" y="314.4433333333333" type="curve" smooth="yes"/>
      <point x="160.07166666666666" y="262.2083333333333"/>
      <point x="146.0716666666667" y="120.82666666666665"/>
      <point x="146.0716666666667" y="54.72666666666667" type="curve" smooth="yes"/>
      <point x="146.0716666666667" y="-162.66833333333332"/>
      <point x="241.94333333333333" y="-251.52833333333336"/>
      <point x="437.90000000000003" y="-251.52833333333336" type="curve" smooth="yes"/>
      <point x="486.94499999999994" y="-251.52833333333336"/>
      <point x="536.2766666666666" y="-243.02833333333334"/>
      <point x="585.7433333333333" y="-230.02833333333334" type="curve"/>
      <point x="585.7433333333333" y="-22.103333333333335" type="line"/>
      <point x="567.8616666666667" y="-27.46833333333333"/>
      <point x="545.525" y="-31.53"/>
      <point x="521.7333333333333" y="-31.53" type="curve" smooth="yes"/>
      <point x="447.79" y="-31.53"/>
      <point x="419.86333333333334" y="3.1999999999999984"/>
      <point x="419.86333333333334" y="82.52499999999999" type="curve" smooth="yes"/>
      <point x="419.86333333333334" y="130.38333333333333"/>
      <point x="433.36333333333334" y="266.675"/>
      <point x="433.36333333333334" y="320.685" type="curve" smooth="yes"/>
      <point x="433.36333333333334" y="450.47166666666664"/>
      <point x="395.37999999999994" y="533.2583333333333"/>
      <point x="244.8733333333333" y="552.6066666666667" type="curve"/>
      <point x="265.3233333333333" y="536.77" type="line"/>
      <point x="265.3233333333333" y="560.2583333333333" type="line"/>
      <point x="393.5316666666667" y="582.8033333333333"/>
      <point x="433.36333333333334" y="658.5450000000001"/>
      <point x="433.36333333333334" y="787.2866666666667" type="curve" smooth="yes"/>
      <point x="433.36333333333334" y="840.8416666666667"/>
      <point x="419.86333333333334" y="976.6783333333333"/>
      <point x="419.86333333333334" y="1024.5366666666666" type="curve" smooth="yes"/>
      <point x="419.86333333333334" y="1103.71"/>
      <point x="447.44166666666666" y="1138.44"/>
      <point x="520.0366666666666" y="1138.44" type="curve" smooth="yes"/>
      <point x="544.6766666666666" y="1138.44"/>
      <point x="567.5133333333333" y="1134.3783333333333"/>
      <point x="585.7433333333333" y="1129.165" type="curve"/>
    </contour>
  </outline>
</glyph>
<glyph name="bar" format="2">
  <advance width="476.0916666666667"/>
  <unicode hex="007C"/>
  <outline>
    <contour>
      <point x="360.1266666666667" y="-412.6116666666667" type="line"/>
      <point x="360.1266666666667" y="1423.5" type="line"/>
      <point x="115.965" y="1423.5" type="line"/>
      <point x="115.965" y="-412.6116666666667" type="line"/>
    </contour>
  </outline>
</glyph>
<glyph name="braceright" format="2">
  <advance width="625.805"/>
  <unicode hex="007D"/>
  <outline>
    <contour>
      <point x="40.06166666666667" y="1336.4383333333333" type="curve"/>
      <point x="40.06166666666667" y="1129.165" type="line"/>
      <point x="58.291666666666664" y="1134.3783333333333"/>
      <point x="81.12833333333333" y="1138.44"/>
      <point x="105.76833333333335" y="1138.44" type="curve" smooth="yes"/>
      <point x="178.36333333333334" y="1138.44"/>
      <point x="205.94166666666666" y="1103.71"/>
      <point x="205.94166666666666" y="1024.5366666666666" type="curve" smooth="yes"/>
      <point x="205.94166666666666" y="976.6783333333333"/>
      <point x="192.44166666666666" y="840.8416666666667"/>
      <point x="192.44166666666666" y="787.2866666666667" type="curve" smooth="yes"/>
      <point x="192.44166666666666" y="658.5450000000001"/>
      <point x="232.27333333333334" y="582.8033333333333"/>
      <point x="360.4816666666667" y="560.2583333333333" type="curve"/>
      <point x="360.4816666666667" y="536.77" type="line"/>
      <point x="380.9316666666667" y="552.6066666666667" type="line"/>
      <point x="230.425" y="533.2583333333333"/>
      <point x="192.44166666666666" y="450.47166666666664"/>
      <point x="192.44166666666666" y="320.685" type="curve" smooth="yes"/>
      <point x="192.44166666666666" y="266.675"/>
      <point x="205.94166666666666" y="130.38333333333333"/>
      <point x="205.94166666666666" y="82.52499999999999" type="curve" smooth="yes"/>
      <point x="205.94166666666666" y="3.1999999999999984"/>
      <point x="178.015" y="-31.53"/>
      <point x="104.07166666666666" y="-31.53" type="curve" smooth="yes"/>
      <point x="80.28" y="-31.53"/>
      <point x="57.94333333333334" y="-27.46833333333333"/>
      <point x="40.06166666666667" y="-22.103333333333335" type="curve"/>
      <point x="40.06166666666667" y="-230.02833333333334" type="line"/>
      <point x="89.52833333333334" y="-243.02833333333334"/>
      <point x="138.85999999999999" y="-251.52833333333336"/>
      <point x="187.905" y="-251.52833333333336" type="curve" smooth="yes"/>
      <point x="383.8616666666667" y="-251.52833333333336"/>
      <point x="479.7333333333333" y="-162.66833333333332"/>
      <point x="479.7333333333333" y="54.72666666666667" type="curve" smooth="yes"/>
      <point x="479.7333333333333" y="120.82666666666665"/>
      <point x="465.73333333333335" y="262.2083333333333"/>
      <point x="465.73333333333335" y="314.4433333333333" type="curve" smooth="yes"/>
      <point x="465.73333333333335" y="391.6333333333333"/>
      <point x="497.2333333333333" y="427.835"/>
      <point x="581.165" y="434.245" type="curve"/>
      <point x="581.165" y="674.7266666666667" type="line"/>
      <point x="497.2333333333333" y="680.985"/>
      <point x="465.73333333333335" y="717.535"/>
      <point x="465.73333333333335" y="794.5733333333333" type="curve" smooth="yes"/>
      <point x="465.73333333333335" y="847.2633333333333"/>
      <point x="479.7333333333333" y="988.0383333333334"/>
      <point x="479.7333333333333" y="1052.1833333333334" type="curve" smooth="yes"/>
      <point x="479.7333333333333" y="1268.8816666666667"/>
      <point x="383.8616666666667" y="1357.59"/>
      <point x="187.905" y="1357.59" type="curve" smooth="yes"/>
      <point x="138.85999999999999" y="1357.59"/>
      <point x="88.48333333333332" y="1348.7416666666666"/>
    </contour>
  </outline>
</glyph>
<glyph name="asciitilde" format="2">
  <advance width="973.44"/>
  <unicode hex="007E"/>
  <outline>
    <contour>
      <point x="660.4783333333332" y="484.9766666666667" type="curve" smooth="yes"/>
      <point x="830.7833333333333" y="484.9766666666667"/>
      <point x="895.2333333333333" y="593.86"/>
      <point x="895.2333333333333" y="763.7433333333333" type="curve" smooth="yes"/>
      <point x="895.2333333333333" y="826.1266666666667" type="line"/>
      <point x="691.2016666666667" y="826.1266666666667" type="line"/>
      <point x="691.2016666666667" y="818.0316666666666" type="line" smooth="yes"/>
      <point x="689.8083333333333" y="758.6833333333333"/>
      <point x="675.9433333333333" y="727.47"/>
      <point x="620.2016666666666" y="727.47" type="curve" smooth="yes"/>
      <point x="542.6966666666667" y="727.47"/>
      <point x="437.87166666666667" y="798.1766666666666"/>
      <point x="312.1133333333333" y="798.1766666666666" type="curve" smooth="yes"/>
      <point x="142.005" y="798.1766666666666"/>
      <point x="78.055" y="692.0633333333333"/>
      <point x="78.055" y="518.9549999999999" type="curve" smooth="yes"/>
      <point x="78.055" y="456.33" type="line"/>
      <point x="281.935" y="456.33" type="line"/>
      <point x="281.935" y="465.56" type="line" smooth="yes"/>
      <point x="282.98" y="525.1500000000001"/>
      <point x="297.84499999999997" y="555.1833333333333"/>
      <point x="352.935" y="555.1833333333333" type="curve" smooth="yes"/>
      <point x="431.6983333333333" y="555.1833333333333"/>
      <point x="536.9616666666667" y="484.9766666666667"/>
    </contour>
  </outline>
</glyph>
<glyph name="exclamdown" format="2">
  <advance width="468.5866666666667"/>
  <unicode hex="00A1"/>
  <outline>
    <contour>
      <point x="351.94166666666666" y="574.2516666666667" type="line"/>
      <point x="116.99333333333334" y="574.2516666666667" type="line"/>
      <point x="81.10499999999999" y="-284.775" type="line"/>
      <point x="387.4816666666667" y="-284.775" type="line"/>
    </contour>
    <contour>
      <point x="236.68666666666667" y="1019.3433333333334" type="curve" smooth="yes"/>
      <point x="132.33666666666667" y="1019.3433333333334"/>
      <point x="84.35833333333333" y="958.9716666666666"/>
      <point x="84.35833333333333" y="854.8466666666667" type="curve" smooth="yes"/>
      <point x="84.35833333333333" y="840.9983333333333" type="line" smooth="yes"/>
      <point x="84.35833333333333" y="738.2216666666666"/>
      <point x="132.33666666666667" y="676.805"/>
      <point x="236.68666666666667" y="676.805" type="curve" smooth="yes"/>
      <point x="338.68833333333333" y="676.805"/>
      <point x="389.36333333333334" y="738.2216666666666"/>
      <point x="389.36333333333334" y="840.9983333333333" type="curve" smooth="yes"/>
      <point x="389.36333333333334" y="854.8466666666667" type="line" smooth="yes"/>
      <point x="389.36333333333334" y="958.9716666666666"/>
      <point x="338.68833333333333" y="1019.3433333333334"/>
    </contour>
  </outline>
</glyph>
<glyph name="cent" format="2">
  <advance width="754.4066666666666"/>
  <unicode hex="00A2"/>
  <anchor x="417.11333333333334" y="0.0" name="bottom"/>
  <anchor x="417.11333333333334" y="993.225" name="top"/>
  <outline>
    <contour>
      <point x="562.8183333333334" y="869.345" type="line"/>
      <point x="562.8183333333334" y="1169.82" type="line"/>
      <point x="318.825" y="1169.82" type="line"/>
      <point x="318.825" y="869.345" type="line"/>
    </contour>
    <contour>
      <point x="562.8183333333334" y="-186.14000000000001" type="line"/>
      <point x="562.8183333333334" y="140.34666666666664" type="line"/>
      <point x="318.825" y="140.34666666666664" type="line"/>
      <point x="318.825" y="-186.14000000000001" type="line"/>
    </contour>
    <component base="c"/>
  </outline>
</glyph>
<glyph name="sterling" format="2">
  <advance width="902.2266666666667"/>
  <unicode hex="00A3"/>
  <outline>
    <contour>
      <point x="55.98833333333333" y="567.4033333333333" type="line"/>
      <point x="772.98" y="567.4033333333333" type="line"/>
      <point x="785.7666666666667" y="766.0016666666667" type="line"/>
      <point x="68.77499999999999" y="766.0016666666667" type="line"/>
    </contour>
    <contour>
      <point x="309.2833333333333" y="255.21833333333336" type="line"/>
      <point x="309.2833333333333" y="264.96000000000004" type="line"/>
      <point x="435.73999999999995" y="296.34666666666664"/>
      <point x="496.01" y="353.295"/>
      <point x="496.01" y="496.9333333333334" type="curve" smooth="yes"/>
      <point x="496.01" y="620.8316666666667"/>
      <point x="450.7183333333333" y="774.6616666666667"/>
      <point x="450.7183333333333" y="904.015" type="curve" smooth="yes"/>
      <point x="450.7183333333333" y="998.0466666666666"/>
      <point x="488.77333333333337" y="1049.1583333333335"/>
      <point x="620.8233333333333" y="1049.1583333333335" type="curve" smooth="yes"/>
      <point x="687.9916666666667" y="1049.1583333333335"/>
      <point x="750.7666666666667" y="1039.2933333333333"/>
      <point x="816.7833333333333" y="1020.3499999999999" type="curve"/>
      <point x="797.2099999999999" y="1266.1466666666668" type="line"/>
      <point x="727.0916666666667" y="1288.315"/>
      <point x="634.3666666666667" y="1302.2866666666666"/>
      <point x="541.6416666666667" y="1302.2866666666666" type="curve" smooth="yes"/>
      <point x="262.96" y="1302.2866666666666"/>
      <point x="148.88666666666666" y="1182.6233333333332"/>
      <point x="148.88666666666666" y="951.3533333333334" type="curve" smooth="yes"/>
      <point x="148.88666666666666" y="805.32"/>
      <point x="196.875" y="633.3316666666667"/>
      <point x="196.72333333333333" y="492.9616666666667" type="curve" smooth="yes"/>
      <point x="196.72333333333333" y="360.27833333333336"/>
      <point x="166.53833333333333" y="303.4033333333333"/>
      <point x="97.45" y="263.0783333333333" type="curve" smooth="yes"/>
      <point x="63.98833333333334" y="245.84166666666667" type="line"/>
      <point x="63.98833333333334" y="0.0" type="line"/>
      <point x="854.4966666666667" y="0.0" type="line"/>
      <point x="854.4966666666667" y="255.21833333333336" type="line"/>
    </contour>
  </outline>
</glyph>
<glyph name="currency" format="2">
  <advance width="1006.6683333333333"/>
  <unicode hex="00A4"/>
  <outline>
    <contour>
      <point x="502.65999999999997" y="235.58333333333334" type="curve" smooth="yes"/>
      <point x="742.3133333333334" y="235.58333333333334"/>
      <point x="866.2016666666667" y="364.88166666666666"/>
      <point x="866.2016666666667" y="598.1016666666667" type="curve" smooth="yes"/>
      <point x="866.2016666666667" y="638.5500000000001" type="line" smooth="yes"/>
      <point x="866.2016666666667" y="870.4216666666667"/>
      <point x="742.4649999999999" y="999.72"/>
      <point x="502.81166666666667" y="999.72" type="curve" smooth="yes"/>
      <point x="262.81" y="999.72"/>
      <point x="138.92166666666668" y="870.4216666666667"/>
      <point x="138.92166666666668" y="638.5500000000001" type="curve" smooth="yes"/>
      <point x="138.92166666666668" y="598.1016666666667" type="line" smooth="yes"/>
      <point x="138.92166666666668" y="364.88166666666666"/>
      <point x="262.6583333333333" y="235.58333333333334"/>
    </contour>
    <contour>
      <point x="502.81166666666667" y="446.885" type="curve" smooth="yes"/>
      <point x="427.67833333333334" y="446.885"/>
      <point x="392.59499999999997" y="493.7716666666667"/>
      <point x="392.59499999999997" y="589.77" type="curve" smooth="yes"/>
      <point x="392.59499999999997" y="646.5333333333334" type="line" smooth="yes"/>
      <point x="392.59499999999997" y="742.88"/>
      <point x="427.67833333333334" y="789.2666666666667"/>
      <point x="502.81166666666667" y="789.2666666666667" type="curve" smooth="yes"/>
      <point x="577.445" y="789.2666666666667"/>
      <point x="610.3316666666667" y="742.0316666666666"/>
      <point x="611.5283333333333" y="646.5333333333334" type="curve" smooth="yes"/>
      <point x="612.5283333333333" y="589.77" type="line" smooth="yes"/>
      <point x="613.725" y="493.7716666666667"/>
      <point x="577.445" y="446.885"/>
    </contour>
    <contour>
      <point x="774.9766666666667" y="469.23833333333334" type="line"/>
      <point x="618.1816666666667" y="322.88166666666666" type="line"/>
      <point x="799.9916666666667" y="108.88666666666667" type="line"/>
      <point x="965.9216666666666" y="243.26000000000002" type="line"/>
    </contour>
    <contour>
      <point x="392.88" y="328.27500000000003" type="line"/>
      <point x="233.49499999999998" y="468.49666666666667" type="line"/>
      <point x="41.24666666666666" y="243.26000000000002" type="line"/>
      <point x="206.32833333333335" y="108.88666666666667" type="line"/>
    </contour>
    <contour>
      <point x="223.20833333333331" y="770.655" type="line"/>
      <point x="386.79" y="908.225" type="line"/>
      <point x="206.525" y="1119.9783333333332" type="line"/>
      <point x="41.24666666666666" y="985.9533333333334" type="line"/>
    </contour>
    <contour>
      <point x="612.0916666666667" y="898.59" type="line"/>
      <point x="767.69" y="751.5366666666666" type="line"/>
      <point x="964.9216666666666" y="985.9533333333334" type="line"/>
      <point x="799.6433333333333" y="1119.9783333333332" type="line"/>
    </contour>
  </outline>
</glyph>
<glyph name="yen" format="2">
  <advance width="989.2950000000001"/>
  <unicode hex="00A5"/>
  <anchor x="494.3666666666667" y="0.0" name="bottom"/>
  <anchor x="494.3666666666667" y="1278.0" name="top"/>
  <anchor x="23.943333333333335" y="1278.0" name="topleft"/>
  <outline>
    <contour>
      <point x="552.6416666666667" y="509.7066666666666" type="line"/>
      <point x="894.7" y="509.7066666666666" type="line"/>
      <point x="907.245" y="685.95" type="line"/>
      <point x="594.7883333333333" y="685.95" type="line"/>
    </contour>
    <contour>
      <point x="99.14" y="395.2366666666667" type="line"/>
      <point x="86.24666666666667" y="222.73499999999999" type="line"/>
      <point x="894.7" y="222.73499999999999" type="line"/>
      <point x="907.245" y="395.2366666666667" type="line"/>
    </contour>
    <contour>
      <point x="380.63" y="685.95" type="line"/>
      <point x="99.14" y="685.95" type="line"/>
      <point x="86.24666666666667" y="509.7066666666666" type="line"/>
      <point x="424.97333333333336" y="509.7066666666666" type="line"/>
    </contour>
    <component base="Y" xOffset="3.943333333333334"/>
  </outline>
</glyph>
<glyph name="brokenbar" format="2">
  <advance width="477.485"/>
  <unicode hex="00A6"/>
  <outline>
    <contour>
      <point x="361.52" y="578.0333333333333" type="line"/>
      <point x="361.52" y="1423.5" type="line"/>
      <point x="115.965" y="1423.5" type="line"/>
      <point x="115.965" y="578.0333333333333" type="line"/>
    </contour>
    <contour>
      <point x="361.52" y="-412.6116666666667" type="line"/>
      <point x="361.52" y="438.0966666666667" type="line"/>
      <point x="115.965" y="438.0966666666667" type="line"/>
      <point x="115.965" y="-412.6116666666667" type="line"/>
    </contour>
  </outline>
</glyph>
<glyph name="section" format="2">
  <advance width="830.8283333333333"/>
  <unicode hex="00A7"/>
  <outline>
    <contour>
      <point x="455.62999999999994" y="460.025" type="curve"/>
      <point x="602.0533333333333" y="363.43333333333334" type="line"/>
      <point x="600.8566666666666" y="425.40666666666664" type="line"/>
      <point x="703.0816666666667" y="444.6533333333333"/>
      <point x="763.745" y="517.3833333333333"/>
      <point x="763.745" y="623.1983333333334" type="curve" smooth="yes"/>
      <point x="763.745" y="638.5466666666666" type="line" smooth="yes"/>
      <point x="763.745" y="779.2933333333333"/>
      <point x="686.4416666666667" y="832.3100000000001"/>
      <point x="507.57666666666665" y="896.3883333333333" type="curve" smooth="yes"/>
      <point x="372.1383333333333" y="941.5116666666667"/>
      <point x="342.1166666666667" y="962.365"/>
      <point x="342.1166666666667" y="1004.4366666666666" type="curve" smooth="yes"/>
      <point x="342.1166666666667" y="1009.3633333333333" type="line" smooth="yes"/>
      <point x="342.1166666666667" y="1050.1766666666667"/>
      <point x="370.68333333333334" y="1072.0016666666668"/>
      <point x="462.57" y="1072.0016666666668" type="curve" smooth="yes"/>
      <point x="564.39" y="1072.0016666666668"/>
      <point x="655.66" y="1042.1366666666665"/>
      <point x="727.3399999999999" y="1005.9066666666666" type="curve"/>
      <point x="706.4183333333333" y="1234.6183333333333" type="line"/>
      <point x="641.1483333333333" y="1270.5733333333333"/>
      <point x="542.0916666666666" y="1302.135"/>
      <point x="419.59166666666664" y="1302.135" type="curve" smooth="yes"/>
      <point x="186.54500000000002" y="1302.135"/>
      <point x="63.431666666666665" y="1209.6066666666666"/>
      <point x="63.431666666666665" y="1029.7966666666666" type="curve" smooth="yes"/>
      <point x="63.431666666666665" y="1019.5383333333333" type="line" smooth="yes"/>
      <point x="63.431666666666665" y="878.105"/>
      <point x="126.08333333333334" y="793.7283333333334"/>
      <point x="323.79166666666663" y="724.4866666666667" type="curve" smooth="yes"/>
      <point x="470.325" y="670.7283333333332"/>
      <point x="518.4433333333334" y="645.24"/>
      <point x="518.4433333333334" y="569.275" type="curve" smooth="yes"/>
      <point x="518.4433333333334" y="556.5566666666666" type="line" smooth="yes"/>
      <point x="518.4433333333334" y="509.3716666666666"/>
      <point x="500.6516666666667" y="478.95166666666665"/>
    </contour>
    <contour>
      <point x="370.7433333333333" y="723.5816666666667" type="curve"/>
      <point x="221.44333333333333" y="811.1" type="line"/>
      <point x="222.79166666666666" y="755.3966666666666" type="line"/>
      <point x="123.73" y="733.1333333333334"/>
      <point x="64.28" y="664.5266666666666"/>
      <point x="64.28" y="558.605" type="curve" smooth="yes"/>
      <point x="64.28" y="545.8183333333334" type="line" smooth="yes"/>
      <point x="64.28" y="414.785"/>
      <point x="141.24666666666667" y="349.83"/>
      <point x="315.34166666666664" y="284.78000000000003" type="curve" smooth="yes"/>
      <point x="450.1616666666667" y="234.26333333333332"/>
      <point x="482.0766666666667" y="217.24166666666667"/>
      <point x="482.0766666666667" y="170.36666666666667" type="curve" smooth="yes"/>
      <point x="482.0766666666667" y="165.09166666666667" type="line" smooth="yes"/>
      <point x="482.0766666666667" y="120.92999999999999"/>
      <point x="448.49333333333334" y="96.19500000000001"/>
      <point x="357.3483333333333" y="96.19500000000001" type="curve" smooth="yes"/>
      <point x="244.15166666666664" y="96.19500000000001"/>
      <point x="148.42666666666668" y="131.695"/>
      <point x="67.61166666666666" y="170.47" type="curve"/>
      <point x="88.38166666666667" y="-75.36" type="line"/>
      <point x="159.24166666666667" y="-110.01166666666667"/>
      <point x="261.0566666666667" y="-140.87666666666667"/>
      <point x="389.97833333333335" y="-140.87666666666667" type="curve" smooth="yes"/>
      <point x="643.9016666666666" y="-140.87666666666667"/>
      <point x="763.745" y="-37.97166666666667"/>
      <point x="763.745" y="150.23166666666665" type="curve" smooth="yes"/>
      <point x="763.745" y="161.20333333333332" type="line" smooth="yes"/>
      <point x="763.745" y="324.7383333333333"/>
      <point x="693.4133333333333" y="388.6483333333333"/>
      <point x="508.65500000000003" y="449.50166666666667" type="curve" smooth="yes"/>
      <point x="360.9133333333333" y="500.38333333333327"/>
      <point x="307.1433333333333" y="537.99"/>
      <point x="307.1433333333333" y="613.41" type="curve" smooth="yes"/>
      <point x="307.1433333333333" y="627.005" type="line"/>
      <point x="307.1433333333333" y="674.1616666666667"/>
      <point x="325.2383333333333" y="704.6550000000001"/>
    </contour>
  </outline>
</glyph>
<glyph name="copyright" format="2">
  <advance width="1293.575"/>
  <unicode hex="00A9"/>
  <outline>
    <contour>
      <point x="646.6133333333333" y="-24.786666666666665" type="curve" smooth="yes"/>
      <point x="1019.7216666666668" y="-24.786666666666665"/>
      <point x="1224.0366666666666" y="179.77"/>
      <point x="1224.0366666666666" y="548.715" type="curve" smooth="yes"/>
      <point x="1224.0366666666666" y="732.6333333333333" type="line" smooth="yes"/>
      <point x="1224.0366666666666" y="1098.685"/>
      <point x="1019.7216666666668" y="1301.3933333333332"/>
      <point x="646.6133333333333" y="1301.3933333333332" type="curve" smooth="yes"/>
      <point x="273.20166666666665" y="1301.3933333333332"/>
      <point x="69.53833333333333" y="1098.685"/>
      <point x="69.53833333333333" y="732.6333333333333" type="curve" smooth="yes"/>
      <point x="69.53833333333333" y="548.715" type="line" smooth="yes"/>
      <point x="69.53833333333333" y="179.77"/>
      <point x="273.20166666666665" y="-24.786666666666665"/>
    </contour>
    <contour>
      <point x="685.5516666666666" y="305.16833333333335" type="curve" smooth="yes"/>
      <point x="752.6133333333333" y="305.16833333333335"/>
      <point x="810.2483333333333" y="321.685"/>
      <point x="848.08" y="343.8983333333333" type="curve"/>
      <point x="861.4116666666666" y="509.0583333333333" type="line"/>
      <point x="827.8499999999999" y="488.7833333333333"/>
      <point x="789.3783333333333" y="474.16"/>
      <point x="740.435" y="474.16" type="curve" smooth="yes"/>
      <point x="657.0816666666667" y="474.16"/>
      <point x="618.8066666666667" y="520.255"/>
      <point x="618.8066666666667" y="601.9283333333333" type="curve" smooth="yes"/>
      <point x="618.8066666666667" y="681.2233333333334" type="line" smooth="yes"/>
      <point x="618.8066666666667" y="761.8516666666667"/>
      <point x="652.1883333333334" y="807.4466666666666"/>
      <point x="735.2383333333333" y="807.4466666666666" type="curve" smooth="yes"/>
      <point x="784.485" y="807.4466666666666"/>
      <point x="821.9566666666667" y="792.2783333333334"/>
      <point x="855.7149999999999" y="772.6999999999999" type="curve"/>
      <point x="841.8833333333333" y="934.6183333333333" type="line"/>
      <point x="805.2483333333333" y="956.3766666666667"/>
      <point x="751.1583333333333" y="972.5450000000001"/>
      <point x="684.9" y="972.5450000000001" type="curve" smooth="yes"/>
      <point x="507.225" y="972.5450000000001"/>
      <point x="423.56166666666667" y="866.8366666666667"/>
      <point x="423.56166666666667" y="684.2966666666666" type="curve" smooth="yes"/>
      <point x="423.56166666666667" y="594.6133333333332" type="line" smooth="yes"/>
      <point x="423.56166666666667" y="411.0733333333333"/>
      <point x="506.0283333333333" y="305.16833333333335"/>
    </contour>
    <contour>
      <point x="646.6133333333333" y="137.00833333333333" type="curve" smooth="yes"/>
      <point x="398.76" y="137.00833333333333"/>
      <point x="259.2383333333333" y="280.255"/>
      <point x="259.2383333333333" y="533.9283333333333" type="curve" smooth="yes"/>
      <point x="259.2383333333333" y="748.6166666666667" type="line" smooth="yes"/>
      <point x="259.2383333333333" y="998.8966666666666"/>
      <point x="398.76" y="1139.5983333333334"/>
      <point x="646.6133333333333" y="1139.5983333333334" type="curve" smooth="yes"/>
      <point x="894.1633333333334" y="1139.5983333333334"/>
      <point x="1034.3366666666668" y="998.8966666666666"/>
      <point x="1034.3366666666668" y="748.6166666666667" type="curve" smooth="yes"/>
      <point x="1034.3366666666668" y="533.9283333333333" type="line" smooth="yes"/>
      <point x="1034.3366666666668" y="280.255"/>
      <point x="894.1633333333334" y="137.00833333333333"/>
    </contour>
  </outline>
</glyph>
<glyph name="ordfeminine" format="2">
  <advance width="584.0183333333333"/>
  <unicode hex="00AA"/>
  <outline>
    <contour>
      <point x="337.53833333333336" y="639.6066666666667" type="line"/>
      <point x="532.2833333333333" y="639.6066666666667" type="line"/>
      <point x="532.2833333333333" y="1040.8300000000002" type="line" smooth="yes"/>
      <point x="532.2833333333333" y="1190.7016666666668"/>
      <point x="473.21" y="1290.6516666666666"/>
      <point x="280.99499999999995" y="1290.6516666666666" type="curve" smooth="yes"/>
      <point x="197.92166666666668" y="1290.6516666666666"/>
      <point x="125.80333333333334" y="1269.09"/>
      <point x="74.275" y="1242.8316666666667" type="curve"/>
      <point x="58.39833333333333" y="1084.4866666666667" type="line"/>
      <point x="114.42666666666668" y="1109.2616666666668"/>
      <point x="178.365" y="1130.885"/>
      <point x="246.40999999999997" y="1130.885" type="curve" smooth="yes"/>
      <point x="319.35333333333335" y="1130.885"/>
      <point x="341.03833333333336" y="1104.4250000000002"/>
      <point x="341.03833333333336" y="1048.9033333333334" type="curve"/>
      <point x="341.03833333333336" y="1011.4549999999999" type="line"/>
      <point x="341.03833333333336" y="785.09" type="line"/>
      <point x="344.5833333333333" y="779.6350000000001" type="line"/>
    </contour>
    <contour>
      <point x="189.17333333333335" y="627.0616666666666" type="curve" smooth="yes"/>
      <point x="284.87" y="627.0616666666666"/>
      <point x="319.9316666666667" y="678.6966666666667"/>
      <point x="336.19" y="750.6183333333333" type="curve"/>
      <point x="366.2016666666667" y="750.6183333333333" type="line"/>
      <point x="342.34166666666664" y="827.8033333333333" type="line"/>
      <point x="333.6733333333333" y="799.2483333333333"/>
      <point x="310.2416666666667" y="776.5749999999999"/>
      <point x="273.5516666666667" y="776.5749999999999" type="curve" smooth="yes"/>
      <point x="236.96833333333333" y="776.5749999999999"/>
      <point x="222.82833333333332" y="797.4733333333334"/>
      <point x="222.82833333333332" y="830.1466666666666" type="curve" smooth="yes"/>
      <point x="222.82833333333332" y="852.36" type="line" smooth="yes"/>
      <point x="222.82833333333332" y="889.2299999999999"/>
      <point x="237.31666666666663" y="906.7633333333333"/>
      <point x="281.355" y="915.8866666666667" type="curve" smooth="yes"/>
      <point x="370.56666666666666" y="933.5266666666666" type="line"/>
      <point x="355.19" y="1056.8483333333334" type="line"/>
      <point x="231.43833333333333" y="1034.6633333333334" type="line" smooth="yes"/>
      <point x="86.20166666666667" y="1008.2533333333333"/>
      <point x="31.673333333333332" y="954.0566666666666"/>
      <point x="31.673333333333332" y="838.545" type="curve" smooth="yes"/>
      <point x="31.673333333333332" y="809.4383333333333" type="line" smooth="yes"/>
      <point x="31.673333333333332" y="692.6516666666666"/>
      <point x="84.67333333333333" y="627.0616666666666"/>
    </contour>
  </outline>
</glyph>
<glyph name="logicalnot" format="2">
  <advance width="866.9333333333334"/>
  <unicode hex="00AC"/>
  <outline>
    <contour>
      <point x="796.0749999999999" y="245.14000000000001" type="line"/>
      <point x="796.0749999999999" y="653.7533333333333" type="line"/>
      <point x="551.885" y="653.7533333333333" type="line"/>
      <point x="551.885" y="245.14000000000001" type="line"/>
    </contour>
    <contour>
      <point x="71.38166666666666" y="511.3516666666667" type="line"/>
      <point x="796.0749999999999" y="511.3516666666667" type="line"/>
      <point x="796.0749999999999" y="744.2099999999999" type="line"/>
      <point x="71.38166666666666" y="744.2099999999999" type="line"/>
    </contour>
  </outline>
</glyph>
<glyph name="registered" format="2">
  <advance width="767.5633333333334"/>
  <unicode hex="00AE"/>
  <outline>
    <contour>
      <point x="383.78166666666664" y="516.2683333333333" type="curve" smooth="yes"/>
      <point x="602.6983333333333" y="516.2683333333333"/>
      <point x="723.0416666666667" y="642.5383333333333"/>
      <point x="723.0416666666667" y="853.0166666666667" type="curve" smooth="yes"/>
      <point x="723.0416666666667" y="960.9933333333333" type="line" smooth="yes"/>
      <point x="723.0416666666667" y="1171.1233333333334"/>
      <point x="602.6983333333333" y="1297.2416666666668"/>
      <point x="383.78166666666664" y="1297.2416666666668" type="curve" smooth="yes"/>
      <point x="164.01666666666665" y="1297.2416666666668"/>
      <point x="44.17333333333333" y="1170.9716666666666"/>
      <point x="44.17333333333333" y="960.9933333333333" type="curve" smooth="yes"/>
      <point x="44.17333333333333" y="853.0166666666667" type="line" smooth="yes"/>
      <point x="44.17333333333333" y="642.5383333333333"/>
      <point x="164.01666666666665" y="516.2683333333333"/>
    </contour>
    <contour>
      <point x="383.78166666666664" y="614.8933333333333" type="curve" smooth="yes"/>
      <point x="232.47833333333335" y="614.8933333333333"/>
      <point x="158.87166666666667" y="694.1683333333333"/>
      <point x="158.87166666666667" y="846.0783333333334" type="curve" smooth="yes"/>
      <point x="158.87166666666667" y="969.6283333333333" type="line" smooth="yes"/>
      <point x="158.87166666666667" y="1119.69"/>
      <point x="232.47833333333335" y="1198.2683333333332"/>
      <point x="383.78166666666664" y="1198.2683333333332" type="curve" smooth="yes"/>
      <point x="534.4333333333333" y="1198.2683333333332"/>
      <point x="608.1916666666666" y="1119.69"/>
      <point x="608.1916666666666" y="969.6283333333333" type="curve" smooth="yes"/>
      <point x="608.1916666666666" y="846.0783333333334" type="line" smooth="yes"/>
      <point x="608.1916666666666" y="694.1683333333333"/>
      <point x="534.4333333333333" y="614.8933333333333"/>
    </contour>
    <contour>
      <point x="433.34833333333336" y="721.3983333333333" type="line"/>
      <point x="537.8666666666667" y="721.3983333333333" type="line"/>
      <point x="527.4116666666667" y="805.5166666666667" type="line" smooth="yes"/>
      <point x="518.9566666666666" y="871.4100000000001"/>
      <point x="499.3216666666667" y="900.5333333333333"/>
      <point x="431.5233333333333" y="906.3816666666667" type="curve"/>
      <point x="449.2033333333333" y="893.7016666666667" type="line"/>
      <point x="449.2033333333333" y="907.8816666666667" type="line"/>
      <point x="505.92833333333334" y="911.8366666666666"/>
      <point x="531.4116666666667" y="942.3366666666667"/>
      <point x="531.4116666666667" y="994.4716666666666" type="curve" smooth="yes"/>
      <point x="531.4116666666667" y="1003.2466666666667" type="line" smooth="yes"/>
      <point x="531.4116666666667" y="1072.005"/>
      <point x="490.2316666666667" y="1111.4883333333335"/>
      <point x="399.13" y="1111.4883333333335" type="curve" smooth="yes"/>
      <point x="326.65833333333336" y="1111.4883333333335" type="line"/>
      <point x="326.65833333333336" y="1027.4366666666667" type="line"/>
      <point x="388.95000000000005" y="1027.4366666666667" type="line" smooth="yes"/>
      <point x="416.83166666666665" y="1027.4366666666667"/>
      <point x="429.09" y="1012.1166666666667"/>
      <point x="429.09" y="982.1899999999999" type="curve" smooth="yes"/>
      <point x="429.09" y="971.3249999999999" type="line" smooth="yes"/>
      <point x="429.09" y="941.14"/>
      <point x="416.68" y="926.4716666666667"/>
      <point x="388.34333333333336" y="926.32" type="curve" smooth="yes"/>
      <point x="327.11333333333334" y="926.1683333333334" type="line"/>
      <point x="327.11333333333334" y="844.8583333333333" type="line"/>
      <point x="379.3433333333333" y="844.51" type="line" smooth="yes"/>
      <point x="411.51166666666666" y="844.1616666666667"/>
      <point x="422.0283333333333" y="831.3416666666667"/>
      <point x="426.43833333333333" y="789.6566666666666" type="curve" smooth="yes"/>
    </contour>
    <contour>
      <point x="252.56166666666664" y="721.3983333333333" type="line"/>
      <point x="354.3833333333333" y="721.3983333333333" type="line"/>
      <point x="354.3833333333333" y="868.1733333333334" type="line"/>
      <point x="353.68666666666667" y="902.0333333333333" type="line"/>
      <point x="353.68666666666667" y="1111.4883333333335" type="line"/>
      <point x="252.56166666666664" y="1111.4883333333335" type="line"/>
    </contour>
  </outline>
</glyph>
<glyph name="degree" format="2">
  <advance width="606.8383333333334"/>
  <unicode hex="00B0"/>
  <outline>
    <contour>
      <point x="303.8433333333333" y="757.6216666666667" type="curve" smooth="yes"/>
      <point x="469.5466666666666" y="757.6216666666667"/>
      <point x="559.8" y="854.0883333333334"/>
      <point x="559.8" y="1021.9316666666667" type="curve" smooth="yes"/>
      <point x="559.8" y="1040.5216666666665" type="line" smooth="yes"/>
      <point x="559.8" y="1207.865"/>
      <point x="469.5466666666666" y="1304.3316666666667"/>
      <point x="303.8433333333333" y="1304.3316666666667" type="curve" smooth="yes"/>
      <point x="137.98833333333334" y="1304.3316666666667"/>
      <point x="47.038333333333334" y="1207.865"/>
      <point x="47.038333333333334" y="1040.5216666666665" type="curve" smooth="yes"/>
      <point x="47.038333333333334" y="1021.9316666666667" type="line" smooth="yes"/>
      <point x="47.038333333333334" y="854.0883333333334"/>
      <point x="137.98833333333334" y="757.6216666666667"/>
    </contour>
    <contour>
      <point x="303.8433333333333" y="911.5166666666667" type="curve" smooth="yes"/>
      <point x="253.59666666666666" y="911.5166666666667"/>
      <point x="228.77666666666667" y="948.5500000000001"/>
      <point x="228.77666666666667" y="1019.5383333333333" type="curve" smooth="yes"/>
      <point x="228.77666666666667" y="1043.46" type="line" smooth="yes"/>
      <point x="228.77666666666667" y="1112.9033333333334"/>
      <point x="253.59666666666666" y="1150.4366666666667"/>
      <point x="303.8433333333333" y="1150.4366666666667" type="curve" smooth="yes"/>
      <point x="354.2416666666667" y="1150.4366666666667"/>
      <point x="378.40999999999997" y="1112.9033333333334"/>
      <point x="378.40999999999997" y="1043.46" type="curve" smooth="yes"/>
      <point x="378.40999999999997" y="1019.5383333333333" type="line" smooth="yes"/>
      <point x="378.40999999999997" y="948.5500000000001"/>
      <point x="354.2416666666667" y="911.5166666666667"/>
    </contour>
  </outline>
</glyph>
<glyph name="plusminus" format="2">
  <advance width="879.5683333333333"/>
  <unicode hex="00B1"/>
  <outline>
    <contour>
      <point x="77.76333333333332" y="106.11500000000001" type="line"/>
      <point x="801.8050000000001" y="106.11500000000001" type="line"/>
      <point x="801.8050000000001" y="333.8833333333334" type="line"/>
      <point x="77.76333333333332" y="333.8833333333334" type="line"/>
    </contour>
    <contour>
      <point x="562.0533333333334" y="427.4833333333333" type="line"/>
      <point x="562.0533333333334" y="1071.855" type="line"/>
      <point x="317.86333333333334" y="1071.855" type="line"/>
      <point x="317.86333333333334" y="427.4833333333333" type="line"/>
    </contour>
    <contour>
      <point x="77.76333333333332" y="633.5433333333333" type="line"/>
      <point x="801.8050000000001" y="633.5433333333333" type="line"/>
      <point x="801.8050000000001" y="865.795" type="line"/>
      <point x="77.76333333333332" y="865.795" type="line"/>
    </contour>
  </outline>
</glyph>
<glyph name="twosuperior" format="2">
  <advance width="503.3383333333333"/>
  <unicode hex="00B2"/>
  <outline>
    <contour>
      <point x="25.775" y="713.0" type="line"/>
      <point x="476.00166666666667" y="713.0" type="line"/>
      <point x="476.00166666666667" y="872.98" type="line"/>
      <point x="175.63666666666666" y="872.98" type="line"/>
      <point x="255.21666666666667" y="847.3" type="line"/>
      <point x="255.21666666666667" y="878.98" type="line"/>
      <point x="348.07" y="971.58" type="line" smooth="yes"/>
      <point x="429.165" y="1045.7866666666666"/>
      <point x="472.0916666666667" y="1110.0616666666667"/>
      <point x="472.0916666666667" y="1199.4883333333335" type="curve" smooth="yes"/>
      <point x="472.0916666666667" y="1209.505" type="line" smooth="yes"/>
      <point x="472.0916666666667" y="1330.275"/>
      <point x="391.58000000000004" y="1408.9383333333333"/>
      <point x="235.75333333333333" y="1408.9383333333333" type="curve" smooth="yes"/>
      <point x="159.7866666666667" y="1408.9383333333333"/>
      <point x="95.28666666666666" y="1391.4833333333333"/>
      <point x="48.06166666666667" y="1367.9833333333333" type="curve"/>
      <point x="32.33666666666667" y="1208.29" type="line"/>
      <point x="70.80833333333332" y="1225.11"/>
      <point x="125.48833333333333" y="1244.3683333333333"/>
      <point x="184.11166666666668" y="1244.3683333333333" type="curve" smooth="yes"/>
      <point x="252.99333333333334" y="1244.3683333333333"/>
      <point x="274.6783333333333" y="1218.4866666666667"/>
      <point x="274.6783333333333" y="1177.7683333333332" type="curve" smooth="yes"/>
      <point x="274.6783333333333" y="1173.145" type="line" smooth="yes"/>
      <point x="274.6783333333333" y="1127.1233333333332"/>
      <point x="235.96500000000003" y="1087.6016666666667"/>
      <point x="177.64" y="1030.7883333333334" type="curve" smooth="yes"/>
      <point x="25.775" y="880.2666666666668" type="line"/>
    </contour>
  </outline>
</glyph>
<glyph name="threesuperior" format="2">
  <advance width="518.1416666666667"/>
  <unicode hex="00B3"/>
  <outline>
    <contour>
      <point x="222.725" y="697.6066666666667" type="curve" smooth="yes"/>
      <point x="406.24833333333333" y="697.6066666666667"/>
      <point x="488.4233333333334" y="774.23"/>
      <point x="488.4233333333334" y="892.6800000000001" type="curve" smooth="yes"/>
      <point x="488.4233333333334" y="908.4266666666666" type="line" smooth="yes"/>
      <point x="488.4233333333334" y="1002.0616666666666"/>
      <point x="447.18166666666673" y="1052.4550000000002"/>
      <point x="343.265" y="1065.955" type="curve"/>
      <point x="355.535" y="1045.3983333333333" type="line"/>
      <point x="355.535" y="1070.455" type="line"/>
      <point x="445.7883333333333" y="1085.6516666666666"/>
      <point x="484.62" y="1138.3933333333334"/>
      <point x="484.62" y="1219.18" type="curve" smooth="yes"/>
      <point x="484.62" y="1232.2133333333334" type="line" smooth="yes"/>
      <point x="484.62" y="1346.0900000000001"/>
      <point x="405.0183333333333" y="1409.135"/>
      <point x="240.8433333333333" y="1409.135" type="curve" smooth="yes"/>
      <point x="160.905" y="1409.135"/>
      <point x="93.17999999999999" y="1392.5733333333333"/>
      <point x="45.60666666666667" y="1371.6633333333332" type="curve"/>
      <point x="29.92666666666667" y="1217.9250000000002" type="line"/>
      <point x="70.38166666666667" y="1232.2"/>
      <point x="128.775" y="1249.2166666666667"/>
      <point x="195.07833333333332" y="1249.2166666666667" type="curve" smooth="yes"/>
      <point x="260.6616666666667" y="1249.2166666666667"/>
      <point x="284.5266666666667" y="1230.015"/>
      <point x="284.5266666666667" y="1194.8416666666665" type="curve" smooth="yes"/>
      <point x="284.5266666666667" y="1187.64" type="line" smooth="yes"/>
      <point x="284.5266666666667" y="1148.2983333333332"/>
      <point x="253.99333333333334" y="1134.265"/>
      <point x="193.57833333333332" y="1131.9166666666667" type="curve" smooth="yes"/>
      <point x="100.92666666666668" y="1128.72" type="line"/>
      <point x="100.92666666666668" y="987.3133333333333" type="line"/>
      <point x="199.51666666666665" y="983.9649999999999" type="line" smooth="yes"/>
      <point x="264.40333333333336" y="981.4649999999999"/>
      <point x="284.78499999999997" y="961.415"/>
      <point x="284.78499999999997" y="927.2866666666666" type="curve" smooth="yes"/>
      <point x="284.78499999999997" y="918.8266666666666" type="line" smooth="yes"/>
      <point x="284.78499999999997" y="883.1533333333333"/>
      <point x="262.5716666666667" y="858.9350000000001"/>
      <point x="186.79166666666666" y="858.9350000000001" type="curve" smooth="yes"/>
      <point x="125.38166666666666" y="858.9350000000001"/>
      <point x="71.51666666666668" y="873.4066666666666"/>
      <point x="25.078333333333333" y="890.0749999999999" type="curve"/>
      <point x="40.75833333333333" y="729.2299999999999" type="line"/>
      <point x="80.045" y="712.275"/>
      <point x="150.42166666666668" y="697.6066666666667"/>
    </contour>
  </outline>
</glyph>
<glyph name="micro" format="2">
  <advance width="990.7283333333334"/>
  <unicode hex="00B5"/>
  <outline>
    <contour>
      <point x="903.5383333333333" y="993.225" type="line"/>
      <point x="615.78" y="993.225" type="line"/>
      <point x="615.78" y="241.03" type="line"/>
      <point x="648.5566666666666" y="228.44" type="line"/>
      <point x="638.6183333333333" y="0.0" type="line"/>
      <point x="903.5383333333333" y="0.0" type="line"/>
    </contour>
    <contour>
      <point x="375.09999999999997" y="370.125" type="curve" smooth="yes"/>
      <point x="375.09999999999997" y="993.225" type="line"/>
      <point x="87.19" y="993.225" type="line"/>
      <point x="87.19" y="-347.0" type="line"/>
      <point x="364.42" y="-347.0" type="line"/>
      <point x="364.42" y="-259.26666666666665" type="line"/>
      <point x="343.4533333333333" y="64.22833333333332" type="line"/>
      <point x="349.06" y="64.22833333333332" type="line"/>
      <point x="371.22833333333335" y="13.505"/>
      <point x="407.0366666666667" y="-15.803333333333333"/>
      <point x="476.2433333333334" y="-15.803333333333333" type="curve" smooth="yes"/>
      <point x="571.4449999999999" y="-15.803333333333333"/>
      <point x="614.45" y="47.28666666666666"/>
      <point x="634.9216666666667" y="185.91666666666669" type="curve"/>
      <point x="687.4166666666666" y="185.91666666666669" type="line"/>
      <point x="619.0833333333334" y="325.0966666666667" type="line"/>
      <point x="602.7183333333334" y="265.7783333333333"/>
      <point x="559.2866666666666" y="220.35833333333332"/>
      <point x="491.98499999999996" y="220.35833333333332" type="curve" smooth="yes"/>
      <point x="405.68333333333334" y="220.35833333333332"/>
      <point x="375.09999999999997" y="274.00333333333333"/>
    </contour>
  </outline>
</glyph>
